<svg id="Layer_1" data-name="Layer 1" xmlns="http://www.w3.org/2000/svg" viewBox="0 0 24 24">
  <circle cx="4.5" cy="2.5" r="0.5" fill="#464646"/>
  <circle cx="2.5" cy="2.5" r="0.5" fill="#464646"/>
  <circle cx="3.5" cy="3.5" r="0.5" fill="#464646"/>
  <circle cx="4.5" cy="4.5" r="0.5" fill="#464646"/>
  <circle cx="2.5" cy="4.5" r="0.5" fill="#464646"/>
  <circle cx="3.5" cy="5.5" r="0.5" fill="#464646"/>
  <circle cx="4.5" cy="6.5" r="0.5" fill="#464646"/>
  <circle cx="2.5" cy="6.5" r="0.5" fill="#464646"/>
  <circle cx="3.5" cy="7.5" r="0.5" fill="#464646"/>
  <circle cx="4.5" cy="8.5" r="0.5" fill="#464646"/>
  <circle cx="2.5" cy="8.5" r="0.5" fill="#464646"/>
  <circle cx="3.5" cy="9.5" r="0.5" fill="#464646"/>
  <circle cx="4.5" cy="10.5" r="0.5" fill="#464646"/>
  <circle cx="2.5" cy="10.5" r="0.5" fill="#464646"/>
  <circle cx="3.5" cy="11.5" r="0.5" fill="#464646"/>
  <circle cx="4.5" cy="12.5" r="0.5" fill="#464646"/>
  <circle cx="2.5" cy="12.5" r="0.5" fill="#464646"/>
  <circle cx="3.5" cy="13.5" r="0.5" fill="#464646"/>
  <circle cx="4.5" cy="14.5" r="0.5" fill="#464646"/>
  <circle cx="2.5" cy="14.5" r="0.5" fill="#464646"/>
  <circle cx="3.5" cy="15.5" r="0.5" fill="#464646"/>
  <circle cx="4.5" cy="16.5" r="0.5" fill="#464646"/>
  <circle cx="2.5" cy="16.5" r="0.5" fill="#464646"/>
  <circle cx="3.5" cy="17.5" r="0.5" fill="#464646"/>
  <circle cx="4.5" cy="18.5" r="0.5" fill="#464646"/>
  <circle cx="2.5" cy="18.5" r="0.5" fill="#464646"/>
  <circle cx="3.5" cy="19.5" r="0.5" fill="#464646"/>
  <circle cx="4.5" cy="20.5" r="0.5" fill="#464646"/>
  <circle cx="2.5" cy="20.5" r="0.5" fill="#464646"/>
  <circle cx="3.5" cy="21.5" r="0.5" fill="#464646"/>
  <g>
    <circle cx="14.5" cy="19.5" r="0.5" fill="#464646"/>
    <circle cx="12.5" cy="19.5" r="0.5" fill="#464646"/>
    <circle cx="10.5" cy="19.5" r="0.5" fill="#464646"/>
    <circle cx="8.5" cy="19.5" r="0.5" fill="#464646"/>
    <circle cx="22.5" cy="19.5" r="0.5" fill="#464646"/>
    <circle cx="20.5" cy="19.5" r="0.5" fill="#464646"/>
    <circle cx="18.5" cy="19.5" r="0.5" fill="#464646"/>
    <circle cx="16.5" cy="19.5" r="0.5" fill="#464646"/>
  </g>
  <g>
    <circle cx="14.5" cy="21.5" r="0.5" fill="#464646"/>
    <circle cx="12.5" cy="21.5" r="0.5" fill="#464646"/>
    <circle cx="10.5" cy="21.5" r="0.5" fill="#464646"/>
    <circle cx="8.5" cy="21.5" r="0.5" fill="#464646"/>
    <circle cx="22.5" cy="21.5" r="0.5" fill="#464646"/>
    <circle cx="20.5" cy="21.5" r="0.5" fill="#464646"/>
    <circle cx="18.5" cy="21.5" r="0.5" fill="#464646"/>
    <circle cx="16.5" cy="21.5" r="0.5" fill="#464646"/>
  </g>
  <g>
    <circle cx="15.5" cy="20.5" r="0.5" fill="#464646"/>
    <circle cx="13.5" cy="20.5" r="0.5" fill="#464646"/>
    <circle cx="11.5" cy="20.5" r="0.5" fill="#464646"/>
    <circle cx="9.5" cy="20.5" r="0.5" fill="#464646"/>
    <circle cx="21.5" cy="20.5" r="0.5" fill="#464646"/>
    <circle cx="19.5" cy="20.5" r="0.5" fill="#464646"/>
    <circle cx="17.5" cy="20.5" r="0.5" fill="#464646"/>
  </g>
  <rect x="1.5" y="1.5" width="4" height="21" fill="none" stroke="#464646" stroke-miterlimit="10"/>
  <rect x="13" y="13" width="4" height="15" transform="translate(35.5 5.5) rotate(90)" fill="none" stroke="#464646" stroke-miterlimit="10"/>
  <rect x="7.5" y="1.5" width="15" height="15" fill="none" stroke="#464646" stroke-miterlimit="10"/>
</svg>
