<svg version="1.1" id="Artwork" xmlns="http://www.w3.org/2000/svg" xmlns:xlink="http://www.w3.org/1999/xlink" x="0px" y="0px"
	 width="24px" height="24px" viewBox="0 0 24 24" enable-background="new 0 0 24 24" xml:space="preserve">
<path class="aw-theme-iconOutline" fill="#464646" d="M15.7,3c-0.1-0.1-0.2-0.3-0.3-0.4C15,2.2,14.5,2,14,2c0-1.1-0.9-2-2-2h-1C9.9,0,9,0.9,9,2
	C8.3,2,7.6,2.4,7.3,3H3v21h17V3H15.7z M8,4c0-0.6,0.4-1,1-1h1V2c0-0.6,0.4-1,1-1h1c0.6,0,1,0.4,1,1v1h1c0.3,0,0.5,0.1,0.7,0.3
	C14.9,3.5,15,3.7,15,4v1H8V4z M19,23H4V4h3v2h9V4h3V23z"/>
<circle class="aw-theme-iconOutline" fill="#464646" cx="11.5" cy="2.5" r="0.5"/>
</svg>
