<svg version="1.1" id="Verb_x5F_Zone" xmlns="http://www.w3.org/2000/svg" xmlns:xlink="http://www.w3.org/1999/xlink" x="0px"
	 y="0px" viewBox="0 0 24 24" enable-background="new 0 0 24 24" xml:space="preserve">
<path class="aw-theme-iconOutline" fill="#464646" d="M9,21.969H4.984V18H9V21.969z M5.984,20.969H8V19H5.984V20.969z"/>
<path class="aw-theme-iconOutline" fill="#464646" d="M14.023,21.969h-4.016V18h4.016V21.969z M11.008,20.969h2.016V19h-2.016V20.969z"/>
<path class="aw-theme-iconOutline" fill="#464646" d="M19.016,21.969H15V18h4.016V21.969z M16,20.969h2.016V19H16V20.969z"/>
<path class="aw-theme-iconOutline" fill="#464646" d="M8.992,16.984H4.977v-3.969h4.016V16.984z M5.977,15.984h2.016v-1.969H5.977V15.984z"/>
<path class="aw-theme-iconOutline" fill="#464646" d="M14.039,16.984h-4.016v-3.969h4.016V16.984z M11.023,15.984h2.016v-1.969h-2.016V15.984z"/>
<path class="aw-theme-iconOutline" fill="#464646" d="M19.008,16.984h-4.016v-3.969h4.016V16.984z M15.992,15.984h2.016v-1.969h-2.016V15.984z"/>
<path class="aw-theme-iconOutline" fill="#464646" d="M9.031,12H5.016V8.031h4.016V12z M6.016,11h2.016V9.031H6.016V11z"/>
<path class="aw-theme-iconOutline" fill="#464646" d="M14.031,12h-4.016V8.031h4.016V12z M11.016,11h2.016V9.031h-2.016V11z"/>
<path class="aw-theme-iconOutline" fill="#464646" d="M19.047,12h-4.016V8.031h4.016V12z M16.031,11h2.016V9.031h-2.016V11z"/>
<path class="aw-theme-iconOutline" fill="#464646" d="M18,2H6H5v1v3.016v0.969v0.031h14V6.984V6.016V3V2H18z M18,6.016H6V3h12V6.016z"/>
<path class="aw-theme-iconOutline" fill="#464646" d="M21.525,24.023H2.523c-0.264,0-0.476-0.213-0.476-0.48V0.48C2.047,0.215,2.259,0,2.523,0h19.002
	C21.787,0,22,0.215,22,0.48v23.063C22,23.811,21.787,24.023,21.525,24.023z M2.998,23.063h18.048V0.961H2.998V23.063z"/>
</svg>
