<svg id="Layer_1" data-name="Layer 1" xmlns="http://www.w3.org/2000/svg" viewBox="0 0 16 16">
  <path d="M7.5,11a.5.5,0,1,0,.5.5.5.5,0,0,0-.5-.5Z" class="aw-theme-iconOutline" fill="#464646"/>
  <path d="M13.8,14H1.2a1.193,1.193,0,0,1-1.03-.581,1.18,1.18,0,0,1-.026-1.182L6.444.628a1.242,1.242,0,0,1,2.112,0l6.3,11.61A1.2,1.2,0,0,1,13.8,14ZM7.5,1a.191.191,0,0,0-.177.1l-6.3,11.61a.181.181,0,0,0,0,.188A.2.2,0,0,0,1.2,13H13.8a.194.194,0,0,0,.172-.1.181.181,0,0,0,.005-.189L7.677,1.1A.193.193,0,0,0,7.5,1Z" class="aw-theme-iconOutline" fill="#464646"/>
  <rect x="7" y="5" width="1" height="5" class="aw-theme-iconOutline" fill="#464646"/>
</svg>
