<svg version="1.1" id="Livello_1" xmlns="http://www.w3.org/2000/svg" xmlns:xlink="http://www.w3.org/1999/xlink" x="0px" y="0px"
	 viewBox="0 0 24 24" enable-background="new 0 0 24 24" xml:space="preserve">
<path class="aw-theme-iconOutline" fill="#464646" d="M17.499,24C13.915,24,11,21.085,11,17.501C11,13.916,13.915,11,17.499,11s6.5,2.916,6.5,6.501
	C23.999,21.085,21.083,24,17.499,24z M17.499,12C14.467,12,12,14.468,12,17.501C12,20.533,14.467,23,17.499,23s5.5-2.467,5.5-5.499
	C22.999,14.468,20.531,12,17.499,12z"/>
<rect x="13.636" y="17.002" transform="matrix(0.7075 0.7067 -0.7067 0.7075 17.4867 -7.2447)" class="aw-theme-iconOutline" fill="#464646" width="7.719" height="1"/>
<rect x="16.999" y="13.645" transform="matrix(0.7071 0.7071 -0.7071 0.7071 17.501 -7.2471)" class="aw-theme-iconOutline" fill="#464646" width="1" height="7.714"/>
<path class="aw-theme-iconOutline" fill="#464646" d="M3.293,19.294L3.293,19.294c-0.39,0.391-0.39,1.023,0,1.414c0.391,0.391,1.023,0.391,1.414,0h0.001
	c0.39-0.391,0.39-1.025,0-1.414C4.317,18.901,3.684,18.901,3.293,19.294"/>
<path class="aw-theme-iconOutline" fill="#464646" d="M10.339,17.48L6.34,22.071c-0.599,0.6-1.387,0.93-2.22,0.93c-0.834,0-1.618-0.324-2.207-0.914
	C1.324,21.499,1,20.716,1,19.88c0-0.834,0.324-1.617,0.888-2.184l9.725-8.471c0.135-0.117,0.197-0.299,0.16-0.474
	c-0.199-0.972-0.711-4.277,1.01-5.998C13.914,1.622,15.416,1,17.016,1c0.277,0,0.555,0.019,0.828,0.058l-2.527,2.528
	c-0.068,0.068-0.117,0.156-0.137,0.251l-0.555,2.684c-0.035,0.164,0.016,0.334,0.135,0.452l2.266,2.266
	c0.094,0.095,0.223,0.146,0.352,0.146c0.033,0,0.068-0.003,0.102-0.01l2.686-0.556c0.094-0.02,0.182-0.066,0.25-0.135l2.529-2.529
	c0.258,1.857-0.361,3.728-1.695,5.062c-0.278,0.278,0.263-0.073-0.123,0.114c0.339,0.264,0.631,0.396,0.828,0.591
	c0.188-0.188-0.094,0.094,0.094-0.094c1.541-1.54,2.188-3.653,1.887-5.811c-0.053-0.376-0.314-0.689-0.672-0.81
	c-0.105-0.035-0.213-0.052-0.318-0.052c-0.262,0-0.518,0.102-0.707,0.293L19.813,7.87l-2.27,0.471l-1.885-1.883l0.471-2.271
	l2.422-2.422c0.268-0.269,0.363-0.665,0.242-1.025c-0.121-0.36-0.436-0.62-0.811-0.673C17.664,0.023,17.338,0,17.016,0
	c-1.867,0-3.621,0.727-4.939,2.046c-1.89,1.889-1.615,5.067-1.337,6.615l-9.508,8.282c-0.018,0.016-0.035,0.033-0.051,0.049
	C0.419,17.753,0,18.78,0,19.88c0,1.102,0.428,2.137,1.205,2.914c0.778,0.777,1.813,1.207,2.915,1.207c1.1,0,2.14-0.436,2.927-1.223
	c0.017-0.016,0.031-0.033,0.047-0.051L10.406,19C10.381,18.278,10.301,18.104,10.339,17.48z"/>
</svg>
