<svg id="svg5" xmlns="http://www.w3.org/2000/svg" viewBox="0 0 24 24">
  <g id="g858">
    <path id="path827" d="M1.08,1V6h8V1Zm1,1h6V5h-6Z" class="aw-theme-iconOutline" fill="#464646"/>
    <path id="path823" d="M4.08,7v5h8V7Zm1,1h6v3h-6Z" class="aw-theme-iconOutline" fill="#464646"/>
    <path id="path843" d="M8.081,15.5a.5.5,0,1,0,.5-.5A.5.5,0,0,0,8.081,15.5Z" class="aw-theme-iconOutline" fill="#464646"/>
    <path id="path841" d="M6.581,15a.5.5,0,1,1-.5.5A.5.5,0,0,1,6.581,15Z" class="aw-theme-iconOutline" fill="#464646"/>
    <path id="path839" d="M9.581,14a.5.5,0,1,1-.5.5A.5.5,0,0,1,9.581,14Z" class="aw-theme-iconOutline" fill="#464646"/>
    <path id="path837" d="M7.581,14a.5.5,0,1,1-.5.5A.5.5,0,0,1,7.581,14Z" class="aw-theme-iconOutline" fill="#464646"/>
    <path id="path835" d="M5.581,14a.5.5,0,1,1-.5.5A.5.5,0,0,1,5.581,14Z" class="aw-theme-iconOutline" fill="#464646"/>
    <path id="path833" d="M9.581,16a.5.5,0,1,1-.5.5A.5.5,0,0,1,9.581,16Z" class="aw-theme-iconOutline" fill="#464646"/>
    <path id="path831" d="M7.581,16a.5.5,0,1,1-.5.5A.5.5,0,0,1,7.581,16Z" class="aw-theme-iconOutline" fill="#464646"/>
    <path id="path829" d="M5.581,16a.5.5,0,1,1-.5.5A.5.5,0,0,1,5.581,16Z" class="aw-theme-iconOutline" fill="#464646"/>
    <path id="path2" d="M9,17.5c0,.169.014.334.024.5H4.081V13h8.433a7.487,7.487,0,0,0-.642,1H5.081v3H9.024C9.014,17.166,9,17.331,9,17.5Z" class="aw-theme-iconOutline" fill="#464646"/>
    <g id="g8">
      <path id="path6" d="M14.843,19.758a.5.5,0,0,1-.457-.274,3.4,3.4,0,0,1-.183-1.1,2.851,2.851,0,0,1,2.836-2.837,3.139,3.139,0,0,1,.824.092.407.407,0,0,1,.274.549c-.091.183-.366.366-.549.274a1,1,0,0,0-.457-.091,2,2,0,0,0-1.922,1.921,1.729,1.729,0,0,0,.183.732.443.443,0,0,1-.274.549C14.935,19.758,14.935,19.758,14.843,19.758Z" class="aw-theme-iconOutline" fill="#464646"/>
    </g>
    <g id="g12">
      <path id="path10" d="M17.039,21.222a2.7,2.7,0,0,1-.915-.183.434.434,0,1,1,.275-.823,2.338,2.338,0,0,0,.64.183,2,2,0,0,0,1.922-1.922,1.349,1.349,0,0,0-.092-.64.434.434,0,0,1,.824-.275,3.777,3.777,0,0,1,.091,1.007A2.675,2.675,0,0,1,17.039,21.222Z" class="aw-theme-iconOutline" fill="#464646"/>
    </g>
    <g id="g16">
      <path id="path14" d="M17.039,23.235a6.684,6.684,0,0,1-2.47-.366.434.434,0,1,1,.274-.823,5.1,5.1,0,0,0,2.105.366,7.22,7.22,0,0,0,6.13-3.935,10.49,10.49,0,0,0-1.921-2.47.453.453,0,0,1,.64-.641A9.972,9.972,0,0,1,23.9,18.02a.817.817,0,0,1,0,.915A8.124,8.124,0,0,1,17.039,23.235ZM23.17,18.2Z" class="aw-theme-iconOutline" fill="#464646"/>
    </g>
    <g id="g20">
      <path id="path18" d="M12.556,21.68a.336.336,0,0,1-.275-.092,7.509,7.509,0,0,1-2.105-2.745.817.817,0,0,1,0-.915,8.035,8.035,0,0,1,6.863-4.392,6.49,6.49,0,0,1,2.379.366.434.434,0,1,1-.274.823,4.934,4.934,0,0,0-2.013-.366A7.223,7.223,0,0,0,11,18.294a7.027,7.027,0,0,0,1.922,2.471.451.451,0,0,1,.091.64A.839.839,0,0,1,12.556,21.68Zm-1.648-3.111Z" class="aw-theme-iconOutline" fill="#464646"/>
    </g>
    <g id="g53">
      <path id="path51" d="M11.915,23.967a.554.554,0,0,1-.366-.091.443.443,0,0,1,0-.641L21.8,12.987a.453.453,0,0,1,.641.64L12.281,23.876A.551.551,0,0,1,11.915,23.967Z" class="aw-theme-iconOutline" fill="#464646"/>
    </g>
    <path id="path839-2" d="M11.581,14a.5.5,0,1,1-.5.5A.5.5,0,0,1,11.581,14Z" class="aw-theme-iconOutline" fill="#464646"/>
    <path id="path843-3" d="M10.056,15.5a.5.5,0,1,0,.5-.5A.5.5,0,0,0,10.056,15.5Z" class="aw-theme-iconOutline" fill="#464646"/>
  </g>
</svg>
