<svg version="1.1" id="Verb_x5F_Zone" xmlns="http://www.w3.org/2000/svg" xmlns:xlink="http://www.w3.org/1999/xlink" x="0px"
	 y="0px" viewBox="0 0 24 24" enable-background="new 0 0 24 24" xml:space="preserve">
<path class="aw-theme-iconOutline" fill="#464646" d="M6.148,8.852l4.645,4.646l-1.646,1.645c-0.196,0.195-0.196,0.512-0.002,0.708c0,0,0.002,0,0.002,0.001
	l7.998,7.998c0.195,0.195,0.512,0.195,0.707,0.001c0.094-0.095,0.147-0.222,0.147-0.354V7.499c0-0.202-0.123-0.385-0.309-0.461
	c-0.061-0.026-0.126-0.039-0.191-0.039c-0.133,0-0.26,0.053-0.354,0.146l-2.146,2.146V0.5c0-0.203-0.121-0.385-0.309-0.462
	C14.63,0.012,14.564,0,14.5,0c-0.134,0-0.261,0.053-0.354,0.146L6.148,8.144C5.952,8.338,5.952,8.656,6.146,8.852
	C6.146,8.852,6.146,8.852,6.148,8.852z M14.689,16.959c0.188-0.077,0.31-0.26,0.31-0.462v-5.792l2-2v13.583l-6.79-6.791l1.29-1.293
	l2.646,2.646C14.289,16.994,14.504,17.036,14.689,16.959z M13.999,1.707v13.584l-6.79-6.793L13.999,1.707z"/>
</svg>
