<svg id="Layer_1" data-name="Layer 1" xmlns="http://www.w3.org/2000/svg" viewBox="0 0 24 24">
  <g id="g842">
    <path id="rect815" d="M1.314.057A1.31,1.31,0,0,0,0,1.366V19.692A1.31,1.31,0,0,0,1.314,21H9.683v-.873H8.919v-3.49H9.9v-.873H8.919v-3.49h2.2v-.9h-2.2V7.91h3.122c.019.8-.133,1.693-.041,2.09h1a17.99,17.99,0,0,0-.067-2.09h3.125V9.624h.892V7.91h3.137V9.931h.873V1.366A1.31,1.31,0,0,0,19.647.057Zm.432.872H19.214a.912.912,0,0,1,.873.873V6.976H.874V1.8A.907.907,0,0,1,1.746.929Zm4.768,1.31A1.741,1.741,0,0,0,5.253,5.218,1.789,1.789,0,0,0,8.3,3.984,1.763,1.763,0,0,0,6.514,2.239Zm8.027,0A1.741,1.741,0,0,0,13.28,5.218a1.789,1.789,0,0,0,3.045-1.234A1.763,1.763,0,0,0,14.541,2.239Zm-8.027.872A.871.871,0,0,1,7.145,4.6a.894.894,0,0,1-1.522-.617A.882.882,0,0,1,6.514,3.111Zm8.027,0a.871.871,0,0,1,.631,1.49.894.894,0,0,1-1.522-.617A.882.882,0,0,1,14.541,3.111ZM.874,7.91h3.14v3.462H.874Zm4.032,0H8.027v3.462H4.906ZM.874,12.274h3.14v3.49H.874Zm4.032,0H8.027v3.49H4.906ZM.874,16.637h3.14v3.49H1.746a.905.905,0,0,1-.872-.872Zm4.032,0H8.027v3.49H4.906Z" class="aw-theme-iconOutline" fill="#464646" fill-rule="evenodd"/>
    <path id="path8" d="M14.72,15.266a.545.545,0,0,1-.386-.159l-2.183-2.183a.546.546,0,0,1,.771-.772l2.184,2.183a.545.545,0,0,1-.386.931Z" class="aw-theme-iconOutline" fill="#464646"/>
    <path id="path10" d="M13.629,16.358H11.445a.546.546,0,0,1,0-1.092h2.184a.546.546,0,0,1,0,1.092Z" class="aw-theme-iconOutline" fill="#464646"/>
    <path id="path12" d="M15.812,14.175a.547.547,0,0,1-.546-.546V11.445a.546.546,0,0,1,1.092,0v2.184A.546.546,0,0,1,15.812,14.175Z" class="aw-theme-iconOutline" fill="#464646"/>
    <path id="path14" d="M22.362,22.908a.545.545,0,0,1-.386-.159l-2.183-2.184a.545.545,0,0,1,.771-.771l2.184,2.183a.545.545,0,0,1-.386.931Z" class="aw-theme-iconOutline" fill="#464646"/>
    <path id="path16" d="M19.087,24a.546.546,0,0,1-.546-.546h0V21.271a.546.546,0,0,1,1.092,0v2.183A.545.545,0,0,1,19.087,24Z" class="aw-theme-iconOutline" fill="#464646"/>
    <path id="path18" d="M23.454,19.633H21.271a.546.546,0,0,1,0-1.092h2.183a.546.546,0,0,1,0,1.092Z" class="aw-theme-iconOutline" fill="#464646"/>
    <path id="path20" d="M21.693,18a.522.522,0,0,1-.369-.891l.874-.874a2.494,2.494,0,0,0,0-3.527h0a2.555,2.555,0,0,0-3.529,0l-.824.9a.522.522,0,0,1-.77-.7l.841-.915a3.611,3.611,0,0,1,5.022-.016,3.539,3.539,0,0,1,0,5h0l-.874.874A.524.524,0,0,1,21.693,18Z" class="aw-theme-iconOutline" fill="#464646"/>
    <path id="path22" d="M14.463,23.977a3.539,3.539,0,0,1-2.5-6.043l.94-.864a.521.521,0,1,1,.764.71.5.5,0,0,1-.058.054l-.925.849A2.5,2.5,0,0,0,12.7,22.2a2.555,2.555,0,0,0,3.529,0l.887-.886a.522.522,0,1,1,.738.739h0l-.886.887A3.517,3.517,0,0,1,14.463,23.977Z" class="aw-theme-iconOutline" fill="#464646"/>
  </g>
</svg>
