<svg id="Layer_1" data-name="Layer 1" xmlns="http://www.w3.org/2000/svg" viewBox="0 0 24 24">
  <g id="g856">
    <path id="path820" d="M4.737,22.946a2.072,2.072,0,0,1-.543-.64c0-.017-.09-.054-.2-.084a1.02,1.02,0,0,1-.362-.2l-.164-.149-.036-1.139L3.4,19.592l.112-.117a.394.394,0,0,0,.112-.181,5.76,5.76,0,0,0-.792-1.3A4.731,4.731,0,0,1,1.976,16.4a2.245,2.245,0,0,1-.157-1.039,2.455,2.455,0,0,1,.2-1.039,3.488,3.488,0,0,1,2.3-2.1,4.675,4.675,0,0,1,2.42.081A3.2,3.2,0,0,1,8.9,15.42a4.311,4.311,0,0,1-.847,2.354,9.278,9.278,0,0,0-.881,1.373c-.073.192-.073.2.02.3s.1.139.094,1.115a8.884,8.884,0,0,1-.048,1.188.727.727,0,0,1-.488.473c-.137.042-.214.109-.36.317-.3.426-.346.448-.974.461A1.864,1.864,0,0,1,4.737,22.946Zm1.622-2.214v-.553l-1,.012-1,.011-.013.542-.012.541H6.359ZM5.918,17.6V15.982H5.765a.43.43,0,0,1-.275-.106l-.123-.106-.126.106a.442.442,0,0,1-.277.106H4.813v3.226H5.918Zm1.608-.783a2.422,2.422,0,0,0,.412-1.438,1.737,1.737,0,0,0-.574-1.5,2.385,2.385,0,0,0-1.419-.744,2.87,2.87,0,0,0-1.212,0,2.526,2.526,0,0,0-1.6,1.125A2.091,2.091,0,0,0,2.809,15.5a2.2,2.2,0,0,0,.353,1.245,5.773,5.773,0,0,0,.726,1.009,5.92,5.92,0,0,0,.043-1.028c0-.565.018-1.225.037-1.466.033-.4.046-.447.155-.541.162-.139.325-.13.569.032l.2.135.187-.135c.237-.172.341-.17.579.012l.192.146.2-.145c.25-.184.407-.189.577-.019l.129.129v1.455c0,.8.013,1.467.028,1.482a4.374,4.374,0,0,0,.741-.995Z" class="aw-theme-iconOutline" fill="#464646"/>
    <path id="rect827" d="M.574,10.71l1.884,1.319-.574.819L0,11.529Z" class="aw-theme-iconOutline" fill="#464646"/>
    <path id="rect827-0" d="M10.2,10.71,8.316,12.029l.574.819,1.884-1.319Z" class="aw-theme-iconOutline" fill="#464646"/>
    <path id="rect827-0-6" d="M10.2,20.748,8.316,19.429l.574-.819,1.884,1.319Z" class="aw-theme-iconOutline" fill="#464646"/>
    <path id="rect827-0-6-0" d="M.574,20.748l1.884-1.319-.574-.819L0,19.929Z" class="aw-theme-iconOutline" fill="#464646"/>
    <path id="path2" d="M17.5,24A6.5,6.5,0,1,1,24,17.5,6.5,6.5,0,0,1,17.5,24Zm0-12A5.5,5.5,0,1,0,23,17.5,5.5,5.5,0,0,0,17.5,12Z" class="aw-theme-iconOutline" fill="#464646"/>
    <path id="polygon4" d="M17,21h1V18h3V17H18V14H17v3H14v1h3Z" class="aw-theme-iconOutline" fill="#464646"/>
    <path id="path822-3" d="M3.536,10.714a7.941,7.941,0,0,1-.519-2.993c-.057-1.185.019-1.263.353-1.565.8-.718,3.544-1.236,7.093-1.336l1.061-.03,3.977-1.9c2.188-1.045,4-1.917,4.026-1.938a.544.544,0,0,0,.1-.2,1.191,1.191,0,0,1,.9-.735,1.2,1.2,0,0,1,.384.019,1.264,1.264,0,0,1,.851.681c.132.208.417.652.633.986.76,1.176.9,1.592.674,2.067a1.1,1.1,0,0,1-1.105.633l-.318-.013-1.047.749c-1.008.723-1.043.753-.948.814a3.469,3.469,0,0,1,.348.314.674.674,0,0,1,.287.555,8.581,8.581,0,0,1-.33,3.072l-.119.459-.464-.016c-.255-.009-.469-.021-.476-.027a.29.29,0,0,1,.03-.122,10.392,10.392,0,0,0,.35-2.2c-.02,0-.281.069-.58.153a27.05,27.05,0,0,1-3.787.7,62.548,62.548,0,0,1-6.32,0,18.83,18.83,0,0,1-4.212-.789,1.493,1.493,0,0,0-.367-.092,7.042,7.042,0,0,0,.311,1.992c.09.227.2.628.311.869s.2.449.2.462a2.883,2.883,0,0,1-.521.024H3.785ZM15.273,7.8l2.81-2.033c1.546-1.118,2.817-2.039,2.826-2.047a19.174,19.174,0,0,0-1.082-1.781,11.773,11.773,0,0,0-1.652.747L14.308,4.526c-2.6,1.235-2.754,1.316-3,1.553a2.335,2.335,0,0,0-.385.5,1.824,1.824,0,0,0-.251.953,1.029,1.029,0,0,0,.041.4l1.812.046a14.984,14.984,0,0,0,2.26-.1C15.141,7.83,15.178,7.812,15.273,7.8Zm-5.54-.47a2.157,2.157,0,0,1,.4-1.308.906.906,0,0,0,.12-.268c-.025-.025-1.5.068-2.177.136-.882.09-2.125.271-2.564.374a6.608,6.608,0,0,0-1.279.453l-.22.111.242.123a6.074,6.074,0,0,0,1.61.485,25.538,25.538,0,0,0,3.654.459l.226.013ZM18.109,7.3c.5-.116,1.188-.4,1.142-.473a1.6,1.6,0,0,0-.56-.253,9.423,9.423,0,0,0-1.267.863c0,.012.045.011.1,0Zm4.065-3.907A5.172,5.172,0,0,0,21.427,2c-.248-.39-.489-.775-.535-.854C20.829,1.039,20.777,1,20.685,1s-.123.023-.123.067A6.715,6.715,0,0,0,21.4,2.561c.448.7.577.872.655.872A.17.17,0,0,0,22.174,3.391Z" class="aw-theme-iconOutline" fill="#464646"/>
  </g>
</svg>
