<svg version="1.1" id="Layer_1" xmlns="http://www.w3.org/2000/svg" xmlns:xlink="http://www.w3.org/1999/xlink" x="0px" y="0px"
	 viewBox="0 0 24 24" enable-background="new 0 0 24 24" xml:space="preserve">
	<polygon class="aw-theme-iconOutline" fill="#464646" points="15.9,7.9 15.1,7.1 11.5,10.8 7.9,7.1 7.1,7.9 10.8,11.5 7.1,15.1 7.9,15.9 11.5,12.2 15.1,15.9 
		15.9,15.1 12.2,11.5 	"/>
	<path class="aw-theme-iconOutline" fill="#464646" d="M11.5,23C5.2,23,0,17.8,0,11.5S5.2,0,11.5,0C17.8,0,23,5.2,23,11.5S17.8,23,11.5,23z M11.5,1
		C5.7,1,1,5.7,1,11.5S5.7,22,11.5,22C17.3,22,22,17.3,22,11.5S17.3,1,11.5,1z"/>
</svg>
