<svg id="Layer_1" data-name="Layer 1" xmlns="http://www.w3.org/2000/svg" viewBox="0 0 24 24">
  <path d="M18.854,15.146,14.207,10.5l1.647-1.646a.5.5,0,0,0,0-.708l-8-8A.5.5,0,0,0,7,.5v16a.5.5,0,0,0,.309.462A.493.493,0,0,0,7.5,17a.5.5,0,0,0,.354-.146L10,14.707V23.5a.5.5,0,0,0,.309.462A.493.493,0,0,0,10.5,24a.5.5,0,0,0,.354-.146l8-8A.5.5,0,0,0,18.854,15.146ZM10.309,7.038A.5.5,0,0,0,10,7.5v5.793l-2,2V1.707L14.793,8.5,13.5,9.793,10.854,7.146A.5.5,0,0,0,10.309,7.038ZM11,22.293V8.707L17.793,15.5Z" class="aw-theme-iconOutline" fill="#464646"/>
</svg>
