<svg version="1.1" id="Layer_1" xmlns="http://www.w3.org/2000/svg" xmlns:xlink="http://www.w3.org/1999/xlink" x="0px" y="0px"
	 viewBox="0 0 24 24" enable-background="new 0 0 24 24" xml:space="preserve">
	<path class="aw-theme-iconOutline" fill="#464646" d="M11.5,1c3.2,0,6.3,1.5,8.3,4H16v1h5V1h-1v2.7C17.8,1.3,14.7,0,11.5,0C5.2,0,0,5.1,0,11.5h1
		C1,5.7,5.7,1,11.5,1z"/>
	<path class="aw-theme-iconOutline" fill="#464646" d="M22,11.5C22,17.2,17.3,22,11.5,22c-3.2,0-6.2-1.5-8.2-4H7v-1H2v5h1v-2.8c2.2,2.4,5.3,3.8,8.5,3.8
		C17.8,23,23,17.8,23,11.5H22z"/>
<polygon class="aw-theme-iconOutline" fill="#464646" points="7,7 7,10 8,10 8,8 11,8 11,16 10,16 10,17 13,17 13,16 12,16 12,8 15,8 15,10 16,10 16,7 "/>
</svg>
