<svg id="Layer_1" data-name="Layer 1" xmlns="http://www.w3.org/2000/svg" viewBox="0 0 16 16">
  <path d="M12.5,16.012a.513.513,0,0,1-.3-.1L8,12.886,3.8,15.915a.512.512,0,0,1-.8-.536l1.292-5.327L.173,6.623a.512.512,0,0,1,.305-.905L5.7,5.493,7.518.33a.532.532,0,0,1,.964,0L10.3,5.493l5.218.225a.512.512,0,0,1,.3.905l-4.121,3.429L13,15.379a.512.512,0,0,1-.5.633ZM8,11.744a.512.512,0,0,1,.3.1l3.377,2.435L10.635,9.983a.51.51,0,0,1,.171-.514l3.348-2.785L9.914,6.5a.51.51,0,0,1-.46-.341L8,2.039,6.546,6.16a.51.51,0,0,1-.46.341l-4.24.183L5.194,9.469a.51.51,0,0,1,.171.514L4.324,14.275,7.7,11.84A.512.512,0,0,1,8,11.744Z" class="aw-theme-iconOutline" fill="#464646"/>
</svg>
