<svg version="1.1" id="Layer_1" xmlns="http://www.w3.org/2000/svg" xmlns:xlink="http://www.w3.org/1999/xlink" x="0px" y="0px"
	 viewBox="0 0 24 24" enable-background="new 0 0 24 24" xml:space="preserve">
<path class="aw-theme-iconOutline" fill="#464646" d="M23.9,4.1l-4-4c-0.2-0.2-0.5-0.2-0.7,0l-15,13C4.1,13.2,4,13.3,4,13.4l-1.5,5.4l-2.4,2.4
	C0,21.3,0,21.4,0,21.6c0,0.2,0.2,0.3,0.3,0.4l3,1c0.1,0,0.1,0,0.2,0c0.1,0,0.3-0.1,0.4-0.1l1.4-1.4l5.4-1.5c0.1,0,0.2-0.1,0.2-0.2
	l13-15C24,4.6,24,4.3,23.9,4.1z M4.8,14.5l4.8,4.8l-4.4,1.2l-1.6-1.6L4.8,14.5z M3.4,21.9l-1.9-0.6L3,19.7L4.3,21L3.4,21.9z
	 M10.5,18.8l-5.2-5.2L19.5,1.2l3.3,3.3L10.5,18.8z"/>
</svg>
