<svg id="Layer_1" data-name="Layer 1" xmlns="http://www.w3.org/2000/svg" viewBox="0 0 24 24">
    <path d="M5,21h5V11H5V1H16V7h6v5h1V6.293L16.707,0H4V11H0V21H4v2H14V22H5ZM17,1.707,21.293,6H17ZM1,12H9v8H1Z" class="aw-theme-iconOutline" fill="#464646"/>
    <path d="M7.816,13.021h-1.2q-1.3,2.028-1.339,2.1c-.025.048-.071.15-.137.306H5.117a1.948,1.948,0,0,0-.22-.446L3.746,13.021H2.428L4.4,16,2.243,18.993h1.3l1.39-2.174a.688.688,0,0,0,.072-.148c.015-.046.035-.1.058-.152h.019c.018.053.033.1.046.15a.732.732,0,0,0,.066.15l1.363,2.174H7.843L5.8,15.981Z" class="aw-theme-iconOutline" fill="#464646"/>
    <path d="M23.854,21.146l-2-2a.5.5,0,0,0-.708.708L22.293,21H17.5a2.5,2.5,0,0,1,0-5H19V15H17.5a3.5,3.5,0,0,0,0,7h4.793l-1.147,1.146a.5.5,0,0,0,.708.708l2-2A.5.5,0,0,0,23.854,21.146Z" class="aw-theme-iconOutline" fill="#464646"/>
    <path d="M18.5,18H17v1h1.5a3.5,3.5,0,0,0,0-7H13.707l1.147-1.146a.5.5,0,0,0-.708-.708l-2,2a.5.5,0,0,0,0,.708l2,2a.5.5,0,0,0,.708-.708L13.707,13H18.5a2.5,2.5,0,0,1,0,5Z" class="aw-theme-iconOutline" fill="#464646"/>
</svg>
