<svg id="svg5" xmlns="http://www.w3.org/2000/svg" viewBox="0 0 24 24">
  <g id="g816">
    <path id="path868" d="M16.918,14.916v3h1v1.031H13.9v1.985h-1v3h3v-3h-1v-.985h3.015v.969h-1v3h3v-3h-1v-.969h2.993v.985h-1v3h3v-3h-1V18.947H18.918V17.916h1v-3Zm.985,1.008h1v1h-1Zm-4,6h1v1h-1Zm4,0h1v1h-1Zm4,0h1v1h-1Z" class="aw-theme-iconOutline" fill="#464646"/>
    <path id="path2" d="M12.092.092a2.186,2.186,0,0,0-2.076,1.7H8.428a2.189,2.189,0,0,0-4.323.486A2.161,2.161,0,0,0,4.488,3.5a2.3,2.3,0,0,0,.325.385l-.34.59-.489.838A2.139,2.139,0,0,0,3.34,5.2,2.2,2.2,0,0,0,1.152,7.4,2.137,2.137,0,0,0,1.6,8.68H0V18.9l3.885,2.477L4.869,22H11.5v-.975H4.869V12.264H17.525l0,1.271H18.5V11.289L15.3,9.572a2.343,2.343,0,0,0,.277-.029A2.2,2.2,0,0,0,17.189,8.2a2.164,2.164,0,0,0,.159-.806A2.195,2.195,0,0,0,15.158,5.2a2.116,2.116,0,0,0-.646.11L13.67,3.852A2.188,2.188,0,0,0,12.092.092Zm-5.8.974A1.217,1.217,0,0,1,6.3,3.5c-.041-.006-.081-.015-.121-.025a1.193,1.193,0,0,1-.844-.487,1.186,1.186,0,0,1-.252-.7A1.22,1.22,0,0,1,6.3,1.066Zm5.781,0a1.216,1.216,0,0,1,1.287,1.215,1.175,1.175,0,0,1-.218.658,1.193,1.193,0,0,1-.823.524,1.142,1.142,0,0,1-.176.035,1.216,1.216,0,0,1-1.111-.73,1.18,1.18,0,0,1,0-.973A1.217,1.217,0,0,1,12.076,1.068ZM8.428,2.77h1.588a2.155,2.155,0,0,0,2.818,1.584l.658,1.136.176.309a2.174,2.174,0,0,0-.7,1.6,2.148,2.148,0,0,0,.117.668,2.3,2.3,0,0,0,.328.617,2.074,2.074,0,0,0,.256.312l-.834,1.446c-.056-.019-.118-.02-.176-.034a2.14,2.14,0,0,0-.428-.08c-.028,0-.055-.01-.084-.01a2.161,2.161,0,0,0-1.125.319,2.22,2.22,0,0,0-.681.656H8.107a2.123,2.123,0,0,0-2.449-.867l-.06-.106-.385-.664-.18-.31-.2-.35a2.2,2.2,0,0,0,.275-.312A2.16,2.16,0,0,0,4.832,5.8L5.6,4.475l.06-.108A2.122,2.122,0,0,0,8.107,3.5,2.18,2.18,0,0,0,8.428,2.77ZM3.3,6.178a.369.369,0,0,1,.047,0,1.164,1.164,0,0,1,.131.025,1.2,1.2,0,0,1,0,2.383,1.164,1.164,0,0,1-.131.025A1.217,1.217,0,0,1,3.3,6.178Zm11.863,0A1.218,1.218,0,0,1,16.375,7.4a1.207,1.207,0,0,1-.035.169,1.252,1.252,0,0,1-1.182,1.047,1.164,1.164,0,0,1-.131-.025A1.254,1.254,0,0,1,13.939,7.4a1.074,1.074,0,0,1,.069-.364,1.414,1.414,0,0,1,.179-.334,1.2,1.2,0,0,1,.5-.377,1.8,1.8,0,0,1,.476-.142ZM1.816,9.652H4.09l.383.664.34.588a2.027,2.027,0,0,0-.215.239Zm12.342.44.447.224,1.948.973h-2.6a2.023,2.023,0,0,0-.281-.351ZM.975,10.307,3.9,11.873v8.352L.975,18.363Z" class="aw-theme-iconOutline" fill="#464646"/>
  </g>
</svg>
