<svg id="svg5" xmlns="http://www.w3.org/2000/svg" viewBox="0 0 24 24">
  <g id="g822">
    <path id="path841" d="M6.384.1A2.2,2.2,0,0,0,4.3,2.3a2.161,2.161,0,0,0,.384,1.224,2.308,2.308,0,0,0,.327.391l-.342.586-.489.842a2.189,2.189,0,0,0-1.63,4.046,2.061,2.061,0,0,0,1.634.135l.141.245.348.6.217.378.134.231a2.208,2.208,0,0,0-.638,1.1,1.4,1.4,0,0,0-.017.145L2.222,10.76l2.665-.012-.221-.378-.344-.6L0,9.784v9.578L3.868,22.1l.008-.01v.01h7.38l-.77-.977H4.851V13.3h6.112a6.943,6.943,0,0,1,.566-.978H8.7A2.2,2.2,0,0,0,6.525,10.37H6.432a2.773,2.773,0,0,0-.571.111L5.8,10.37l-.565-.977-.2-.352a2.179,2.179,0,0,0,0-3.207L5.8,4.505h.7A2.221,2.221,0,0,0,8.639,2.8h1.592a2.163,2.163,0,0,0,2.829,1.59l.661,1.144.178.3a2.118,2.118,0,0,0-.585,2.274,2.217,2.217,0,0,0,.587.933,2.153,2.153,0,0,0,.847.489,2.026,2.026,0,0,0,1.064.067,2.2,2.2,0,0,0,1.624-1.348,2.17,2.17,0,0,0,.159-.811,2.169,2.169,0,0,0-2.849-2.093L13.9,3.879a2.2,2.2,0,1,0-3.67-2.064H8.639A2.2,2.2,0,0,0,6.384.1Zm.145.975A1.223,1.223,0,0,1,7.618,2.793h0A1.221,1.221,0,0,1,6.5,3.528c-.043,0-.079-.021-.122-.025a1.192,1.192,0,0,1-.848-.489,1.2,1.2,0,0,1-.248-.71A1.221,1.221,0,0,1,6.529,1.078Zm5.894.008a1.22,1.22,0,0,1,1.17,1.22,1.192,1.192,0,0,1-.221.661,1.192,1.192,0,0,1-.825.525,1.307,1.307,0,0,1-.176.036A1.222,1.222,0,0,1,11.254,2.8a1.191,1.191,0,0,1,0-.978A1.222,1.222,0,0,1,12.423,1.086ZM3.532,6.214a1.03,1.03,0,0,1,.132.027,1.173,1.173,0,0,1,.842,1.9,1.191,1.191,0,0,1-.842.495,1.226,1.226,0,0,1-.132.025A1.222,1.222,0,0,1,3.532,6.214Zm11.863,0a1.222,1.222,0,0,1,1.222,1.222,1.009,1.009,0,0,1-.036.17,1.214,1.214,0,0,1-2.407-.17,1.046,1.046,0,0,1,.066-.363,1.415,1.415,0,0,1,.182-.338,1.193,1.193,0,0,1,.5-.378,1.139,1.139,0,0,1,.346-.116.982.982,0,0,1,.131-.027ZM.977,11.088l2.9,1.986,0,7.825-2.9-2.045Zm5.545.26a1.205,1.205,0,0,1,1.172.977H5.327a1.193,1.193,0,0,1,.078-.246A1.218,1.218,0,0,1,6.522,11.348Z" class="aw-theme-iconOutline" fill="#464646"/>
    <path id="path827" d="M17,16h1v5H17Z" class="aw-theme-iconOutline" fill="#464646"/>
    <path id="path825" d="M17,14h1v1H17Z" class="aw-theme-iconOutline" fill="#464646"/>
    <path id="path823" d="M17.148,11.006A6.493,6.493,0,1,0,17.42,11C17.329,11,17.239,11,17.148,11.006ZM17.42,12a5.5,5.5,0,1,1-5.5,5.5A5.506,5.506,0,0,1,17.42,12Z" class="aw-theme-iconOutline" fill="#464646"/>
    <path id="path867" d="M16.246,9.771c-.134-.234-.166-.278-.2-.272l-.18.048a2.613,2.613,0,0,1-.881.028A2.538,2.538,0,0,1,14.43,9.4l-.082-.042.491-.338c.271-.187.5-.35.512-.363s.023-.02.028-.015a1.887,1.887,0,0,0,.487-.117,1.285,1.285,0,0,0,.431-.311,1.347,1.347,0,0,0,.211-.341c0-.018.007-.032.016-.032s.244-.158.523-.351.513-.347.518-.342a3.126,3.126,0,0,1-.012.639,2.188,2.188,0,0,1-.528,1.077L16.909,9l.649,1.05-1.152.005Z" class="aw-theme-iconOutline" fill="#464646"/>
  </g>
</svg>
