<svg id="Layer_1" data-name="Layer 1" xmlns="http://www.w3.org/2000/svg" viewBox="0 0 24 24">
  <rect x="11" y="7" width="13" height="1" class="aw-theme-iconOutline" fill="#464646"/>
    <path d="M3.5,20a.5.5,0,0,1-.416-.223l-2-3a.5.5,0,0,1,.832-.554L3.5,18.6l3.584-5.376a.5.5,0,0,1,.832.554l-4,6A.5.5,0,0,1,3.5,20Z" class="aw-theme-iconOutline" fill="#464646"/>
    <path d="M3.5,11a.5.5,0,0,1-.416-.223l-2-3a.5.5,0,0,1,.832-.554L3.5,9.6,7.084,4.223a.5.5,0,1,1,.832.554l-4,6A.5.5,0,0,1,3.5,11Z" class="aw-theme-iconOutline" fill="#464646"/>
  <rect x="11" y="17" width="13" height="1" class="aw-theme-iconOutline" fill="#464646"/>
</svg>
