<svg id="Layer_1" data-name="Layer 1" xmlns="http://www.w3.org/2000/svg" viewBox="0 0 24 24">
  <rect x="3" y="23" width="15" height="1" class="aw-theme-iconOutline" fill="#464646"/>
  <path d="M23.854,4.146l-4-4a.5.5,0,0,0-.661-.041l-13.5,10.5c-.008.007-.012.017-.019.024s-.02.009-.028.017l-.914.915A2.484,2.484,0,0,0,4,13.329v3.757a.5.5,0,0,1-.146.353.486.486,0,0,0-.083.125.509.509,0,0,0-.125.082l-2.5,2.5a.5.5,0,0,0-.133.469.5.5,0,0,0,.329.359l3,1A.48.48,0,0,0,4.5,22a.5.5,0,0,0,.354-.146l1.5-1.5a.509.509,0,0,0,.082-.125.486.486,0,0,0,.125-.083A.5.5,0,0,1,6.914,20h3.752a2.483,2.483,0,0,0,1.762-.727l.925-.919c.008-.008.011-.019.018-.027s.017-.012.024-.02l10.5-13.5A.5.5,0,0,0,23.854,4.146ZM17.771,2.478l3.751,3.751L12.953,17.246l-6.2-6.2ZM4.365,20.928l-1.939-.647L4,18.707,5.293,20Zm7.358-2.364A1.492,1.492,0,0,1,10.666,19H6.914a1.485,1.485,0,0,0-.9.307L4.693,17.986a1.485,1.485,0,0,0,.307-.9V13.329a1.491,1.491,0,0,1,.439-1.061L6,11.707,12.292,18ZM22.141,5.434,18.566,1.859l.892-.693,3.376,3.376Z" class="aw-theme-iconOutline" fill="#464646"/>
</svg>
