<svg id="Layer_1" data-name="Layer 1" xmlns="http://www.w3.org/2000/svg" viewBox="0 0 24 24">
  <g id="g847">
    <path id="path911" d="M3.143,20.27A19.834,19.834,0,0,1,.061,18.414C0,18.294,0,18,0,13.427L.016,8.564l.14-.129L.3,8.306H5.387V3.634l.083-.081C5.634,3.4,11.457.014,11.553.014c.061,0,1.192.651,2.99,1.719,1.59.944,2.908,1.735,2.929,1.756s.044,1.137.057,3.113l.019,3.076,1.735,1.028c.953.564,1.793,1.079,1.866,1.142l.132.115.012.8.011.8h-.872v-.905H7.043V21.1H11.72V22H6.158ZM6.17,16.717l-.01-4.076L3.538,11.178.919,9.718l-.01,4.035c-.005,2.272,0,4.053.023,4.071.059.06,5.151,2.965,5.2,2.967S6.178,19.967,6.17,16.717Zm1.817-5.006c-.03-.02-.607-.364-1.282-.766a8.958,8.958,0,0,1-1.272-.821,1.759,1.759,0,0,1-.047-.516v-.42H3.74c-.905,0-1.634.013-1.618.029s1.032.591,2.259,1.279l2.232,1.241H7.33A2.1,2.1,0,0,0,7.987,11.711Zm3.159-2.173-.009-2.21L8.768,5.912C7.463,5.136,6.381,4.5,6.363,4.5S6.331,5.64,6.332,7.076V9.65L8.115,10.7,9.9,11.748h1.264l-.009-2.21ZM14.9,10.714A14.943,14.943,0,0,0,16.669,9.6c.024-.051.024-1.223.024-2.607l-.009-2.518L14.376,5.837,12.069,7.2v4.541h1.089Zm4.169,1.012c-.052-.052-2.04-1.222-2.077-1.222s-1.84,1.049-2.042,1.193a8.426,8.426,0,0,0,2.032.051c1.163-.006,2.1-.015,2.089-.028Zm-5.193-6.59c1.266-.751,2.289-1.377,2.273-1.393-.055-.053-4.511-2.684-4.571-2.7S6.953,3.714,6.953,3.76c0,.023,4.543,2.727,4.59,2.738C11.553,6.5,12.6,5.886,13.873,5.136Z" class="aw-theme-iconOutline" fill="#464646"/>
    <path id="rect1043" d="M8.06,14.283h.208a.334.334,0,0,1,.335.333v4.161a.334.334,0,0,1-.333.335H8.06a.335.335,0,0,1-.335-.333V14.618a.335.335,0,0,1,.333-.335Z" class="aw-theme-iconOutline" fill="#464646"/>
    <path id="rect1045" d="M8.242,14.291h6.169v.878H8.242a.372.372,0,0,1-.372-.37v-.136a.372.372,0,0,1,.37-.372Z" class="aw-theme-iconOutline" fill="#464646"/>
    <path id="rect1045-2" d="M12.219,19.272H8.1a.373.373,0,0,1-.372-.37v-.137a.372.372,0,0,1,.37-.372h4.124Z" class="aw-theme-iconOutline" fill="#464646"/>
    <path id="rect1065" d="M9.884,15.779H12.8a.331.331,0,0,1,.332.33v.215a.331.331,0,0,1-.33.332H9.884a.33.33,0,0,1-.332-.33v-.214a.331.331,0,0,1,.329-.333Z" class="aw-theme-iconOutline" fill="#464646"/>
    <path id="rect1067" d="M9.956,17.074h2.106a.355.355,0,0,1,.355.355h0V17.6a.355.355,0,0,1-.354.356H9.956a.356.356,0,0,1-.359-.353v-.17a.356.356,0,0,1,.351-.361Z" class="aw-theme-iconOutline" fill="#464646"/>
    <path id="path868" d="M17.01,14.987v3h1v1.031H14V21H13v3h3V21H15v-.984H18.01v.968h-1v3h3v-3h-1v-.968H22V21H21v3h3V21H23V19.017H19.009V17.986h1v-3ZM17.994,16h1v1h-1Zm-4,6h1v1H14Zm4,0h1v1h-1Zm4,0h1v1h-1Z" class="aw-theme-iconOutline" fill="#464646"/>
  </g>
</svg>
