<svg version="1.1" id="Layer_1" xmlns="http://www.w3.org/2000/svg" xmlns:xlink="http://www.w3.org/1999/xlink" x="0px" y="0px"
	 viewBox="0 0 24 24" enable-background="new 0 0 24 24" xml:space="preserve">
<path class="aw-theme-iconOutline" fill="#464646" d="M17.564,18.336l3.629,1.122l-0.654,0.378l-0.91-0.3l-0.802,0.463l0.498,0.537l-0.682,0.394l-1.909-2.115
	L17.564,18.336z M19.066,19.315l-0.754-0.245c-0.206-0.069-0.46-0.165-0.666-0.238l-0.006,0.004c0.122,0.122,0.277,0.27,0.396,0.394
	l0.411,0.443L19.066,19.315z"/>
<path class="aw-theme-iconOutline" fill="#464646" d="M23.757,19.071l-5-3c-0.158-0.096-0.356-0.096-0.515,0l-1.571,0.942l-0.724-0.482l2.799-1.597
	C18.904,14.846,19,14.68,19,14.5v-8c0-0.18-0.096-0.345-0.252-0.435l-7-4c-0.153-0.088-0.343-0.088-0.496,0l-7,4
	C4.096,6.155,4,6.32,4,6.5v7.713l-4,2.331L0.5,17.4L1,17.118V20h1v-1.7L4.95,20H3v1h3.096l-1.265,0.722l0.495,0.869l9.651-5.505
	l0.746,0.498l-2.48,1.488C13.092,19.161,13,19.324,13,19.5s0.092,0.339,0.243,0.429l5,3C18.322,22.977,18.411,23,18.5,23
	s0.178-0.023,0.257-0.071l5-3C23.908,19.839,24,19.676,24,19.5S23.908,19.161,23.757,19.071z M7,20.484V18H6v1.45L3.484,18H5v-1
	H1.203l3.299-1.923l5.99,3.415L7,20.484z M11,17.631L5,14.21V7.362l6,3.428V17.631z M5.508,6.5L11.5,3.076L17.492,6.5L11.5,9.924
	L5.508,6.5z M12,17.631v-6.84l6-3.428v6.847l-1.889,1.078L12,17.631z M18.5,21.917L14.472,19.5l4.028-2.417l4.028,2.417L18.5,21.917
	z"/>
</svg>
