<svg id="Verb_Zone" data-name="Verb Zone" xmlns="http://www.w3.org/2000/svg" viewBox="0 0 24 24">
  <path id="path2" d="M11.417,22H0V0H22V11.417a7.489,7.489,0,0,0-1-.9V1H1V21h9.517A7.489,7.489,0,0,0,11.417,22ZM19.375,6H11.7a.461.461,0,0,0-.408.5A.461.461,0,0,0,11.7,7h7.675a.461.461,0,0,0,.408-.5A.461.461,0,0,0,19.375,6ZM2.605,8.6a.5.5,0,0,1-.249-.433V4.65c0-.008.006-.015.006-.024a.491.491,0,0,1,.06-.222h0a.494.494,0,0,1,.167-.167c.006,0,.009-.012.016-.016h0L5.651,2.454a.5.5,0,0,1,.5,0L9.207,4.219c.007,0,.01.012.017.016A.507.507,0,0,1,9.39,4.4h0a.491.491,0,0,1,.06.222c0,.008.006.015.006.024V8.163a.5.5,0,0,1-.25.433L6.157,10.36a.037.037,0,0,0-.024.006.453.453,0,0,1-.453,0,.033.033,0,0,1-.023-.006h0ZM8.458,5.518,6.407,6.7V9.06L8.458,7.874Zm-4.6-.868.46.266h.013l1.58.914,1.58-.914h.015l.456-.264L5.9,3.464Zm-.5,3.224L5.407,9.06V6.7L3.487,5.593l-.131-.076ZM9.1,15.385a7.2,7.2,0,0,0-.094,1.126,7.439,7.439,0,0,0,.123,1.315l-2.975,1.72h0l-.025.006a.452.452,0,0,1-.452,0,.036.036,0,0,1-.024-.006L2.605,17.782a.5.5,0,0,1-.249-.432V13.838c0-.009.006-.016.006-.024a.491.491,0,0,1,.059-.219v-.007h0a.489.489,0,0,1,.162-.161c.007,0,.01-.013.017-.018h0l3.043-1.762a.5.5,0,0,1,.5,0l1.5.866Zm-3.7.507-.629-.365-1.422-.822v2.357L5.4,18.247Zm2.08-1.784h.01l.461-.267L5.9,12.651,3.854,13.838l.462.267h.01l1.581.913Zm.971.6-1.436.83-.615.356V18.25l2.051-1.185ZM21,18H18v3H17V18H14V17h3V14h1v3h3Zm-3.5-6a8.055,8.055,0,0,0-3.036.886L14.246,13H10.618l1.276,2.553.106.211V17.5A5.5,5.5,0,1,0,17.5,12m0-1A6.5,6.5,0,1,1,11,17.5V16L9,12h5A9.164,9.164,0,0,1,17.5,11Z" class="aw-theme-iconOutline" fill="#464646"/>
</svg>
