<svg id="Layer_1" data-name="Layer 1" xmlns="http://www.w3.org/2000/svg" viewBox="0 0 24 24">
  <path d="M17.781,16.3a.5.5,0,0,1-.292-.095L15,14.409l-2.489,1.8a.5.5,0,0,1-.769-.559l.94-2.923L10.2,10.9a.5.5,0,0,1,.3-.9h3.068l.957-2.915a.52.52,0,0,1,.95,0L16.432,10H19.5a.5.5,0,0,1,.3.9l-2.479,1.822.94,2.923a.5.5,0,0,1-.476.653ZM15,13.292a.5.5,0,0,1,.292.095L16.839,14.5l-.584-1.815a.5.5,0,0,1,.18-.556L17.976,11H16.07a.5.5,0,0,1-.475-.344L15,8.844l-.595,1.812A.5.5,0,0,1,13.93,11H12.024l1.541,1.132a.5.5,0,0,1,.18.556L13.161,14.5l1.546-1.116A.5.5,0,0,1,15,13.292Z" class="aw-theme-iconOutline" fill="#464646"/>
  <path d="M19,4V2H16V0H2V20.083l3-2.3v4.3l3-2.3v4.3L15,18.7l7,5.385V4ZM3,18.057V1H15V2H5V16.524Zm3,2V3H18V4H8V18.524Zm15,2-6-4.615L9,22.055V5H21Z" class="aw-theme-iconOutline" fill="#464646"/>
</svg>
