<svg id="Artwork" xmlns="http://www.w3.org/2000/svg" viewBox="0 0 24 24">
  <g id="g828">
    <path id="path820" d="M16.769,24.033A7.545,7.545,0,0,1,12.2,21.761a5.675,5.675,0,0,1-1.316-1.975,5.457,5.457,0,0,1,1.27-1.918,7.458,7.458,0,0,1,4.2-2.256,7.663,7.663,0,0,1,2.263.008,7.491,7.491,0,0,1,5.111,3.51c.369.618.373.648.155,1.065a7.444,7.444,0,0,1-5.764,3.837A4.933,4.933,0,0,1,16.769,24.033Zm1.741-.994a6.353,6.353,0,0,0,3.5-1.871,6.829,6.829,0,0,0,1.007-1.324,4.233,4.233,0,0,0-1.093-1.5A6.189,6.189,0,0,0,19.4,16.772a6.342,6.342,0,0,0-7.267,2.587,1.749,1.749,0,0,0-.233.424,2.678,2.678,0,0,0,.306.535,6.562,6.562,0,0,0,4.668,2.8A5.957,5.957,0,0,0,18.51,23.039Z" class="aw-theme-iconOutline" fill="#464646"/>
    <path id="path822" d="M17.025,22.51a2.747,2.747,0,0,1-1.072-5.01,2.741,2.741,0,0,1,3.448.359,2.617,2.617,0,0,1,.788,1.959,2.658,2.658,0,0,1-1.531,2.434A2.544,2.544,0,0,1,17.025,22.51Zm1.118-1.025a2.037,2.037,0,0,0,.964-.9,1.379,1.379,0,0,0,.142-.8,1.468,1.468,0,0,0-.461-1.243,1.83,1.83,0,0,0-2.64-.026,1.826,1.826,0,0,0,2,2.963Z" class="aw-theme-iconOutline" fill="#464646"/>
    <path id="rect828-1-9" d="M0,0V6H14V0ZM1,1H13V5H1Z" class="aw-theme-iconOutline" fill="#464646"/>
    <path id="rect1051" d="M1,6.915h.986V20H1Z" class="aw-theme-iconOutline" fill="#464646"/>
    <path id="path4-4-4-6-7-6-7" d="M3.258,22.019l1.977-2L1.986,20l-.019-1.043H5.192L3.258,17.036l.627-.677L6.623,19a.914.914,0,0,1,.311.519A.78.78,0,0,1,6.676,20L3.885,22.718Z" class="aw-theme-iconOutline" fill="#464646"/>
    <path id="rect828-1-6" d="M8,16v6h3.51a8.739,8.739,0,0,1-.766-1H9V17h2.939a8.5,8.5,0,0,1,1.26-1Z" class="aw-theme-iconOutline" fill="#464646"/>
    <path id="rect828-1-2" d="M8,8v6H18.5V8ZM9,9h8.5v4H9Z" class="aw-theme-iconOutline" fill="#464646"/>
    <path id="path4-4-4-6-7-6-7-84" d="M3.234,13.5l1.977-2-3.249-.02-.019-1.043H5.168L3.234,8.516l.627-.678L6.6,10.481c.1.1.312.319.312.519a.785.785,0,0,1-.258.481L3.861,14.2Z" class="aw-theme-iconOutline" fill="#464646"/>
  </g>
</svg>
