<svg version="1.1" id="Layer_1" xmlns="http://www.w3.org/2000/svg" xmlns:xlink="http://www.w3.org/1999/xlink" x="0px" y="0px"
	 viewBox="0 0 24 24" enable-background="new 0 0 24 24" xml:space="preserve">
<path class="aw-theme-iconOutline" fill="#464646" d="M13.6,0.5L9.7,4.4l3.9,3.9l0.7-0.7l-2.6-2.6h0.3c3.9,0,7,3.1,7,7c0,2.4-1.2,4.6-3.1,5.9l0.5,0.8
	c2.2-1.5,3.6-4,3.6-6.7c0-4.4-3.6-8-8-8h-0.3l2.7-2.6L13.6,0.5z"/>
<path class="aw-theme-iconOutline" fill="#464646" d="M7.7,5.3c-2.2,1.5-3.6,4-3.6,6.7c0,4.4,3.6,8,8,8h0.3l-2.7,2.7l0.7,0.7l3.9-3.9l-3.8-3.8l-0.7,0.7l2.6,2.6h-0.3
	c-3.9,0-7-3.1-7-7c0-2.4,1.2-4.6,3.2-5.9L7.7,5.3z"/>
</svg>
