<svg id="Artwork" xmlns="http://www.w3.org/2000/svg" viewBox="0 0 24 24">
  <g id="g858">
    <path id="path827" d="M13.078,22.574a8.327,8.327,0,0,1-1.306-1.266,4.925,4.925,0,0,1-.9-1.528,2.761,2.761,0,0,1,.463-.9,7.445,7.445,0,0,1,3.224-2.736,7.01,7.01,0,0,1,4.276-.487,8.889,8.889,0,0,1,.868.232.734.734,0,0,1-.166.208l-.361.38L19,16.658l-.232-.052a5.532,5.532,0,0,0-1.135-.146,6.3,6.3,0,0,0-3.506.971,6.767,6.767,0,0,0-2.174,2.231l-.07.121.106.184A6.658,6.658,0,0,0,13.7,21.853c.139.1.255.194.258.2s-.14.167-.318.356l-.323.345Z" class="aw-theme-iconOutline" fill="#464646"/>
    <path id="path829" d="M14.868,20.742a2.763,2.763,0,0,1,1.879-3.618,3.37,3.37,0,0,1,1.093-.067,1.927,1.927,0,0,1,.582.163,4.317,4.317,0,0,1-.346.392l-.347.365H17.49a1.793,1.793,0,0,0-.846.2,1.333,1.333,0,0,0-.46.335,1.474,1.474,0,0,0-.336.453,1.663,1.663,0,0,0-.192.928l.011.3-.354.379c-.194.208-.357.379-.361.379A1.717,1.717,0,0,1,14.868,20.742Z" class="aw-theme-iconOutline" fill="#464646"/>
    <path id="path831" d="M17.049,22.529c-.063-.012-.179-.038-.258-.056l-.143-.034.38-.407.379-.406.177-.017a1.7,1.7,0,0,0,.673-.187,1.749,1.749,0,0,0,.827-.813,1.632,1.632,0,0,0,.19-.749l.009-.24.375-.4c.3-.326.379-.4.4-.363a2.445,2.445,0,0,1,.089.288,1.964,1.964,0,0,1,.066.641,2.26,2.26,0,0,1-.17.993,2.76,2.76,0,0,1-1.35,1.487,2.409,2.409,0,0,1-1.158.28,3.584,3.584,0,0,1-.483-.013Z" class="aw-theme-iconOutline" fill="#464646"/>
    <path id="path833" d="M16.752,24.041a6.113,6.113,0,0,1-1.3-.29c0-.008.163-.184.362-.391l.361-.376.258.051a6.246,6.246,0,0,0,5-1.338,7.788,7.788,0,0,0,1.094-1.131,3.026,3.026,0,0,0,.485-.792,5.009,5.009,0,0,0-.483-.746A7.413,7.413,0,0,0,21.5,17.952l-.3-.245-.065-.054.314-.334a3.733,3.733,0,0,1,.335-.333,6.224,6.224,0,0,1,.849.724,7.691,7.691,0,0,1,1.259,1.666.842.842,0,0,1,.147.386c.01.136,0,.16-.134.419a7.15,7.15,0,0,1-1.284,1.712,6.906,6.906,0,0,1-1.148.946,7.568,7.568,0,0,1-3.01,1.166,8.174,8.174,0,0,1-1.708.036Z" class="aw-theme-iconOutline" fill="#464646"/>
    <path id="path823" d="M13.072,22.57a7.533,7.533,0,0,1-2.032-2.354c-.158-.282-.192-.414-.146-.555a7.2,7.2,0,0,1,.855-1.362,9.443,9.443,0,0,1,1.065-1.079,7.466,7.466,0,0,1,4.145-1.694,7.173,7.173,0,0,1,2.548.3l.213.065-.122.131-.36.388L19,16.664l-.132-.035a6.236,6.236,0,0,0-1.625-.177,6.509,6.509,0,0,0-4.616,2.266,8.45,8.45,0,0,0-.7.994l-.045.079.146.239a6.955,6.955,0,0,0,1.632,1.794l.309.23-.315.341c-.173.187-.324.342-.335.345A1.438,1.438,0,0,1,13.072,22.57Z" class="aw-theme-iconOutline" fill="#464646"/>
    <path id="path825" d="M17.04,24.067c-.15-.011-.419-.044-.6-.073a7.057,7.057,0,0,1-.977-.226,6.679,6.679,0,0,1,.711-.774,6.341,6.341,0,0,0,1.618.133,6.525,6.525,0,0,0,4.8-2.642,2.128,2.128,0,0,0,.419-.721,6.625,6.625,0,0,0-.6-.9,8.068,8.068,0,0,0-1.268-1.2,4.9,4.9,0,0,1,.484-.549l.144-.157.174.134a8.563,8.563,0,0,1,1.309,1.314,8.409,8.409,0,0,1,.658,1.012c.125.234.132.258.122.4a.876.876,0,0,1-.158.411,7.409,7.409,0,0,1-1.328,1.727,7.053,7.053,0,0,1-1.807,1.3,7.35,7.35,0,0,1-2.905.807A3.594,3.594,0,0,1,17.04,24.067Z" class="aw-theme-iconOutline" fill="#464646"/>
    <path id="rect828-1-9" d="M0,0V6H14V0ZM1,1H13V5H1Z" class="aw-theme-iconOutline" fill="#464646"/>
    <path id="rect1051" d="M1,6.915h.986V20H1Z" class="aw-theme-iconOutline" fill="#464646"/>
    <path id="path4-4-4-6-7-6-7" d="M3.258,22.019l1.977-2L1.986,20l-.019-1.043H5.192L3.258,17.036l.627-.677L6.623,19a.914.914,0,0,1,.311.519A.78.78,0,0,1,6.676,20L3.885,22.718Z" class="aw-theme-iconOutline" fill="#464646"/>
    <path id="rect828-1-6" d="M8,16v6h3.51a8.739,8.739,0,0,1-.766-1H9V17h2.939a8.5,8.5,0,0,1,1.26-1Z" class="aw-theme-iconOutline" fill="#464646"/>
    <path id="rect828-1-2" d="M8,8v6H18.5V8ZM9,9h8.5v4H9Z" class="aw-theme-iconOutline" fill="#464646"/>
    <path id="path4-4-4-6-7-6-7-84" d="M3.234,13.5l1.977-2-3.249-.02-.019-1.043H5.168L3.234,8.516l.627-.678L6.6,10.481c.1.1.312.319.312.519a.785.785,0,0,1-.258.481L3.861,14.2Z" class="aw-theme-iconOutline" fill="#464646"/>
    <path id="rect833" d="M23.057,13.231l-10.1,10.82h1.3l9.5-10.174Z" class="aw-theme-iconOutline" fill="#464646"/>
  </g>
</svg>
