<svg id="Layer_1" data-name="Layer 1" xmlns="http://www.w3.org/2000/svg" viewBox="0 0 24 24">
  <g id="g824">
    <path id="rect816-9" d="M0,.043V21H11.873a7.446,7.446,0,0,1-.435-1H11V16h.152a7.666,7.666,0,0,1,.287-1H11V11h3V10H11V6h4V9h1V6h4V9h1V.043H0Zm1,1H5V5H1Zm5,0h4V5H6Zm5,0h4V5H11Zm5,0h4V5H16ZM1,6H5v4H1ZM6,6h4v4H6ZM1,11H5v4H1Zm5,0h4v4H6ZM1,16H5v4H1Zm5,0h4v4H6Z" class="aw-theme-iconOutline" fill="#464646"/>
    <path id="path2" d="M23.936,16.335l-.984.175a4.485,4.485,0,0,1-7.224,4.29h2.293v-1H14.042l-.021,4h1l.012-2.285a5.481,5.481,0,0,0,8.9-5.182Z" class="aw-theme-iconOutline" fill="#464646"/>
    <path id="path4" d="M22.021,10.8l-.013,2.335A5.48,5.48,0,0,0,13.1,18.264l.986-.165a4.485,4.485,0,0,1,7.169-4.3H19.021v1H23l.021-4Z" class="aw-theme-iconOutline" fill="#464646"/>
  </g>
</svg>
