<svg version="1.1" id="Verb_x5F_Zone" xmlns="http://www.w3.org/2000/svg" xmlns:xlink="http://www.w3.org/1999/xlink" x="0px"
	 y="0px" viewBox="0 0 24 24" enable-background="new 0 0 24 24" xml:space="preserve">
<path class="aw-theme-iconOutline" fill="#464646" d="M23.52,24H0V0.48C0,0.215,0.215,0,0.48,0s0.48,0.215,0.48,0.48v22.56h22.56c0.266,0,0.48,0.215,0.48,0.479
	C24,23.785,23.785,24,23.52,24z"/>
<path class="aw-theme-iconOutline" fill="#464646" d="M7.045,22.016h-5v-9h5V22.016z M3.045,21.016h3v-7h-3V21.016z"/>
<path class="aw-theme-iconOutline" fill="#464646" d="M13.031,22.016H8.032v-13h4.999V22.016z M9.032,21.016h2.999v-11H9.032V21.016z"/>
<path class="aw-theme-iconOutline" fill="#464646" d="M18.998,22.016h-5v-17h5V22.016z M14.998,21.016h3v-15h-3V21.016z"/>
<rect x="10.752" y="-5.134" transform="matrix(0.448 0.894 -0.894 0.448 10.6588 -7.3135)" class="aw-theme-iconOutline" fill="#464646" width="1.001" height="20.218"/>
</svg>
