<svg version="1.1" id="Layer_1" xmlns="http://www.w3.org/2000/svg" xmlns:xlink="http://www.w3.org/1999/xlink" x="0px" y="0px"
	 viewBox="0 0 24 24" enable-background="new 0 0 24 24" xml:space="preserve">
<path class="aw-theme-iconOutline" fill="#464646" d="M21.6,11c0,0-0.1,0-0.1,0H20c-0.9,0-5.7-1.9-6.4-7c-0.1-1-0.5-1.7-1.2-1.9c-0.6-0.2-1.4,0-2,0.7
	C9.4,3.9,8.8,6.4,10.2,10H3c-1.1,0-2,0.9-2,2c0,0.6,0.3,1.1,0.7,1.5C1.3,13.9,1,14.4,1,15c0,0.9,0.6,1.6,1.3,1.9
	C2.1,17.2,2,17.6,2,18c0,1.1,0.9,2,2,2h0.2C4.1,20.2,4,20.5,4,20.7c0,0.9,0.7,1.6,1.7,1.7c0,0,1.9,0.1,4.1,0.1
	c2.9,0,6.6-0.2,8.2-1.2c0.5-0.3,1.2-0.5,1.9-0.5h1.6c0,0,0.1,0,0.1,0c0.4-0.1,1.4-0.8,1.4-5S22,11.1,21.6,11z M21.4,20h-1.5
	c-0.9,0-1.7,0.2-2.4,0.6c-2.3,1.3-10.4,1-11.7,0.9c-0.4,0-0.8-0.3-0.8-0.8C5,20.3,5.3,20,5.7,20h0.8C6.8,20,7,19.8,7,19.5
	S6.8,19,6.5,19H4c-0.6,0-1-0.4-1-1s0.4-1,1-1h1.5C5.8,17,6,16.8,6,16.5S5.8,16,5.5,16H3c-0.6,0-1-0.4-1-1c0-0.6,0.4-1,1-1h0h1.5H5
	c0.3,0,0.5-0.2,0.5-0.5S5.3,13,5,13H4.5H3c-0.6,0-1-0.4-1-1s0.4-1,1-1h8c0.2,0,0.3-0.1,0.4-0.2s0.1-0.3,0-0.5
	c-1.6-3.5-1.1-5.9-0.2-6.9c0.3-0.3,0.6-0.5,0.9-0.4c0.3,0.1,0.5,0.5,0.5,1.1C13.3,9.6,18.5,12,20,12h1.3c0.2,0.2,0.7,1,0.7,4
	C22,19.1,21.4,19.9,21.4,20z"/>
</svg>
