<svg id="Layer_1" data-name="Layer 1" xmlns="http://www.w3.org/2000/svg" viewBox="0 0 24 24">
  <polygon points="13.038 8.383 11.1 5.8 11.9 5.2 12.962 6.617 15.076 3.235 15.924 3.765 13.038 8.383" class="aw-theme-iconOutline" fill="#464646"/>
  <polygon points="4.038 15.383 2.1 12.8 2.9 12.2 3.962 13.617 6.076 10.235 6.924 10.765 4.038 15.383" class="aw-theme-iconOutline" fill="#464646"/>
  <path d="M22.1,12.9A6.439,6.439,0,0,0,19,11.184V0H0V17H11.027A6.5,6.5,0,1,0,22.1,12.9ZM10,3h8V9H10ZM9,9H1V3H9Zm9-8V2H1V1ZM1,10H9v6H1Zm9,6V10h8v1.026A6.468,6.468,0,0,0,11.185,16Zm11.389,5.389a5.5,5.5,0,1,1,0-7.779A5.506,5.506,0,0,1,21.389,21.389Z" class="aw-theme-iconOutline" fill="#464646"/>
  <path d="M16.5,21a.5.5,0,0,1-.354-.146l-2.5-2.5.708-.708,2.084,2.085,3.583-4.961.811.584-3.927,5.438A.5.5,0,0,1,16.54,21Z" class="aw-theme-iconOutline" fill="#464646"/>
</svg>
