<?xml version="1.0" encoding="UTF-8" standalone="no"?>
<svg
   xmlns:dc="http://purl.org/dc/elements/1.1/"
   xmlns:cc="http://creativecommons.org/ns#"
   xmlns:rdf="http://www.w3.org/1999/02/22-rdf-syntax-ns#"
   xmlns:svg="http://www.w3.org/2000/svg"
   xmlns="http://www.w3.org/2000/svg"
   xmlns:sodipodi="http://sodipodi.sourceforge.net/DTD/sodipodi-0.dtd"
   xmlns:inkscape="http://www.inkscape.org/namespaces/inkscape"
   id="Layer_1"
   data-name="Layer 1"
   viewBox="0 0 24 24"
   version="1.1"
   sodipodi:docname="cmdWorkOrdersLink24.svg"
   inkscape:version="0.92.4 (5da689c313, 2019-01-14)">
  <metadata
     id="metadata22">
    <rdf:RDF>
      <cc:Work
         rdf:about="">
        <dc:format>image/svg+xml</dc:format>
        <dc:type
           rdf:resource="http://purl.org/dc/dcmitype/StillImage" />
        <dc:title></dc:title>
      </cc:Work>
    </rdf:RDF>
  </metadata>
  <defs
     id="defs20" />
  <sodipodi:namedview
     pagecolor="#ffffff"
     bordercolor="#666666"
     borderopacity="1"
     objecttolerance="10"
     gridtolerance="10"
     guidetolerance="10"
     inkscape:pageopacity="0"
     inkscape:pageshadow="2"
     inkscape:window-width="1680"
     inkscape:window-height="971"
     id="namedview18"
     showgrid="false"
     inkscape:zoom="9.8333333"
     inkscape:cx="-1.9322034"
     inkscape:cy="12"
     inkscape:window-x="-9"
     inkscape:window-y="-9"
     inkscape:window-maximized="1"
     inkscape:current-layer="Layer_1" />
  <g
     id="g924">
    <path
       id="path878"
       d="M2.93,2.924A.441.441,0,0,1,2.6,2.535a.464.464,0,0,1,.182-.417l.1-.073,4.382-.007a34.3,34.3,0,0,1,4.481.044.425.425,0,0,1,.234.424.442.442,0,0,1-.329.415C11.535,2.951,3.057,2.954,2.93,2.924Z"
       class="aw-theme-iconOutline"
       fill="#464646" />
    <path
       id="path880"
       d="M9.427,4.826a.475.475,0,0,1-.222-.213.561.561,0,0,1,0-.411.457.457,0,0,1,.279-.225c.045-.008.713-.011,1.484-.007,1.372.007,1.405.008,1.473.06a.46.46,0,0,1,0,.759c-.068.051-.1.053-1.511.058C10.009,4.85,9.467,4.842,9.427,4.826Z"
       class="aw-theme-iconOutline"
       fill="#464646" />
    <path
       id="path864"
       d="M8.543,23.971a.368.368,0,0,1-.17-.067c-.054-.055-.053-.008-.05-1.549,0-1.409-.031-1.286.354-1.3.3-.013.421.005.488.073.047.047.05.092.05,1v.953h11.39L20.6,19.238l-.006-3.846H18.151c-1.342,0-2.575,0-2.739-.007l-.3,0v-.886l3.754.014c3.226.013,3.751.01,3.732-.02s-.1-.139-.2-.265a8.622,8.622,0,0,1-1.56-2.508,5.242,5.242,0,0,1-.272-1.706l-.017-.35H17.435L17.382,9.6a.543.543,0,0,1-.112-.421.509.509,0,0,1,.067-.324l.066-.113h1.939c1.888,0,1.941,0,1.993.05.089.083.1.191.12.889a6.433,6.433,0,0,0,.118,1.387,5.788,5.788,0,0,0,.317.93,14.9,14.9,0,0,0,1.357,1.89c.79.984.777.965.758,1.159a.372.372,0,0,1-.207.315,4.853,4.853,0,0,1-1.183.041H21.52v4.12a30.685,30.685,0,0,1-.051,4.218.433.433,0,0,1-.292.227c-.122.034-12.433.035-12.634,0Zm15.239-8.636c0-.035-.047-.094-.062-.079s.011.1.04.1A.02.02,0,0,0,23.782,15.335Z"
       class="aw-theme-iconOutline"
       fill="#464646" />
    <path
       id="path866"
       d="M17.531,11.6c-.069-.088-.086-.192-.075-.453a.475.475,0,0,1,.062-.287l.054-.071h2.607l.048.063a.871.871,0,0,1,0,.737l-.048.064-1.3.007-1.3.006Z"
       class="aw-theme-iconOutline"
       fill="#464646" />
    <path
       id="path868"
       d="M17.534,13.546a.458.458,0,0,1-.085-.741.584.584,0,0,1,.175-.094c.138-.038,2.87-.036,3.023,0a.451.451,0,0,1,.1.828l-.1.057h-1.5c-1.477,0-1.5,0-1.609-.054Z"
       class="aw-theme-iconOutline"
       fill="#464646" />
    <path
       id="path870"
       d="M13.141,17.34a.528.528,0,0,1,.014-.8A28.232,28.232,0,0,1,16.5,16.5h3.272l.1.1a.5.5,0,0,1,.126.208.516.516,0,0,1-.163.537,21.782,21.782,0,0,1-3.345.048A21.75,21.75,0,0,1,13.141,17.34Z"
       class="aw-theme-iconOutline"
       fill="#464646" />
    <path
       id="path872"
       d="M11.349,19.343a.452.452,0,0,1-.189-.551.525.525,0,0,1,.273-.273c.031-.007,1.9-.01,4.163-.007l4.106.007.083.06a.475.475,0,0,1,.184.366.527.527,0,0,1-.2.394l-.086.058H15.56C11.454,19.4,11.439,19.4,11.349,19.343Z"
       class="aw-theme-iconOutline"
       fill="#464646" />
    <path
       id="path874"
       d="M10.248,21.419a.413.413,0,0,1-.292-.458.4.4,0,0,1,.226-.37c.1-.05.154-.051,4.824-.044l4.725.006.1.074a.456.456,0,0,1-.054.768,42.471,42.471,0,0,1-4.763.054c-3.906,0-4.681,0-4.763-.03Z"
       class="aw-theme-iconOutline"
       fill="#464646" />
    <path
       id="path876"
       d="M.1,15.207c-.139-.107-.134.187-.127-7.672L-.018.312.05.209A.5.5,0,0,1,.23.052L.341,0H12.749l.112.059a.618.618,0,0,1,.181.159c.067.1.07.111.07.456a11.83,11.83,0,0,0,.093,1.487A5.478,5.478,0,0,0,13.533,3.2a13.959,13.959,0,0,0,1.488,2.086c.543.671.66.844.66.976,0,.167-.106.333-.216.339a.306.306,0,0,0-.087.035c-.052.028-.779.031-4.246.018C7.182,6.634,6.3,6.619,5.84,6.56a5.043,5.043,0,0,1-1.689-.548,5.38,5.38,0,0,1-1.1-.69A6.014,6.014,0,0,1,1.317,3.113L.944,2.477l-.059-.1V14.337h.684c.375,0,.717.007.759.016.122.024.146.1.146.461,0,.315,0,.316-.071.377l-.071.062H1.245C.253,15.251.155,15.248.1,15.207ZM14.266,5.776a1.967,1.967,0,0,0-.229-.324,8.363,8.363,0,0,1-1.518-2.447,4.993,4.993,0,0,1-.285-1.7L12.217.914H6.665c-3.053,0-5.552.005-5.552.011,0,.051.677,1.268,1.125,2.022a7.715,7.715,0,0,0,.786,1.176l.11.118L3.7,4.155c.309-.047.715-.115.9-.151C5.125,3.9,5.9,3.8,6.5,3.739c.885-.084.806-.084.952,0a3.872,3.872,0,0,1,.688.562c.463.427.93.83,1.372,1.181l.355.283,1.984.007c1.091,0,2.078.009,2.192.013A.726.726,0,0,0,14.266,5.776ZM8.485,5.709c-.035-.032-.246-.218-.469-.412s-.518-.46-.653-.59l-.246-.238L5.71,4.674c-.773.113-1.479.219-1.569.235l-.163.028.1.062a6.823,6.823,0,0,0,1.268.564,7.811,7.811,0,0,0,1.208.175c.161.01.675.021,1.142.024l.851.006Z"
       class="aw-theme-iconOutline"
       fill="#464646" />
    <path
       id="path882"
       d="M1.812,8.644a.46.46,0,0,1-.2-.236A.533.533,0,0,1,1.759,7.8a18.806,18.806,0,0,1,3.122-.048H7.925l.09.079a.519.519,0,0,1-.078.8c-.071.029-.581.035-3.079.033C3.211,8.665,1.84,8.655,1.812,8.644Z"
       class="aw-theme-iconOutline"
       fill="#464646" />
    <path
       id="path884"
       d="M1.709,10.629a.451.451,0,0,1-.174-.423.44.44,0,0,1,.153-.392c.068-.053.072-.053,2.507-.053,1.8,0,2.453.008,2.494.029a.581.581,0,0,1,.044.823,10.883,10.883,0,0,1-2.5.057A12.9,12.9,0,0,1,1.709,10.629Z"
       class="aw-theme-iconOutline"
       fill="#464646" />
    <path
       id="path886"
       d="M1.731,12.672c-.077-.054-.118-.2-.118-.419s.041-.366.118-.42a17.587,17.587,0,0,1,2.451,0c.077.054.114.186.115.417s-.037.367-.115.422A17.587,17.587,0,0,1,1.731,12.672Z"
       class="aw-theme-iconOutline"
       fill="#464646" />
    <path
       id="path821"
       d="M6.222,20.935a3.616,3.616,0,0,1-2.557-6.17c.431-.43.8-.8,1.122-1.136,1.631-1.664,2.122-2.165,3.381-2.347a3.608,3.608,0,0,1,4.1,3.037h0v.034l-.99.137a2.605,2.605,0,0,0-2.936-2.225H8.308c-.9.13-1.222.438-2.8,2.05-.333.34-.7.718-1.136,1.15a2.619,2.619,0,0,0,0,3.7,2.678,2.678,0,0,0,3.7,0l2.219-2.207.709.7-2.219,2.21A3.587,3.587,0,0,1,6.222,20.935Z"
       class="aw-theme-iconOutline"
       fill="#464646" />
    <path
       id="path2"
       d="M13.078,15.571,15.547,13.1a3.615,3.615,0,0,0,0-5.111,3.7,3.7,0,0,0-5.113,0L8.215,10.2l.709.705L11.14,8.694a2.678,2.678,0,0,1,3.7,0,2.618,2.618,0,0,1,0,3.7l-2.469,2.468a2.534,2.534,0,0,1-1.823.77,2.636,2.636,0,0,1-2.615-2.254l-.991.134a3.641,3.641,0,0,0,3.606,3.12,3.513,3.513,0,0,0,2.533-1.058Z"
       class="aw-theme-iconOutline"
       fill="#464646" />
  </g>
</svg>
