<svg id="Layer_1" data-name="Layer 1" xmlns="http://www.w3.org/2000/svg" viewBox="0 0 24 24">
  <g id="g836">
    <path id="path833" d="M7.4,23.973a.309.309,0,0,1-.293-.247c-.052-.107-.052.389-.052-7.468,0-7.837,0-7.862.052-7.963a.515.515,0,0,1,.148-.164l.1-.064h6.769c5.751,0,6.779.007,6.837.037a.673.673,0,0,1,.23.235,2.988,2.988,0,0,1,.028.585,8.055,8.055,0,0,0,.105,1.5,6.007,6.007,0,0,0,.407,1.205,18.96,18.96,0,0,0,1.535,2.108c.6.741.724.922.724,1.037a.424.424,0,0,1-.135.348.381.381,0,0,1-.128.057c-.417.017-1.2.007-1.2.007l-1.231.007-.007,4.493c-.007,4.478-.007,3.993-.059,4.094a.359.359,0,0,1-.165.159l-.112.057-6.751,0c-3.713,0-6.684,0-6.8-.015Zm12.952-4.592V15.186H18.236c-2.476,0-4.211-.033-4.7-.088a5.211,5.211,0,0,1-1.972-.6,6.516,6.516,0,0,1-1.267-.8,5.6,5.6,0,0,1-1.474-1.776c-.383-.66-.757-1.3-.8-1.373s-.046.138-.046,6.477v6.053H20.353Zm2.228-5.094s-.168-.221-.376-.486a12.15,12.15,0,0,1-1.347-1.984,6.984,6.984,0,0,1-.427-1.271,7.9,7.9,0,0,1-.1-1.21,2.381,2.381,0,0,0-.016-.3l-.016-.08H14.252c-3.324,0-6.05.007-6.059.016a.331.331,0,0,0,.057.146l.4.728c.313.577.9,1.592,1.113,1.933a5.918,5.918,0,0,0,.557.756l.108.106.661-.1c.364-.055.878-.139,1.144-.187a24.634,24.634,0,0,1,2.492-.309L15,12.029l.191.127a7.473,7.473,0,0,1,.895.764c.367.34.931.818,1.341,1.137l.291.227,2.3.013C21.968,14.308,22.561,14.305,22.581,14.287Zm-6.194,0c0-.005-.152-.139-.337-.3-.463-.4-.833-.73-1.077-.969l-.207-.2-.556.08c-1.548.225-2.8.412-2.867.429l-.073.019.1.065a5.954,5.954,0,0,0,1.779.734,9.26,9.26,0,0,0,1.79.126l1.252.021a1.059,1.059,0,0,0,.2,0Z" class="aw-theme-iconOutline" fill="#464646"/>
    <path id="path835" d="M8.822,17.312a.473.473,0,0,1-.253-.493A.5.5,0,0,1,8.9,16.46l10.652-.015.105.07a.458.458,0,0,1-.015.776l-.1.056L8.822,17.312Z" class="aw-theme-iconOutline" fill="#464646"/>
    <path id="path837" d="M8.84,19.507a.461.461,0,0,1-.185-.745.531.531,0,0,1,.136-.095l10.744-.036.1.078a.449.449,0,0,1,.139.565.408.408,0,0,1-.238.221L8.84,19.507Z" class="aw-theme-iconOutline" fill="#464646"/>
    <path id="path839" d="M8.9,21.709a.457.457,0,0,1-.072-.822l.1-.057H19.545l.1.057a.45.45,0,0,1,.224.391.438.438,0,0,1-.2.379l-.108.076Z" class="aw-theme-iconOutline" fill="#464646"/>
    <path id="path841" d="M17.125,12.725a.416.416,0,0,1-.278-.233c-.089-.184-.02-.556.179-.62,1.388.005,1.8.021,3.469,0,.184.209.211.732-.04.856Z" class="aw-theme-iconOutline" fill="#464646"/>
    <path id="path843" d="M10,10.632a.441.441,0,0,1-.293-.526.425.425,0,0,1,.226-.3l9.808-.024a.46.46,0,0,1-.04.859L10,10.632Z" class="aw-theme-iconOutline" fill="#464646"/>
    <path id="path845" d="M1.735,13.644a.508.508,0,0,1-.126-.419.555.555,0,0,1,.135-.421l4.2-.024a1.2,1.2,0,0,1,.091.475c-.007.118-.04.222-.068.389Z" class="aw-theme-iconOutline" fill="#464646"/>
    <path id="path847" d="M1.736,11.451a.569.569,0,0,1-.126-.416c0-.22.038-.348.125-.416l4.247.011a1.086,1.086,0,0,1-.02.818Z" class="aw-theme-iconOutline" fill="#464646"/>
    <path id="path849" d="M1.735,9.271c-.087-.069-.125-.2-.125-.422a.59.59,0,0,1,.06-.308l.06-.121h4.2l.059.114a.567.567,0,0,1,.05.358c-.01.267-.048.362-.163.406Z" class="aw-theme-iconOutline" fill="#464646"/>
    <path id="path851" d="M.023,16.218c0-3.1-.009-.322-.009-8.011V.364C.008.129.107.034.336.017H7.092c5.849,0,6.765,0,6.826.037a.281.281,0,0,1,.242.3c.007.046.018.37.026.719a5.45,5.45,0,0,0,.259,1.894A4.67,4.67,0,0,0,15.3,4.492c.27.373.841,1.107,1.2,1.538s.446.577.446.724a.388.388,0,0,1-.2.342c-.089.052-.092.052-4.195.044-4.271-.008-5.595-.028-6.121-.093a5.489,5.489,0,0,1-2.078-.678,5.989,5.989,0,0,1-1.122-.745A6.373,6.373,0,0,1,1.478,3.36c-.173-.293-.366-.625-.431-.737L.93,2.42V15.525h5.05l.065.07a.53.53,0,0,1,.122.383.6.6,0,0,1-.117.4l-.058.063H3.1S1.1,16.447.2,16.425C.053,16.422.023,16.271.023,16.218ZM15.544,6.247c-.005-.013-.164-.222-.353-.464A12.667,12.667,0,0,1,13.847,3.82a5.453,5.453,0,0,1-.473-1.451,11.48,11.48,0,0,1-.089-1.24v-.2H7.219c-5.767,0-6.066,0-6.05.045.03.078.6,1.123.842,1.544A11.988,11.988,0,0,0,3.243,4.448l.14.149.61-.091c.335-.05.764-.12.953-.155.8-.15,1.809-.285,2.586-.345l.412-.032.218.145a6.01,6.01,0,0,1,.567.469c.585.544,1.192,1.061,1.782,1.519l.162.126,1.668.013,2.44.019A4.982,4.982,0,0,0,15.544,6.247ZM9.318,6.213c-.2-.16-1.042-.906-1.285-1.142l-.307-.3-1.384.2c-.761.111-1.548.228-1.748.26l-.366.057.07.056a7.744,7.744,0,0,0,1.021.515,4.781,4.781,0,0,0,1.521.333,12.116,12.116,0,0,0,1.513.047C9.146,6.243,9.349,6.238,9.318,6.213Z" class="aw-theme-iconOutline" fill="#464646"/>
    <path id="path853" d="M10.048,5.167A.386.386,0,0,1,9.8,4.936a.425.425,0,0,1-.009-.362.411.411,0,0,1,.221-.238l3.371-.021a.468.468,0,0,1,.288.428.437.437,0,0,1-.267.424Z" class="aw-theme-iconOutline" fill="#464646"/>
    <path id="path855" d="M2.938,3.078a.439.439,0,0,1-.286-.419.464.464,0,0,1,.2-.38l.092-.063,9.708.012a.464.464,0,0,1,.328.431.507.507,0,0,1-.211.379l-.1.068Z" class="aw-theme-iconOutline" fill="#464646"/>
  </g>
</svg>
