<svg id="Layer_1" data-name="Layer 1" xmlns="http://www.w3.org/2000/svg" viewBox="0 0 24 24">
  <g id="g864">
    <path id="rect13-9-3" d="M0,0V16H6.033V15H.943V1H22.057v9.833H23V0ZM2.29,1.914l-.584.78,5.006,4.17h1.52Zm18.374.006L15.02,6.864H16.5l4.768-4.176ZM6.039,9.847,1.723,13.409l.549.809L6.039,11.07Z" class="aw-theme-iconOutline" fill="#464646"/>
    <path id="path833" d="M7.345,23.981a.309.309,0,0,1-.293-.246C7,23.628,7,24.123,7,16.266,7,8.429,7,8.4,7.051,8.3A.521.521,0,0,1,7.2,8.139l.1-.064h6.768c5.751,0,6.779.006,6.837.036a.676.676,0,0,1,.23.236,2.85,2.85,0,0,1,.029.585,8.081,8.081,0,0,0,.1,1.5,6,6,0,0,0,.408,1.2,19.146,19.146,0,0,0,1.534,2.108c.6.74.725.922.725,1.036a.422.422,0,0,1-.135.348.381.381,0,0,1-.128.057c-.417.017-1.2.007-1.2.007l-1.231.007-.007,4.493c-.006,4.479-.007,3.994-.059,4.095a.356.356,0,0,1-.164.159L20.9,24l-6.751,0c-3.713,0-6.685,0-6.8-.015ZM20.3,19.39V15.2H18.18c-2.477,0-4.212-.032-4.7-.087a5.213,5.213,0,0,1-1.972-.6,6.483,6.483,0,0,1-1.267-.8,5.583,5.583,0,0,1-1.474-1.776c-.384-.66-.757-1.3-.8-1.373s-.046.138-.046,6.477v6.053H20.3Zm2.227-5.1s-.167-.22-.375-.486A12.109,12.109,0,0,1,20.8,11.826a7.084,7.084,0,0,1-.426-1.271,8.033,8.033,0,0,1-.1-1.211,2.211,2.211,0,0,0-.016-.3l-.016-.079H14.2c-3.324,0-6.05.007-6.059.016s.017.074.056.146.219.4.4.728c.314.577.9,1.592,1.114,1.932a5.755,5.755,0,0,0,.557.757l.108.106.661-.1c.363-.055.878-.14,1.144-.187a24.67,24.67,0,0,1,2.491-.31l.28-.015.191.127a7.352,7.352,0,0,1,.895.764c.367.339.931.817,1.341,1.136l.291.227,2.3.013C21.912,14.316,22.505,14.314,22.524,14.3Zm-6.193,0s-.152-.14-.337-.3c-.464-.4-.833-.73-1.078-.97l-.206-.2-.556.081c-1.549.224-2.8.412-2.867.428l-.073.019.1.065a5.953,5.953,0,0,0,1.779.735,9.267,9.267,0,0,0,1.79.126c.581.009,1.144.018,1.252.021a1.067,1.067,0,0,0,.2,0Z" class="aw-theme-iconOutline" fill="#464646"/>
    <path id="path835" d="M8.766,17.32a.472.472,0,0,1-.253-.493.5.5,0,0,1,.334-.359L19.5,16.453l.106.07a.458.458,0,0,1-.015.776l-.1.057L8.766,17.32Z" class="aw-theme-iconOutline" fill="#464646"/>
    <path id="path837" d="M8.783,19.515a.461.461,0,0,1-.185-.744.565.565,0,0,1,.137-.1l10.743-.035.1.078a.449.449,0,0,1,.139.565.409.409,0,0,1-.238.22l-10.694.012Z" class="aw-theme-iconOutline" fill="#464646"/>
    <path id="path839" d="M8.847,21.717a.457.457,0,0,1-.073-.821l.1-.057H19.489l.1.057a.452.452,0,0,1,.224.391.435.435,0,0,1-.2.378l-.108.077Z" class="aw-theme-iconOutline" fill="#464646"/>
    <path id="path841" d="M17.069,12.733a.415.415,0,0,1-.279-.233c-.089-.183-.019-.556.18-.619,1.388,0,1.8.021,3.469,0,.184.21.211.732-.04.857l-3.33,0Z" class="aw-theme-iconOutline" fill="#464646"/>
    <path id="path843" d="M9.94,10.641a.442.442,0,0,1-.292-.526.42.42,0,0,1,.226-.3l9.707-.023a.459.459,0,0,1-.04.858l-9.6-.007Z" class="aw-theme-iconOutline" fill="#464646"/>
  </g>
</svg>
