<svg id="Image" xmlns="http://www.w3.org/2000/svg" viewBox="0 0 24 24">
  <g id="g955">
    <path id="path897" d="M13.953,23.979a1.541,1.541,0,0,1-1.179-.825,1.36,1.36,0,0,1-.155-.619,1.71,1.71,0,0,1,.3-1.06,2.07,2.07,0,0,1,.481-.467l.1-.054.544-.006c.3,0,.544-.012.544-.019s-.158-1.747-.351-3.867-.35-3.924-.35-4.009A1.518,1.518,0,0,1,14.9,11.667a2.14,2.14,0,0,1,.273-.072c.094-.016,1.046-.02,3.767-.017,3.967,0,3.759,0,4.026.1a1.488,1.488,0,0,1,.809.751,1.46,1.46,0,0,1,.146.868,1.51,1.51,0,0,1-.824,1.15c-.116.059-.166.095-.166.117s.182,1.808.4,3.978c.38,3.7.4,3.956.386,4.1a1.527,1.527,0,0,1-1.15,1.3c-.15.035-.227.036-4.324.041-2.293,0-4.227,0-4.3-.008Zm.324-.923a.6.6,0,0,0,.449-.487,4.389,4.389,0,0,0-.073-.667l-.009-.041-.426,0-.426,0-.084.111a.781.781,0,0,0-.143.708.61.61,0,0,0,.414.37.483.483,0,0,0,.3,0Zm8.206-.027a.55.55,0,0,0,.265-.229c.109-.186.132.118-.312-4.212-.222-2.159-.406-3.936-.411-3.949s-.671-.022-3.24-.022c-2.171,0-3.254-.006-3.3-.019a.46.46,0,0,1-.319-.438.449.449,0,0,1,.452-.453c.221-.02.22-.019.292-.237.035-.106.075-.244.09-.307a.276.276,0,0,0-.015-.225,2.356,2.356,0,0,0-.194-.393l-.035-.049h-.241a.867.867,0,0,0-.339.036.579.579,0,0,0-.374.548c0,.1.794,8.867.842,9.315a1.726,1.726,0,0,1-.114.665c-.008.021.5.024,3.422.02l3.431,0Zm.1-9.366a.656.656,0,0,0,.329-.3.726.726,0,0,0,0-.527.71.71,0,0,0-.286-.289l-.078-.041-1.061-.012c-1.268-.013-4.5-.019-4.5-.007s.024.079.053.166a1.164,1.164,0,0,1-.025.89l-.059.139.128.006c.07,0,1.315.008,2.765.01a18.3,18.3,0,0,0,2.736-.034Z" class="aw-theme-iconOutline" fill="#464646"/>
    <path id="path899" d="M15.67,16.217v-.45h3.272v.9H15.67Z" class="aw-theme-iconOutline" fill="#464646"/>
    <path id="path901" d="M15.885,17.8v-.45h5.394v.9H15.885Z" class="aw-theme-iconOutline" fill="#464646"/>
    <path id="path903" d="M16.1,19.48v-.459h5.393v.917H16.1Z" class="aw-theme-iconOutline" fill="#464646"/>
    <path id="path905" d="M16.317,21.053V20.6H21.71v.9H16.317Z" class="aw-theme-iconOutline" fill="#464646"/>
    <path id="rect869-44" d="M2.437,11.348h9.481a.5.5,0,0,1,0,1H2.437a.5.5,0,1,1,0-1Z" class="aw-theme-iconOutline" fill="#464646"/>
    <path id="rect869-4-3" d="M2.372,14.291h9.866a.5.5,0,0,1,0,1H2.372a.5.5,0,0,1,0-1Z" class="aw-theme-iconOutline" fill="#464646"/>
    <path id="rect869-2-4" d="M2.437,17.277h9.835a.5.5,0,0,1,0,1H2.437a.5.5,0,0,1,0-1Z" class="aw-theme-iconOutline" fill="#464646"/>
    <path id="rect859-6-6" d="M.263,21H9.716c.145,0,.262.223.262.5s-.117.5-.262.5H.263C.118,22,0,21.777,0,21.5S.118,21,.263,21Z" class="aw-theme-iconOutline" fill="#464646"/>
    <path id="rect861-9-7" d="M.5,0A.5.5,0,0,1,1,.5v21a.5.5,0,0,1-1,0V.5A.5.5,0,0,1,.5,0Z" class="aw-theme-iconOutline" fill="#464646"/>
    <path id="rect863-8-2" d="M.417,0H18.524a.462.462,0,0,1,.414.5.462.462,0,0,1-.414.5H.417A.462.462,0,0,1,0,.5.462.462,0,0,1,.417,0Z" class="aw-theme-iconOutline" fill="#464646"/>
    <path id="rect865-0" d="M18.186,8.867h.885a.056.056,0,0,1,.057.055v1.332a.058.058,0,0,1-.056.058h-.886a.058.058,0,0,1-.058-.058h0V8.924a.058.058,0,0,1,.057-.057Z" class="aw-theme-iconOutline" fill="#464646"/>
    <path id="rect869-5-6-4" d="M4.036,2.965H17.049a.5.5,0,0,1,0,1H4.036a.5.5,0,0,1,0-1Z" class="aw-theme-iconOutline" fill="#464646"/>
    <path id="rect869-0-5-2" d="M13.628,5.785h4.416a.5.5,0,0,1,0,1H13.628a.5.5,0,0,1,0-1Z" class="aw-theme-iconOutline" fill="#464646"/>
    <path id="path922-5-0" d="M13.736,8.608l-.519.015-.552-.442c-.154-.135-.479-.421-.67-.583-.43-.366-.814-.674-1.241-1.071l-.33-.307-1.163.16c-2.565.354-3.618.517-4.014.631-.1.027-.115.018-.369-.179-.324-.25-.612-.592-.56-.592.021,0,.853-.123,1.85-.273a34.269,34.269,0,0,1,4.524-.6,4.076,4.076,0,0,1,1.036.786c1.257,1.038,2.627,2.38,2.913,2.455L14.45,8.59c-.141,0-.292.012-.669,0Z" class="aw-theme-iconOutline" fill="#464646"/>
    <path id="path996-7" d="M8.248,9.21A8.839,8.839,0,0,1,5.7,8.326a5.557,5.557,0,0,1-.952-.583c-.238-.173-.592-.454-.787-.624a4.613,4.613,0,0,1-.68-.71A10.107,10.107,0,0,1,2.272,4.866c-.692-1.142-1-1.682-1.655-2.92-.373-.7-.423-.8-.4-.817s.935-.22.943-.212.18.333.39.729c.666,1.256.935,1.732,1.588,2.811A10.049,10.049,0,0,0,4.054,5.85,6.243,6.243,0,0,0,5.327,7a5.75,5.75,0,0,0,.858.526A9.84,9.84,0,0,0,8.8,8.359a23.809,23.809,0,0,0,4.321.088,7.508,7.508,0,0,1,.9.008c.42,0,5.535,0,6.233.007,1.158.018.7-.063.788-.088.034-.01-.046-.119-.5-.687-.5-.624-1.125-1.481-1.507-2.08a6.358,6.358,0,0,1-.713-1.529A5.636,5.636,0,0,1,18.005,2.5c-.039-.441-.091-2.035-.064-2.052h.976l.015,1a12.982,12.982,0,0,0,.094,1.461,10.023,10.023,0,0,0,.412,1.443,4.737,4.737,0,0,0,.363.7c.374.577,1.012,1.451,1.529,2.1l.566.709c.1.121.279.341.407.489a2.665,2.665,0,0,1,.273.369.667.667,0,0,1,.1.176.541.541,0,0,1-.047.329c-.063.127-.266.171-.269.173S20.8,9.372,18.1,9.4c-.955.009-2.076.01-2.757,0s-.881,0-1.335,0c-1.38.008-1.183-.008-1.232,0-.076.014-1.87.027-2.8-.021A10.68,10.68,0,0,1,8.248,9.21Z" class="aw-theme-iconOutline" fill="#464646"/>
    <path id="rect894" d="M8.406,21h1.706v1H8.406Z" class="aw-theme-iconOutline" fill="#464646"/>
  </g>
</svg>
