<svg id="Layer_1" data-name="Layer 1" xmlns="http://www.w3.org/2000/svg" xmlns:xlink="http://www.w3.org/1999/xlink" viewBox="0 0 48 48">
  <defs>
    <linearGradient id="linear-gradient" x1="204.214" y1="-218.5" x2="248.214" y2="-262.5" gradientTransform="matrix(0.583, 0, 0, -0.583, -97.083, -125.417)" gradientUnits="userSpaceOnUse">
      <stop offset="0" stop-color="#fff"/>
      <stop offset="0.248" stop-color="#f8f8f8"/>
      <stop offset="0.606" stop-color="#e5e5e5"/>
      <stop offset="1" stop-color="#c8c8c8"/>
    </linearGradient>
    <linearGradient id="linear-gradient-2" x1="214.464" y1="-226.25" x2="228.964" y2="-240.75" gradientTransform="matrix(0.583, 0, 0, -0.583, -97.083, -125.417)" gradientUnits="userSpaceOnUse">
      <stop offset="0" stop-color="#73b4c8"/>
      <stop offset="0.175" stop-color="#6aaec3"/>
      <stop offset="0.457" stop-color="#529eb5"/>
      <stop offset="0.809" stop-color="#2c839f"/>
      <stop offset="1" stop-color="#147391"/>
    </linearGradient>
    <linearGradient id="linear-gradient-3" x1="204.214" y1="-218.5" x2="248.214" y2="-262.5" gradientTransform="matrix(0.583, 0, 0, -0.583, -117.083, -120.417)" xlink:href="#linear-gradient"/>
    <linearGradient id="linear-gradient-4" x1="214.464" y1="-226.25" x2="228.964" y2="-240.75" gradientTransform="matrix(0.583, 0, 0, -0.583, -117.083, -120.417)" xlink:href="#linear-gradient-2"/>
    <linearGradient id="linear-gradient-5" x1="66.41" y1="-454.256" x2="86.052" y2="-473.898" gradientTransform="matrix(0.867, 0, 0, -0.867, -31.067, -367.2)" gradientUnits="userSpaceOnUse">
      <stop offset="0" stop-color="#6ab1c3"/>
      <stop offset="0.175" stop-color="#64acbe"/>
      <stop offset="0.457" stop-color="#509cb0"/>
      <stop offset="0.809" stop-color="#31849d"/>
      <stop offset="1" stop-color="#1f7690"/>
    </linearGradient>
  </defs>
  <g id="g1135">
    <path id="path22-7" d="M35.458.292a2.917,2.917,0,0,1-5.833,0H23.792l-3.5,3.5V27.708H47.708V.292Z" stroke="#464646" stroke-miterlimit="10" stroke-width="0.583" fill="url(#linear-gradient)"/>
    <path id="rect24-8" d="M28.458,6.125h7.584v9.333H28.458Z" stroke="#147391" stroke-miterlimit="10" stroke-width="0.583" fill="url(#linear-gradient-2)"/>
    <path id="polyline26-7" d="M27.292,7.292h-1.75L24.083,5.833" fill="none" stroke="#147391" stroke-linejoin="round" stroke-width="0.583"/>
    <path id="polyline28-1" d="M27.292,14.292h-1.75l-2.334,2.333v1.167" fill="none" stroke="#147391" stroke-linejoin="round" stroke-width="0.583"/>
    <path id="polyline30-6" d="M27.292,10.792h-1.75L24.083,9.333" fill="none" stroke="#147391" stroke-linejoin="round" stroke-width="0.583"/>
    <path id="rect32-0" d="M27.292,6.708h1.166V7.875H27.292Z" fill="none" stroke="#147391" stroke-miterlimit="10" stroke-width="0.583"/>
    <path id="rect34-2" d="M27.292,10.208h1.166v1.167H27.292Z" fill="none" stroke="#147391" stroke-miterlimit="10" stroke-width="0.583"/>
    <path id="rect36-3" d="M27.292,13.708h1.166v1.167H27.292Z" fill="none" stroke="#147391" stroke-miterlimit="10" stroke-width="0.583"/>
    <path id="circle38-7" d="M24.375,18.958a1.167,1.167,0,1,1-2.333,0h0a1.166,1.166,0,0,1,1.166-1.166h0a1.166,1.166,0,0,1,1.167,1.166Z" fill="none" stroke="#147391" stroke-miterlimit="10" stroke-width="0.583"/>
    <path id="circle40-6" d="M24.375,23.625a1.167,1.167,0,0,1-1.167,1.167h0a1.167,1.167,0,0,1-1.166-1.167h0a1.167,1.167,0,0,1,1.166-1.167h0a1.167,1.167,0,0,1,1.167,1.167Z" fill="none" stroke="#147391" stroke-miterlimit="10" stroke-width="0.583"/>
    <path id="circle42-8" d="M31.375,23.625a1.167,1.167,0,0,1-1.167,1.167h0a1.167,1.167,0,0,1-1.166-1.167h0a1.167,1.167,0,0,1,1.166-1.167h0a1.167,1.167,0,0,1,1.167,1.167Z" fill="none" stroke="#147391" stroke-miterlimit="10" stroke-width="0.583"/>
    <path id="circle44-6" d="M24.375,8.458a1.166,1.166,0,0,1-1.167,1.167h0a1.167,1.167,0,1,1,1.167-1.167Z" fill="none" stroke="#147391" stroke-miterlimit="10" stroke-width="0.583"/>
    <path id="circle46-6" d="M24.375,4.958a1.166,1.166,0,0,1-1.167,1.167h0a1.167,1.167,0,1,1,1.167-1.167Z" fill="none" stroke="#147391" stroke-miterlimit="10" stroke-width="0.583"/>
    <path id="polyline48-1" d="M37.208,10.792h4.667l3.5-3.5V4.375" fill="none" stroke="#147391" stroke-linejoin="round" stroke-width="0.583"/>
    <path id="polyline50-7" d="M44.792,18.958V16.625l-2.334-2.333h-5.25" fill="none" stroke="#147391" stroke-linejoin="round" stroke-width="0.583"/>
    <path id="circle52-1" d="M46.542,3.208a1.167,1.167,0,0,1-1.167,1.167h0a1.167,1.167,0,0,1-1.167-1.167h0a1.167,1.167,0,0,1,1.167-1.166h0a1.167,1.167,0,0,1,1.167,1.166Z" fill="none" stroke="#147391" stroke-miterlimit="10" stroke-width="0.583"/>
    <path id="polyline54-9" d="M37.208,7.292h2.917l1.75-1.75V4.375" fill="none" stroke="#147391" stroke-linejoin="round" stroke-width="0.583"/>
    <path id="circle56-0" d="M43.042,3.208a1.167,1.167,0,0,1-1.167,1.167h0a1.167,1.167,0,0,1-1.167-1.167h0a1.167,1.167,0,0,1,1.167-1.166h0a1.167,1.167,0,0,1,1.167,1.166Z" fill="none" stroke="#147391" stroke-miterlimit="10" stroke-width="0.583"/>
    <path id="circle58-0" d="M45.958,20.125a1.167,1.167,0,0,1-1.166,1.167h0a1.167,1.167,0,0,1-1.167-1.167h0a1.167,1.167,0,0,1,1.167-1.167h0a1.167,1.167,0,0,1,1.166,1.167Z" fill="none" stroke="#147391" stroke-miterlimit="10" stroke-width="0.583"/>
    <path id="circle60-7" d="M29.042,18.958a1.167,1.167,0,0,1-1.167,1.167h0a1.167,1.167,0,0,1-1.167-1.167h0a1.167,1.167,0,0,1,1.167-1.166h0a1.167,1.167,0,0,1,1.167,1.166Z" fill="none" stroke="#147391" stroke-miterlimit="10" stroke-width="0.583"/>
    <path id="circle62-5" d="M37.208,23.625a1.167,1.167,0,0,1-1.166,1.167h0a1.167,1.167,0,0,1-1.167-1.167h0a1.167,1.167,0,0,1,1.167-1.167h0a1.167,1.167,0,0,1,1.166,1.167Z" fill="none" stroke="#147391" stroke-miterlimit="10" stroke-width="0.583"/>
    <path id="polyline64-8" d="M35.217,22.8l-3.842-3.842H29.042" fill="none" stroke="#147391" stroke-linejoin="round" stroke-width="0.583"/>
    <path id="rect66-7" d="M36.042,6.708h1.166V7.875H36.042Z" fill="none" stroke="#147391" stroke-miterlimit="10" stroke-width="0.583"/>
    <path id="rect68-0" d="M36.042,10.208h1.166v1.167H36.042Z" fill="none" stroke="#147391" stroke-miterlimit="10" stroke-width="0.583"/>
    <path id="rect70-0" d="M36.042,13.708h1.166v1.167H36.042Z" fill="none" stroke="#147391" stroke-miterlimit="10" stroke-width="0.583"/>
    <path id="line72-8" d="M24.375,23.625h4.667" fill="none" stroke="#147391" stroke-linejoin="round" stroke-width="0.583"/>
    <path id="circle74-5" d="M41.875,17.208a1.166,1.166,0,0,1-1.167,1.167h0a1.166,1.166,0,0,1-1.166-1.167h0a1.166,1.166,0,0,1,1.166-1.166h0a1.166,1.166,0,0,1,1.167,1.166Z" fill="none" stroke="#147391" stroke-miterlimit="10" stroke-width="0.583"/>
    <path id="circle76-2" d="M41.875,23.625a1.167,1.167,0,0,1-1.167,1.167h0a1.167,1.167,0,0,1-1.166-1.167h0a1.167,1.167,0,0,1,1.166-1.167h0a1.167,1.167,0,0,1,1.167,1.167Z" fill="none" stroke="#147391" stroke-miterlimit="10" stroke-width="0.583"/>
    <path id="line78-9" d="M40.708,18.375v4.083" fill="none" stroke="#147391" stroke-linejoin="round" stroke-width="0.583"/>
    <path id="path22" d="M15.458,5.292a2.917,2.917,0,0,1-5.833,0H3.792l-3.5,3.5V32.708H27.708V5.292Z" stroke="#464646" stroke-miterlimit="10" stroke-width="0.583" fill="url(#linear-gradient-3)"/>
    <path id="rect24" d="M8.458,11.125h7.584v9.333H8.458Z" stroke="#147391" stroke-miterlimit="10" stroke-width="0.583" fill="url(#linear-gradient-4)"/>
    <path id="polyline26" d="M7.292,12.292H5.542L4.083,10.833" fill="none" stroke="#147391" stroke-linejoin="round" stroke-width="0.583"/>
    <path id="polyline28" d="M7.292,19.292H5.542L3.208,21.625v1.167" fill="none" stroke="#147391" stroke-linejoin="round" stroke-width="0.583"/>
    <path id="polyline30" d="M7.292,15.792H5.542L4.083,14.333" fill="none" stroke="#147391" stroke-linejoin="round" stroke-width="0.583"/>
    <path id="rect32" d="M7.292,11.708H8.458v1.167H7.292Z" fill="none" stroke="#147391" stroke-miterlimit="10" stroke-width="0.583"/>
    <path id="rect34" d="M7.292,15.208H8.458v1.167H7.292Z" fill="none" stroke="#147391" stroke-miterlimit="10" stroke-width="0.583"/>
    <path id="rect36" d="M7.292,18.708H8.458v1.167H7.292Z" fill="none" stroke="#147391" stroke-miterlimit="10" stroke-width="0.583"/>
    <path id="circle38" d="M4.375,23.958a1.166,1.166,0,0,1-1.167,1.167h0a1.166,1.166,0,0,1-1.166-1.167h0a1.167,1.167,0,0,1,2.333,0Z" fill="none" stroke="#147391" stroke-miterlimit="10" stroke-width="0.583"/>
    <path id="circle40" d="M4.375,28.625a1.167,1.167,0,0,1-1.167,1.167h0a1.167,1.167,0,0,1-1.166-1.167h0a1.167,1.167,0,0,1,1.166-1.167h0a1.167,1.167,0,0,1,1.167,1.167Z" fill="none" stroke="#147391" stroke-miterlimit="10" stroke-width="0.583"/>
    <path id="circle42" d="M11.375,28.625a1.167,1.167,0,0,1-1.167,1.167h0a1.167,1.167,0,0,1-1.166-1.167h0a1.167,1.167,0,0,1,1.166-1.167h0a1.167,1.167,0,0,1,1.167,1.167Z" fill="none" stroke="#147391" stroke-miterlimit="10" stroke-width="0.583"/>
    <path id="circle44" d="M4.375,13.458a1.166,1.166,0,0,1-1.167,1.167h0a1.166,1.166,0,0,1-1.166-1.167h0a1.166,1.166,0,0,1,1.166-1.166h0a1.166,1.166,0,0,1,1.167,1.166Z" fill="none" stroke="#147391" stroke-miterlimit="10" stroke-width="0.583"/>
    <path id="circle46" d="M4.375,9.958a1.166,1.166,0,0,1-1.167,1.167h0A1.166,1.166,0,0,1,2.042,9.958h0A1.166,1.166,0,0,1,3.208,8.792h0A1.166,1.166,0,0,1,4.375,9.958Z" fill="none" stroke="#147391" stroke-miterlimit="10" stroke-width="0.583"/>
    <path id="polyline48" d="M17.208,15.792h4.667l3.5-3.5V9.375" fill="none" stroke="#147391" stroke-linejoin="round" stroke-width="0.583"/>
    <path id="polyline50" d="M24.792,23.958V21.625l-2.334-2.333h-5.25" fill="none" stroke="#147391" stroke-linejoin="round" stroke-width="0.583"/>
    <path id="circle52" d="M26.542,8.208a1.167,1.167,0,0,1-1.167,1.167h0a1.167,1.167,0,0,1-1.167-1.167h0a1.167,1.167,0,0,1,1.167-1.166h0a1.167,1.167,0,0,1,1.167,1.166Z" fill="none" stroke="#147391" stroke-miterlimit="10" stroke-width="0.583"/>
    <path id="polyline54" d="M17.208,12.292h2.917l1.75-1.75V9.375" fill="none" stroke="#147391" stroke-linejoin="round" stroke-width="0.583"/>
    <path id="circle56" d="M23.042,8.208a1.167,1.167,0,0,1-1.167,1.167h0a1.167,1.167,0,0,1-1.167-1.167h0a1.167,1.167,0,0,1,1.167-1.166h0a1.167,1.167,0,0,1,1.167,1.166Z" fill="none" stroke="#147391" stroke-miterlimit="10" stroke-width="0.583"/>
    <path id="circle58" d="M25.958,25.125a1.167,1.167,0,0,1-1.166,1.167h0a1.167,1.167,0,0,1-1.167-1.167h0a1.167,1.167,0,0,1,1.167-1.167h0a1.167,1.167,0,0,1,1.166,1.167Z" fill="none" stroke="#147391" stroke-miterlimit="10" stroke-width="0.583"/>
    <path id="circle60" d="M9.042,23.958a1.167,1.167,0,0,1-1.167,1.167h0a1.167,1.167,0,0,1-1.167-1.167h0a1.167,1.167,0,0,1,2.334,0Z" fill="none" stroke="#147391" stroke-miterlimit="10" stroke-width="0.583"/>
    <path id="circle62" d="M17.208,28.625a1.167,1.167,0,0,1-1.166,1.167h0a1.167,1.167,0,0,1-1.167-1.167h0a1.167,1.167,0,0,1,1.167-1.167h0a1.167,1.167,0,0,1,1.166,1.167Z" fill="none" stroke="#147391" stroke-miterlimit="10" stroke-width="0.583"/>
    <path id="polyline64" d="M15.217,27.8l-3.842-3.842H9.042" fill="none" stroke="#147391" stroke-linejoin="round" stroke-width="0.583"/>
    <path id="rect66" d="M16.042,11.708h1.166v1.167H16.042Z" fill="none" stroke="#147391" stroke-miterlimit="10" stroke-width="0.583"/>
    <path id="rect68" d="M16.042,15.208h1.166v1.167H16.042Z" fill="none" stroke="#147391" stroke-miterlimit="10" stroke-width="0.583"/>
    <path id="rect70" d="M16.042,18.708h1.166v1.167H16.042Z" fill="none" stroke="#147391" stroke-miterlimit="10" stroke-width="0.583"/>
    <path id="line72" d="M4.375,28.625H9.042" fill="none" stroke="#147391" stroke-linejoin="round" stroke-width="0.583"/>
    <path id="circle74" d="M21.875,22.208a1.167,1.167,0,1,1-2.333,0h0a1.166,1.166,0,0,1,1.166-1.166h0a1.166,1.166,0,0,1,1.167,1.166Z" fill="none" stroke="#147391" stroke-miterlimit="10" stroke-width="0.583"/>
    <path id="circle76" d="M21.875,28.625a1.167,1.167,0,0,1-1.167,1.167h0a1.167,1.167,0,0,1-1.166-1.167h0a1.167,1.167,0,0,1,1.166-1.167h0a1.167,1.167,0,0,1,1.167,1.167Z" fill="none" stroke="#147391" stroke-miterlimit="10" stroke-width="0.583"/>
    <path id="line78" d="M20.708,23.375v4.083" fill="none" stroke="#147391" stroke-linejoin="round" stroke-width="0.583"/>
    <path id="circle42-4" d="M47.037,35A12.037,12.037,0,0,1,35,47.037h0A12.037,12.037,0,0,1,22.963,35h0A12.037,12.037,0,0,1,35,22.963h0A12.037,12.037,0,0,1,47.037,35Z" fill="url(#linear-gradient-5)"/>
    <path id="path44" d="M35,48A13,13,0,1,1,48,35,13,13,0,0,1,35,48Zm0-25.037A12.037,12.037,0,1,0,47.038,35,12.036,12.036,0,0,0,35,22.963Z" fill="#3f4143"/>
    <path id="path2" d="M27.412,29.531l.286.179a14.694,14.694,0,0,1,6.965,12.545l-.024.423-1.757-1.335-.477.477L35,44.415l2.6-2.595-.477-.477-1.758,1.335-.024-.423A14.691,14.691,0,0,1,42.3,29.709l.285-.179a.337.337,0,0,0-.356-.572h0l-.286.18A15.343,15.343,0,0,0,35,39.049a15.348,15.348,0,0,0-6.945-9.911l-.286-.179a.337.337,0,0,0-.357.572Z" fill="#147391" stroke="#147391" stroke-width="2.494"/>
    <path id="path2-1" d="M27.412,29.531l.286.179a14.694,14.694,0,0,1,6.965,12.545v.871l-1.781-1.783-.476.477L35,44.415l2.6-2.595-.477-.477-1.783,1.783v-.871A14.691,14.691,0,0,1,42.3,29.709l.285-.179a.337.337,0,0,0-.356-.572h0l-.286.18A15.343,15.343,0,0,0,35,39.049a15.344,15.344,0,0,0-6.945-9.911l-.286-.179a.337.337,0,1,0-.358.571Z" fill="#fff" stroke="#fff" stroke-width="0.655"/>
  </g>
</svg>
