<svg id="Layer_1" data-name="Layer 1" xmlns="http://www.w3.org/2000/svg" xmlns:xlink="http://www.w3.org/1999/xlink" viewBox="0 0 48 48">
  <defs>
    <linearGradient id="linear-gradient" x1="97.167" y1="-77.167" x2="141.167" y2="-121.167" gradientTransform="matrix(0.75, 0, 0, -0.75, -70.25, -55.25)" gradientUnits="userSpaceOnUse">
      <stop offset="0" stop-color="#fff"/>
      <stop offset="0.248" stop-color="#f8f8f8"/>
      <stop offset="0.606" stop-color="#e5e5e5"/>
      <stop offset="1" stop-color="#c8c8c8"/>
    </linearGradient>
    <linearGradient id="linear-gradient-2" x1="107.417" y1="-84.917" x2="121.917" y2="-99.417" gradientTransform="matrix(0.75, 0, 0, -0.75, -70.25, -55.25)" gradientUnits="userSpaceOnUse">
      <stop offset="0" stop-color="#73b4c8"/>
      <stop offset="0.175" stop-color="#6aaec3"/>
      <stop offset="0.457" stop-color="#529eb5"/>
      <stop offset="0.809" stop-color="#2c839f"/>
      <stop offset="1" stop-color="#147391"/>
    </linearGradient>
    <linearGradient id="linear-gradient-3" x1="97.167" y1="-77.167" x2="141.167" y2="-121.167" gradientTransform="matrix(0.75, 0, 0, -0.75, -58.25, -43.25)" xlink:href="#linear-gradient"/>
    <linearGradient id="linear-gradient-4" x1="107.417" y1="-84.917" x2="121.917" y2="-99.417" gradientTransform="matrix(0.75, 0, 0, -0.75, -58.25, -43.25)" xlink:href="#linear-gradient-2"/>
  </defs>
  <g id="g1065">
    <path id="path22" d="M19.875.375a3.75,3.75,0,0,1-7.5,0h-7.5l-4.5,4.5v30.75h35.25V.375Z" stroke="#464646" stroke-miterlimit="10" stroke-width="0.75" fill="url(#linear-gradient)"/>
    <path id="rect24" d="M10.875,7.875h9.75v12h-9.75Z" stroke="#147391" stroke-miterlimit="10" stroke-width="0.75" fill="url(#linear-gradient-2)"/>
    <path id="polyline26" d="M9.375,9.375H7.125L5.25,7.5" fill="none" stroke="#147391" stroke-linejoin="round" stroke-width="0.75"/>
    <path id="polyline28" d="M9.375,18.375H7.125l-3,3v1.5" fill="none" stroke="#147391" stroke-linejoin="round" stroke-width="0.75"/>
    <path id="polyline30" d="M9.375,13.875H7.125L5.25,12" fill="none" stroke="#147391" stroke-linejoin="round" stroke-width="0.75"/>
    <path id="rect32" d="M9.375,8.625h1.5v1.5h-1.5Z" fill="none" stroke="#147391" stroke-miterlimit="10" stroke-width="0.75"/>
    <path id="rect34" d="M9.375,13.125h1.5v1.5h-1.5Z" fill="none" stroke="#147391" stroke-miterlimit="10" stroke-width="0.75"/>
    <path id="rect36" d="M9.375,17.625h1.5v1.5h-1.5Z" fill="none" stroke="#147391" stroke-miterlimit="10" stroke-width="0.75"/>
    <path id="circle38" d="M5.625,24.375a1.5,1.5,0,1,1-1.5-1.5A1.5,1.5,0,0,1,5.625,24.375Z" fill="none" stroke="#147391" stroke-miterlimit="10" stroke-width="0.75"/>
    <path id="circle40" d="M5.625,30.375a1.5,1.5,0,1,1-1.5-1.5A1.5,1.5,0,0,1,5.625,30.375Z" fill="none" stroke="#147391" stroke-miterlimit="10" stroke-width="0.75"/>
    <path id="circle42" d="M14.625,30.375a1.5,1.5,0,1,1-1.5-1.5A1.5,1.5,0,0,1,14.625,30.375Z" fill="none" stroke="#147391" stroke-miterlimit="10" stroke-width="0.75"/>
    <path id="circle44" d="M5.625,10.875a1.5,1.5,0,1,1-1.5-1.5A1.5,1.5,0,0,1,5.625,10.875Z" fill="none" stroke="#147391" stroke-miterlimit="10" stroke-width="0.75"/>
    <path id="circle46" d="M5.625,6.375a1.5,1.5,0,1,1-1.5-1.5A1.5,1.5,0,0,1,5.625,6.375Z" fill="none" stroke="#147391" stroke-miterlimit="10" stroke-width="0.75"/>
    <path id="polyline48" d="M22.125,13.875h6l4.5-4.5V5.625" fill="none" stroke="#147391" stroke-linejoin="round" stroke-width="0.75"/>
    <path id="polyline50" d="M31.875,24.375v-3l-3-3h-6.75" fill="none" stroke="#147391" stroke-linejoin="round" stroke-width="0.75"/>
    <path id="circle52" d="M34.125,4.125a1.5,1.5,0,1,1-1.5-1.5A1.5,1.5,0,0,1,34.125,4.125Z" fill="none" stroke="#147391" stroke-miterlimit="10" stroke-width="0.75"/>
    <path id="polyline54" d="M22.125,9.375h3.75l2.25-2.25v-1.5" fill="none" stroke="#147391" stroke-linejoin="round" stroke-width="0.75"/>
    <path id="circle56" d="M29.625,4.125a1.5,1.5,0,1,1-1.5-1.5A1.5,1.5,0,0,1,29.625,4.125Z" fill="none" stroke="#147391" stroke-miterlimit="10" stroke-width="0.75"/>
    <path id="circle58" d="M33.375,25.875a1.5,1.5,0,1,1-1.5-1.5A1.5,1.5,0,0,1,33.375,25.875Z" fill="none" stroke="#147391" stroke-miterlimit="10" stroke-width="0.75"/>
    <path id="circle60" d="M11.625,24.375a1.5,1.5,0,1,1-1.5-1.5A1.5,1.5,0,0,1,11.625,24.375Z" fill="none" stroke="#147391" stroke-miterlimit="10" stroke-width="0.75"/>
    <path id="circle62" d="M22.125,30.375a1.5,1.5,0,1,1-1.5-1.5A1.5,1.5,0,0,1,22.125,30.375Z" fill="none" stroke="#147391" stroke-miterlimit="10" stroke-width="0.75"/>
    <path id="polyline64" d="M19.565,29.314l-4.94-4.939h-3" fill="none" stroke="#147391" stroke-linejoin="round" stroke-width="0.75"/>
    <path id="rect66" d="M20.625,8.625h1.5v1.5h-1.5Z" fill="none" stroke="#147391" stroke-miterlimit="10" stroke-width="0.75"/>
    <path id="rect68" d="M20.625,13.125h1.5v1.5h-1.5Z" fill="none" stroke="#147391" stroke-miterlimit="10" stroke-width="0.75"/>
    <path id="rect70" d="M20.625,17.625h1.5v1.5h-1.5Z" fill="none" stroke="#147391" stroke-miterlimit="10" stroke-width="0.75"/>
    <path id="line72" d="M5.625,30.375h6" fill="none" stroke="#147391" stroke-linejoin="round" stroke-width="0.75"/>
    <path id="circle74" d="M28.125,22.125a1.5,1.5,0,1,1-1.5-1.5A1.5,1.5,0,0,1,28.125,22.125Z" fill="none" stroke="#147391" stroke-miterlimit="10" stroke-width="0.75"/>
    <path id="circle76" d="M28.125,30.375a1.5,1.5,0,1,1-1.5-1.5A1.5,1.5,0,0,1,28.125,30.375Z" fill="none" stroke="#147391" stroke-miterlimit="10" stroke-width="0.75"/>
    <path id="line78" d="M26.625,23.625v5.25" fill="none" stroke="#147391" stroke-linejoin="round" stroke-width="0.75"/>
    <path id="path22-7" d="M31.875,12.375a3.75,3.75,0,0,1-7.5,0h-7.5l-4.5,4.5v30.75h35.25V12.375Z" stroke="#464646" stroke-miterlimit="10" stroke-width="0.75" fill="url(#linear-gradient-3)"/>
    <path id="rect24-8" d="M22.875,19.875h9.75v12h-9.75Z" stroke="#147391" stroke-miterlimit="10" stroke-width="0.75" fill="url(#linear-gradient-4)"/>
    <path id="polyline26-7" d="M21.375,21.375h-2.25L17.25,19.5" fill="none" stroke="#147391" stroke-linejoin="round" stroke-width="0.75"/>
    <path id="polyline28-1" d="M21.375,30.375h-2.25l-3,3v1.5" fill="none" stroke="#147391" stroke-linejoin="round" stroke-width="0.75"/>
    <path id="polyline30-6" d="M21.375,25.875h-2.25L17.25,24" fill="none" stroke="#147391" stroke-linejoin="round" stroke-width="0.75"/>
    <path id="rect32-0" d="M21.375,20.625h1.5v1.5h-1.5Z" fill="none" stroke="#147391" stroke-miterlimit="10" stroke-width="0.75"/>
    <path id="rect34-2" d="M21.375,25.125h1.5v1.5h-1.5Z" fill="none" stroke="#147391" stroke-miterlimit="10" stroke-width="0.75"/>
    <path id="rect36-3" d="M21.375,29.625h1.5v1.5h-1.5Z" fill="none" stroke="#147391" stroke-miterlimit="10" stroke-width="0.75"/>
    <path id="circle38-7" d="M17.625,36.375a1.5,1.5,0,1,1-1.5-1.5A1.5,1.5,0,0,1,17.625,36.375Z" fill="none" stroke="#147391" stroke-miterlimit="10" stroke-width="0.75"/>
    <path id="circle40-6" d="M17.625,42.375a1.5,1.5,0,1,1-1.5-1.5A1.5,1.5,0,0,1,17.625,42.375Z" fill="none" stroke="#147391" stroke-miterlimit="10" stroke-width="0.75"/>
    <path id="circle42-8" d="M26.625,42.375a1.5,1.5,0,1,1-1.5-1.5A1.5,1.5,0,0,1,26.625,42.375Z" fill="none" stroke="#147391" stroke-miterlimit="10" stroke-width="0.75"/>
    <path id="circle44-6" d="M17.625,22.875a1.5,1.5,0,1,1-1.5-1.5A1.5,1.5,0,0,1,17.625,22.875Z" fill="none" stroke="#147391" stroke-miterlimit="10" stroke-width="0.75"/>
    <path id="circle46-6" d="M17.625,18.375a1.5,1.5,0,1,1-1.5-1.5A1.5,1.5,0,0,1,17.625,18.375Z" fill="none" stroke="#147391" stroke-miterlimit="10" stroke-width="0.75"/>
    <path id="polyline48-1" d="M34.125,25.875h6l4.5-4.5v-3.75" fill="none" stroke="#147391" stroke-linejoin="round" stroke-width="0.75"/>
    <path id="polyline50-7" d="M43.875,36.375v-3l-3-3h-6.75" fill="none" stroke="#147391" stroke-linejoin="round" stroke-width="0.75"/>
    <path id="circle52-1" d="M46.125,16.125a1.5,1.5,0,1,1-1.5-1.5A1.5,1.5,0,0,1,46.125,16.125Z" fill="none" stroke="#147391" stroke-miterlimit="10" stroke-width="0.75"/>
    <path id="polyline54-9" d="M34.125,21.375h3.75l2.25-2.25v-1.5" fill="none" stroke="#147391" stroke-linejoin="round" stroke-width="0.75"/>
    <path id="circle56-0" d="M41.625,16.125a1.5,1.5,0,1,1-1.5-1.5A1.5,1.5,0,0,1,41.625,16.125Z" fill="none" stroke="#147391" stroke-miterlimit="10" stroke-width="0.75"/>
    <path id="circle58-0" d="M45.375,37.875a1.5,1.5,0,1,1-1.5-1.5A1.5,1.5,0,0,1,45.375,37.875Z" fill="none" stroke="#147391" stroke-miterlimit="10" stroke-width="0.75"/>
    <path id="circle60-7" d="M23.625,36.375a1.5,1.5,0,1,1-1.5-1.5A1.5,1.5,0,0,1,23.625,36.375Z" fill="none" stroke="#147391" stroke-miterlimit="10" stroke-width="0.75"/>
    <path id="circle62-5" d="M34.125,42.375a1.5,1.5,0,1,1-1.5-1.5A1.5,1.5,0,0,1,34.125,42.375Z" fill="none" stroke="#147391" stroke-miterlimit="10" stroke-width="0.75"/>
    <path id="polyline64-8" d="M31.565,41.314l-4.94-4.939h-3" fill="none" stroke="#147391" stroke-linejoin="round" stroke-width="0.75"/>
    <path id="rect66-7" d="M32.625,20.625h1.5v1.5h-1.5Z" fill="none" stroke="#147391" stroke-miterlimit="10" stroke-width="0.75"/>
    <path id="rect68-0" d="M32.625,25.125h1.5v1.5h-1.5Z" fill="none" stroke="#147391" stroke-miterlimit="10" stroke-width="0.75"/>
    <path id="rect70-0" d="M32.625,29.625h1.5v1.5h-1.5Z" fill="none" stroke="#147391" stroke-miterlimit="10" stroke-width="0.75"/>
    <path id="line72-8" d="M17.625,42.375h6" fill="none" stroke="#147391" stroke-linejoin="round" stroke-width="0.75"/>
    <path id="circle74-5" d="M40.125,34.125a1.5,1.5,0,1,1-1.5-1.5A1.5,1.5,0,0,1,40.125,34.125Z" fill="none" stroke="#147391" stroke-miterlimit="10" stroke-width="0.75"/>
    <path id="circle76-2" d="M40.125,42.375a1.5,1.5,0,1,1-1.5-1.5A1.5,1.5,0,0,1,40.125,42.375Z" fill="none" stroke="#147391" stroke-miterlimit="10" stroke-width="0.75"/>
    <path id="line78-9" d="M38.625,35.625v5.25" fill="none" stroke="#147391" stroke-linejoin="round" stroke-width="0.75"/>
  </g>
</svg>
