<svg id="Layer_1" data-name="Layer 1" xmlns="http://www.w3.org/2000/svg" xmlns:xlink="http://www.w3.org/1999/xlink" viewBox="0 0 48 48">
  <defs>
    <linearGradient id="linear-gradient" x1="131.227" y1="-122.136" x2="175.227" y2="-166.136" gradientTransform="matrix(0.688, 0, 0, -0.688, -87.813, -81.563)" gradientUnits="userSpaceOnUse">
      <stop offset="0" stop-color="#fff"/>
      <stop offset="0.248" stop-color="#f8f8f8"/>
      <stop offset="0.606" stop-color="#e5e5e5"/>
      <stop offset="1" stop-color="#c8c8c8"/>
    </linearGradient>
    <linearGradient id="linear-gradient-2" x1="141.477" y1="-129.886" x2="155.977" y2="-144.386" gradientTransform="matrix(0.688, 0, 0, -0.688, -87.813, -81.563)" gradientUnits="userSpaceOnUse">
      <stop offset="0" stop-color="#73b4c8"/>
      <stop offset="0.175" stop-color="#6aaec3"/>
      <stop offset="0.457" stop-color="#529eb5"/>
      <stop offset="0.809" stop-color="#2c839f"/>
      <stop offset="1" stop-color="#147391"/>
    </linearGradient>
    <linearGradient id="linear-gradient-3" x1="131.227" y1="-122.136" x2="175.227" y2="-166.136" gradientTransform="matrix(0.688, 0, 0, -0.688, -76.813, -70.563)" xlink:href="#linear-gradient"/>
    <linearGradient id="linear-gradient-4" x1="141.477" y1="-129.886" x2="155.977" y2="-144.386" gradientTransform="matrix(0.688, 0, 0, -0.688, -76.813, -70.563)" xlink:href="#linear-gradient-2"/>
    <linearGradient id="linear-gradient-5" x1="66.41" y1="-454.256" x2="86.052" y2="-473.898" gradientTransform="matrix(0.867, 0, 0, -0.867, -31.067, -367.2)" gradientUnits="userSpaceOnUse">
      <stop offset="0" stop-color="#6ab1c3"/>
      <stop offset="0.175" stop-color="#64acbe"/>
      <stop offset="0.457" stop-color="#509cb0"/>
      <stop offset="0.809" stop-color="#31849d"/>
      <stop offset="1" stop-color="#1f7690"/>
    </linearGradient>
  </defs>
  <g id="g1090">
    <path id="path22" d="M18.219.344a3.438,3.438,0,0,1-6.875,0H4.469L.344,4.469V32.656H32.656V.344Z" stroke="#464646" stroke-miterlimit="10" stroke-width="0.688" fill="url(#linear-gradient)"/>
    <path id="rect24" d="M9.969,7.219h8.937v11H9.969Z" stroke="#147391" stroke-miterlimit="10" stroke-width="0.688" fill="url(#linear-gradient-2)"/>
    <path id="polyline26" d="M8.594,8.594H6.531L4.813,6.875" fill="none" stroke="#147391" stroke-linejoin="round" stroke-width="0.688"/>
    <path id="polyline28" d="M8.594,16.844H6.531l-2.75,2.75v1.375" fill="none" stroke="#147391" stroke-linejoin="round" stroke-width="0.688"/>
    <path id="polyline30" d="M8.594,12.719H6.531L4.813,11" fill="none" stroke="#147391" stroke-linejoin="round" stroke-width="0.688"/>
    <path id="rect32" d="M8.594,7.906H9.969V9.281H8.594Z" fill="none" stroke="#147391" stroke-miterlimit="10" stroke-width="0.688"/>
    <path id="rect34" d="M8.594,12.031H9.969v1.375H8.594Z" fill="none" stroke="#147391" stroke-miterlimit="10" stroke-width="0.688"/>
    <path id="rect36" d="M8.594,16.156H9.969v1.375H8.594Z" fill="none" stroke="#147391" stroke-miterlimit="10" stroke-width="0.688"/>
    <path id="circle38" d="M5.156,22.344a1.375,1.375,0,1,1-1.375-1.375A1.375,1.375,0,0,1,5.156,22.344Z" fill="none" stroke="#147391" stroke-miterlimit="10" stroke-width="0.688"/>
    <path id="circle40" d="M5.156,27.844a1.375,1.375,0,1,1-1.375-1.375A1.375,1.375,0,0,1,5.156,27.844Z" fill="none" stroke="#147391" stroke-miterlimit="10" stroke-width="0.688"/>
    <path id="circle42" d="M13.406,27.844a1.375,1.375,0,1,1-1.375-1.375A1.375,1.375,0,0,1,13.406,27.844Z" fill="none" stroke="#147391" stroke-miterlimit="10" stroke-width="0.688"/>
    <path id="circle44" d="M5.156,9.969A1.375,1.375,0,1,1,3.781,8.594,1.375,1.375,0,0,1,5.156,9.969Z" fill="none" stroke="#147391" stroke-miterlimit="10" stroke-width="0.688"/>
    <path id="circle46" d="M5.156,5.844A1.375,1.375,0,1,1,3.781,4.469,1.375,1.375,0,0,1,5.156,5.844Z" fill="none" stroke="#147391" stroke-miterlimit="10" stroke-width="0.688"/>
    <path id="polyline48" d="M20.281,12.719h5.5l4.125-4.125V5.156" fill="none" stroke="#147391" stroke-linejoin="round" stroke-width="0.688"/>
    <path id="polyline50" d="M29.219,22.344v-2.75l-2.75-2.75H20.281" fill="none" stroke="#147391" stroke-linejoin="round" stroke-width="0.688"/>
    <path id="circle52" d="M31.281,3.781a1.375,1.375,0,1,1-1.375-1.375A1.374,1.374,0,0,1,31.281,3.781Z" fill="none" stroke="#147391" stroke-miterlimit="10" stroke-width="0.688"/>
    <path id="polyline54" d="M20.281,8.594h3.438l2.062-2.063V5.156" fill="none" stroke="#147391" stroke-linejoin="round" stroke-width="0.688"/>
    <path id="circle56" d="M27.156,3.781a1.375,1.375,0,1,1-1.375-1.375A1.374,1.374,0,0,1,27.156,3.781Z" fill="none" stroke="#147391" stroke-miterlimit="10" stroke-width="0.688"/>
    <path id="circle58" d="M30.594,23.719a1.375,1.375,0,1,1-1.375-1.375A1.376,1.376,0,0,1,30.594,23.719Z" fill="none" stroke="#147391" stroke-miterlimit="10" stroke-width="0.688"/>
    <path id="circle60" d="M10.656,22.344a1.375,1.375,0,1,1-1.375-1.375A1.375,1.375,0,0,1,10.656,22.344Z" fill="none" stroke="#147391" stroke-miterlimit="10" stroke-width="0.688"/>
    <path id="circle62" d="M20.281,27.844a1.375,1.375,0,1,1-1.375-1.375A1.375,1.375,0,0,1,20.281,27.844Z" fill="none" stroke="#147391" stroke-miterlimit="10" stroke-width="0.688"/>
    <path id="polyline64" d="M17.934,26.872l-4.528-4.528h-2.75" fill="none" stroke="#147391" stroke-linejoin="round" stroke-width="0.688"/>
    <path id="rect66" d="M18.906,7.906h1.375V9.281H18.906Z" fill="none" stroke="#147391" stroke-miterlimit="10" stroke-width="0.688"/>
    <path id="rect68" d="M18.906,12.031h1.375v1.375H18.906Z" fill="none" stroke="#147391" stroke-miterlimit="10" stroke-width="0.688"/>
    <path id="rect70" d="M18.906,16.156h1.375v1.375H18.906Z" fill="none" stroke="#147391" stroke-miterlimit="10" stroke-width="0.688"/>
    <path id="line72" d="M5.156,27.844h5.5" fill="none" stroke="#147391" stroke-linejoin="round" stroke-width="0.688"/>
    <path id="circle74" d="M25.781,20.281a1.375,1.375,0,1,1-1.375-1.375A1.374,1.374,0,0,1,25.781,20.281Z" fill="none" stroke="#147391" stroke-miterlimit="10" stroke-width="0.688"/>
    <path id="circle76" d="M25.781,27.844a1.375,1.375,0,1,1-1.375-1.375A1.375,1.375,0,0,1,25.781,27.844Z" fill="none" stroke="#147391" stroke-miterlimit="10" stroke-width="0.688"/>
    <path id="line78" d="M24.406,21.656v4.813" fill="none" stroke="#147391" stroke-linejoin="round" stroke-width="0.688"/>
    <path id="path22-7" d="M29.219,11.344a3.438,3.438,0,0,1-6.875,0H15.469l-4.125,4.125V43.656H43.656V11.344Z" stroke="#464646" stroke-miterlimit="10" stroke-width="0.688" fill="url(#linear-gradient-3)"/>
    <path id="rect24-8" d="M20.969,18.219h8.937v11H20.969Z" stroke="#147391" stroke-miterlimit="10" stroke-width="0.688" fill="url(#linear-gradient-4)"/>
    <path id="polyline26-7" d="M19.594,19.594H17.531l-1.718-1.719" fill="none" stroke="#147391" stroke-linejoin="round" stroke-width="0.688"/>
    <path id="polyline28-1" d="M19.594,27.844H17.531l-2.75,2.75v1.375" fill="none" stroke="#147391" stroke-linejoin="round" stroke-width="0.688"/>
    <path id="polyline30-6" d="M19.594,23.719H17.531L15.813,22" fill="none" stroke="#147391" stroke-linejoin="round" stroke-width="0.688"/>
    <path id="rect32-0" d="M19.594,18.906h1.375v1.375H19.594Z" fill="none" stroke="#147391" stroke-miterlimit="10" stroke-width="0.688"/>
    <path id="rect34-2" d="M19.594,23.031h1.375v1.375H19.594Z" fill="none" stroke="#147391" stroke-miterlimit="10" stroke-width="0.688"/>
    <path id="rect36-3" d="M19.594,27.156h1.375v1.375H19.594Z" fill="none" stroke="#147391" stroke-miterlimit="10" stroke-width="0.688"/>
    <path id="circle38-7" d="M16.156,33.344a1.375,1.375,0,1,1-1.375-1.375A1.375,1.375,0,0,1,16.156,33.344Z" fill="none" stroke="#147391" stroke-miterlimit="10" stroke-width="0.688"/>
    <path id="circle40-6" d="M16.156,38.844a1.375,1.375,0,0,1-1.375,1.375h0a1.376,1.376,0,0,1-1.375-1.375h0a1.375,1.375,0,0,1,1.375-1.375h0a1.374,1.374,0,0,1,1.375,1.375Z" fill="none" stroke="#147391" stroke-miterlimit="10" stroke-width="0.688"/>
    <path id="circle42-8" d="M24.406,38.844a1.375,1.375,0,0,1-1.375,1.375h0a1.376,1.376,0,0,1-1.375-1.375h0a1.375,1.375,0,0,1,1.375-1.375h0a1.374,1.374,0,0,1,1.375,1.375Z" fill="none" stroke="#147391" stroke-miterlimit="10" stroke-width="0.688"/>
    <path id="circle44-6" d="M16.156,20.969a1.375,1.375,0,1,1-1.375-1.375A1.375,1.375,0,0,1,16.156,20.969Z" fill="none" stroke="#147391" stroke-miterlimit="10" stroke-width="0.688"/>
    <path id="circle46-6" d="M16.156,16.844a1.375,1.375,0,1,1-1.375-1.375A1.375,1.375,0,0,1,16.156,16.844Z" fill="none" stroke="#147391" stroke-miterlimit="10" stroke-width="0.688"/>
    <path id="polyline48-1" d="M31.281,23.719h5.5l4.125-4.125V16.156" fill="none" stroke="#147391" stroke-linejoin="round" stroke-width="0.688"/>
    <path id="polyline50-7" d="M40.219,33.344v-2.75l-2.75-2.75H31.281" fill="none" stroke="#147391" stroke-linejoin="round" stroke-width="0.688"/>
    <path id="circle52-1" d="M42.281,14.781a1.375,1.375,0,1,1-1.375-1.375A1.374,1.374,0,0,1,42.281,14.781Z" fill="none" stroke="#147391" stroke-miterlimit="10" stroke-width="0.688"/>
    <path id="polyline54-9" d="M31.281,19.594h3.438l2.062-2.063V16.156" fill="none" stroke="#147391" stroke-linejoin="round" stroke-width="0.688"/>
    <path id="circle56-0" d="M38.156,14.781a1.375,1.375,0,1,1-1.375-1.375A1.374,1.374,0,0,1,38.156,14.781Z" fill="none" stroke="#147391" stroke-miterlimit="10" stroke-width="0.688"/>
    <path id="circle58-0" d="M41.594,34.719a1.375,1.375,0,1,1-1.375-1.375A1.376,1.376,0,0,1,41.594,34.719Z" fill="none" stroke="#147391" stroke-miterlimit="10" stroke-width="0.688"/>
    <path id="circle60-7" d="M21.656,33.344a1.375,1.375,0,1,1-1.375-1.375A1.375,1.375,0,0,1,21.656,33.344Z" fill="none" stroke="#147391" stroke-miterlimit="10" stroke-width="0.688"/>
    <path id="circle62-5" d="M31.281,38.844a1.375,1.375,0,0,1-1.375,1.375h0a1.376,1.376,0,0,1-1.375-1.375h0a1.375,1.375,0,0,1,1.375-1.375h0a1.374,1.374,0,0,1,1.375,1.375Z" fill="none" stroke="#147391" stroke-miterlimit="10" stroke-width="0.688"/>
    <path id="polyline64-8" d="M28.934,37.872l-4.528-4.528h-2.75" fill="none" stroke="#147391" stroke-linejoin="round" stroke-width="0.688"/>
    <path id="rect66-7" d="M29.906,18.906h1.375v1.375H29.906Z" fill="none" stroke="#147391" stroke-miterlimit="10" stroke-width="0.688"/>
    <path id="rect68-0" d="M29.906,23.031h1.375v1.375H29.906Z" fill="none" stroke="#147391" stroke-miterlimit="10" stroke-width="0.688"/>
    <path id="rect70-0" d="M29.906,27.156h1.375v1.375H29.906Z" fill="none" stroke="#147391" stroke-miterlimit="10" stroke-width="0.688"/>
    <path id="line72-8" d="M16.156,38.844h5.5" fill="none" stroke="#147391" stroke-linejoin="round" stroke-width="0.688"/>
    <path id="circle74-5" d="M36.781,31.281a1.374,1.374,0,0,1-1.375,1.375h0a1.375,1.375,0,0,1-1.375-1.375h0a1.375,1.375,0,0,1,2.75,0Z" fill="none" stroke="#147391" stroke-miterlimit="10" stroke-width="0.688"/>
    <path id="circle76-2" d="M36.781,38.844a1.375,1.375,0,0,1-1.375,1.375h0a1.376,1.376,0,0,1-1.375-1.375h0a1.375,1.375,0,0,1,1.375-1.375h0a1.374,1.374,0,0,1,1.375,1.375Z" fill="none" stroke="#147391" stroke-miterlimit="10" stroke-width="0.688"/>
    <path id="line78-9" d="M35.406,32.656v4.813" fill="none" stroke="#147391" stroke-linejoin="round" stroke-width="0.688"/>
    <g id="g46">
      <path id="circle42-4" d="M47.037,35A12.037,12.037,0,0,1,35,47.037h0A12.037,12.037,0,0,1,22.963,35h0A12.037,12.037,0,0,1,35,22.963h0A12.037,12.037,0,0,1,47.037,35Z" fill="url(#linear-gradient-5)"/>
      <path id="path44" d="M35,48A13,13,0,1,1,48,35,13,13,0,0,1,35,48Zm0-25.037A12.037,12.037,0,1,0,47.038,35,12.036,12.036,0,0,0,35,22.963Z" fill="#3f4143"/>
    </g>
    <g id="g52">
      <path id="polygon48" d="M40.793,27.492l-8.677,8.676V33.69H28.4v8.677h8.676V38.649H34.6l8.676-8.676Z" fill="#fff"/>
      <path id="path50" d="M37.694,42.985H27.778V33.07h4.958v1.6l8.06-8.06,3.353,3.361-8.06,8.06h1.6ZM29.02,41.746h7.437V39.267H33.1l9.3-9.294-1.6-1.6-9.3,9.294V34.307H29.02Z" fill="#1f7690"/>
    </g>
  </g>
</svg>
