<svg id="Layer_1" data-name="Layer 1" xmlns="http://www.w3.org/2000/svg" xmlns:xlink="http://www.w3.org/1999/xlink" viewBox="0 0 48 48">
  <defs>
    <linearGradient id="linear-gradient" x1="383.167" y1="-453.167" x2="408.167" y2="-478.167" gradientTransform="matrix(0.429, 0, 0, -0.429, -145.571, -186.571)" gradientUnits="userSpaceOnUse">
      <stop offset="0" stop-color="#fff"/>
      <stop offset="0.221" stop-color="#f8f8f8"/>
      <stop offset="0.541" stop-color="#e5e5e5"/>
      <stop offset="0.92" stop-color="#c6c6c6"/>
      <stop offset="1" stop-color="#bebebe"/>
    </linearGradient>
    <linearGradient id="linear-gradient-2" x1="22.044" y1="38.791" x2="27.354" y2="33.93" gradientTransform="matrix(1, 0, 0, -1, 0, 50)" gradientUnits="userSpaceOnUse">
      <stop offset="0" stop-color="#73b4c8"/>
      <stop offset="0.175" stop-color="#6aaec3"/>
      <stop offset="0.457" stop-color="#529eb5"/>
      <stop offset="0.809" stop-color="#2c839f"/>
      <stop offset="1" stop-color="#147391"/>
    </linearGradient>
    <linearGradient id="linear-gradient-3" x1="0.275" y1="50.049" x2="47.187" y2="2.496" xlink:href="#linear-gradient-2"/>
    <linearGradient id="linear-gradient-4" x1="383.167" y1="-453.167" x2="408.167" y2="-478.167" gradientTransform="matrix(0.429, 0, 0, -0.429, -145.571, -163.571)" xlink:href="#linear-gradient"/>
    <linearGradient id="linear-gradient-5" x1="391.224" y1="-461.461" x2="402.853" y2="-472.47" gradientTransform="matrix(0.429, 0, 0, -0.429, -145.571, -163.571)" xlink:href="#linear-gradient-2"/>
  </defs>
  <g id="g1054">
    <path id="rect29" d="M18.643,7.643H29.357V18.357H18.643Z" stroke="#464646" stroke-miterlimit="10" stroke-width="0.429" fill="url(#linear-gradient)"/>
    <path id="rect31" d="M20.786,10.214h6.428v5.572H20.786Z" stroke="#464646" stroke-miterlimit="10" stroke-width="0.429" fill="url(#linear-gradient-2)"/>
    <path id="_Rectangle_" data-name=" Rectangle " d="M15.458,6.875h20v20h-20Z" fill="none"/>
    <path id="line48" d="M19.714,4V7" fill="none" stroke="#969696" stroke-miterlimit="10" stroke-width="0.857"/>
    <path id="line50" d="M21.857,4V7" fill="none" stroke="#969696" stroke-miterlimit="10" stroke-width="0.857"/>
    <path id="line52" d="M24,4V7" fill="none" stroke="#969696" stroke-miterlimit="10" stroke-width="0.857"/>
    <path id="line54" d="M19.286,19v3" fill="none" stroke="#969696" stroke-miterlimit="10" stroke-width="0.857"/>
    <path id="line56" d="M21.429,19v3" fill="none" stroke="#969696" stroke-miterlimit="10" stroke-width="0.857"/>
    <path id="line58" d="M23.571,19v3" fill="none" stroke="#969696" stroke-miterlimit="10" stroke-width="0.857"/>
    <path id="line60" d="M26.143,4V7" fill="none" stroke="#969696" stroke-miterlimit="10" stroke-width="0.857"/>
    <path id="line62" d="M28.286,4V7" fill="none" stroke="#969696" stroke-miterlimit="10" stroke-width="0.857"/>
    <path id="line64" d="M19.714,4V7" fill="none" stroke="#969696" stroke-miterlimit="10" stroke-width="0.857"/>
    <path id="line66" d="M21.857,4V7" fill="none" stroke="#969696" stroke-miterlimit="10" stroke-width="0.857"/>
    <path id="line68" d="M24,4V7" fill="none" stroke="#969696" stroke-miterlimit="10" stroke-width="0.857"/>
    <path id="line70" d="M26.143,4V7" fill="none" stroke="#969696" stroke-miterlimit="10" stroke-width="0.857"/>
    <path id="line72" d="M28.286,4V7" fill="none" stroke="#969696" stroke-miterlimit="10" stroke-width="0.857"/>
    <path id="line74" d="M15,17.286h3" fill="none" stroke="#969696" stroke-miterlimit="10" stroke-width="0.857"/>
    <path id="line76" d="M15,15.143h3" fill="none" stroke="#969696" stroke-miterlimit="10" stroke-width="0.857"/>
    <path id="line78" d="M15,13h3" fill="none" stroke="#969696" stroke-miterlimit="10" stroke-width="0.857"/>
    <path id="line80" d="M15,10.857h3" fill="none" stroke="#969696" stroke-miterlimit="10" stroke-width="0.857"/>
    <path id="line82" d="M15,8.714h3" fill="none" stroke="#969696" stroke-miterlimit="10" stroke-width="0.857"/>
    <path id="line84" d="M15,17.286h3" fill="none" stroke="#969696" stroke-miterlimit="10" stroke-width="0.857"/>
    <path id="line86" d="M15,15.143h3" fill="none" stroke="#969696" stroke-miterlimit="10" stroke-width="0.857"/>
    <path id="line88" d="M15,13h3" fill="none" stroke="#969696" stroke-miterlimit="10" stroke-width="0.857"/>
    <path id="line90" d="M15,10.857h3" fill="none" stroke="#969696" stroke-miterlimit="10" stroke-width="0.857"/>
    <path id="line92" d="M15,8.714h3" fill="none" stroke="#969696" stroke-miterlimit="10" stroke-width="0.857"/>
    <path id="line94" d="M30,13h3" fill="none" stroke="#969696" stroke-miterlimit="10" stroke-width="0.857"/>
    <path id="line96" d="M30,10.857h3" fill="none" stroke="#969696" stroke-miterlimit="10" stroke-width="0.857"/>
    <path id="line98" d="M30,8.714h3" fill="none" stroke="#969696" stroke-miterlimit="10" stroke-width="0.857"/>
    <path id="line100" d="M30,13h3" fill="none" stroke="#969696" stroke-miterlimit="10" stroke-width="0.857"/>
    <path id="line102" d="M30,10.857h3" fill="none" stroke="#969696" stroke-miterlimit="10" stroke-width="0.857"/>
    <path id="line104" d="M30,8.714h3" fill="none" stroke="#969696" stroke-miterlimit="10" stroke-width="0.857"/>
    <path id="line70-1" d="M25.87,19v3" fill="none" stroke="#969696" stroke-miterlimit="10" stroke-width="0.857"/>
    <path id="line72-0" d="M28.286,19v3" fill="none" stroke="#969696" stroke-miterlimit="10" stroke-width="0.857"/>
    <path id="line84-6" d="M30,17.286h3" fill="none" stroke="#969696" stroke-miterlimit="10" stroke-width="0.857"/>
    <path id="line86-4" d="M30,15.143h3" fill="none" stroke="#969696" stroke-miterlimit="10" stroke-width="0.857"/>
    <path id="rect968" d="M0,0V48H48V0H0ZM2,2H5V5H2ZM43,2h3V5H43ZM7,3H41V23H7ZM2,8H5v3H2ZM43,8h3v3H43ZM2,14H5v3H2Zm41,0h3v3H43ZM2,20H5v3H2Zm41,0h3v3H43ZM2,26H5v3H2Zm5,0H41V46H7Zm36,0h3v3H43ZM2,32H5v3H2Zm41,0h3v3H43ZM2,38H5v3H2Zm41,0h3v3H43ZM2,44H5v3H2Zm41,0h3v3H43Z" fill="url(#linear-gradient-3)"/>
    <path id="rect29-5" d="M18.643,30.643H29.357V41.357H18.643Z" stroke="#464646" stroke-miterlimit="10" stroke-width="0.429" fill="url(#linear-gradient-4)"/>
    <path id="rect31-1" d="M20.786,33.214h6.428v5.572H20.786Z" stroke="#464646" stroke-miterlimit="10" stroke-width="0.429" fill="url(#linear-gradient-5)"/>
    <path id="line48-1" d="M19.714,27v3" fill="none" stroke="#969696" stroke-miterlimit="10" stroke-width="0.857"/>
    <path id="line50-4" d="M21.857,27v3" fill="none" stroke="#969696" stroke-miterlimit="10" stroke-width="0.857"/>
    <path id="line52-1" d="M24,27v3" fill="none" stroke="#969696" stroke-miterlimit="10" stroke-width="0.857"/>
    <path id="line54-7" d="M19.286,42v3" fill="none" stroke="#969696" stroke-miterlimit="10" stroke-width="0.857"/>
    <path id="line56-0" d="M21.429,42v3" fill="none" stroke="#969696" stroke-miterlimit="10" stroke-width="0.857"/>
    <path id="line58-5" d="M23.571,42v3" fill="none" stroke="#969696" stroke-miterlimit="10" stroke-width="0.857"/>
    <path id="line60-7" d="M26.143,27v3" fill="none" stroke="#969696" stroke-miterlimit="10" stroke-width="0.857"/>
    <path id="line62-3" d="M28.286,27v3" fill="none" stroke="#969696" stroke-miterlimit="10" stroke-width="0.857"/>
    <path id="line64-0" d="M19.714,27v3" fill="none" stroke="#969696" stroke-miterlimit="10" stroke-width="0.857"/>
    <path id="line66-4" d="M21.857,27v3" fill="none" stroke="#969696" stroke-miterlimit="10" stroke-width="0.857"/>
    <path id="line68-1" d="M24,27v3" fill="none" stroke="#969696" stroke-miterlimit="10" stroke-width="0.857"/>
    <path id="line70-7" d="M26.143,27v3" fill="none" stroke="#969696" stroke-miterlimit="10" stroke-width="0.857"/>
    <path id="line72-9" d="M28.286,27v3" fill="none" stroke="#969696" stroke-miterlimit="10" stroke-width="0.857"/>
    <path id="line74-1" d="M15,40.286h3" fill="none" stroke="#969696" stroke-miterlimit="10" stroke-width="0.857"/>
    <path id="line76-4" d="M15,38.143h3" fill="none" stroke="#969696" stroke-miterlimit="10" stroke-width="0.857"/>
    <path id="line78-0" d="M15,36h3" fill="none" stroke="#969696" stroke-miterlimit="10" stroke-width="0.857"/>
    <path id="line80-4" d="M15,33.857h3" fill="none" stroke="#969696" stroke-miterlimit="10" stroke-width="0.857"/>
    <path id="line82-6" d="M15,31.714h3" fill="none" stroke="#969696" stroke-miterlimit="10" stroke-width="0.857"/>
    <path id="line84-4" d="M15,40.286h3" fill="none" stroke="#969696" stroke-miterlimit="10" stroke-width="0.857"/>
    <path id="line86-8" d="M15,38.143h3" fill="none" stroke="#969696" stroke-miterlimit="10" stroke-width="0.857"/>
    <path id="line88-7" d="M15,36h3" fill="none" stroke="#969696" stroke-miterlimit="10" stroke-width="0.857"/>
    <path id="line90-3" d="M15,33.857h3" fill="none" stroke="#969696" stroke-miterlimit="10" stroke-width="0.857"/>
    <path id="line92-9" d="M15,31.714h3" fill="none" stroke="#969696" stroke-miterlimit="10" stroke-width="0.857"/>
    <path id="line94-8" d="M30,36h3" fill="none" stroke="#969696" stroke-miterlimit="10" stroke-width="0.857"/>
    <path id="line96-5" d="M30,33.857h3" fill="none" stroke="#969696" stroke-miterlimit="10" stroke-width="0.857"/>
    <path id="line98-3" d="M30,31.714h3" fill="none" stroke="#969696" stroke-miterlimit="10" stroke-width="0.857"/>
    <path id="line100-4" d="M30,36h3" fill="none" stroke="#969696" stroke-miterlimit="10" stroke-width="0.857"/>
    <path id="line102-1" d="M30,33.857h3" fill="none" stroke="#969696" stroke-miterlimit="10" stroke-width="0.857"/>
    <path id="line104-2" d="M30,31.714h3" fill="none" stroke="#969696" stroke-miterlimit="10" stroke-width="0.857"/>
    <path id="line70-1-3" d="M25.87,42v3" fill="none" stroke="#969696" stroke-miterlimit="10" stroke-width="0.857"/>
    <path id="line72-0-1" d="M28.286,42v3" fill="none" stroke="#969696" stroke-miterlimit="10" stroke-width="0.857"/>
    <path id="line84-6-1" d="M30,40.286h3" fill="none" stroke="#969696" stroke-miterlimit="10" stroke-width="0.857"/>
    <path id="line86-4-3" d="M30,38.143h3" fill="none" stroke="#969696" stroke-miterlimit="10" stroke-width="0.857"/>
  </g>
</svg>
