<svg version="1.1"
	 id="Layer_1" xmlns:dc="http://purl.org/dc/elements/1.1/" xmlns:inkscape="http://www.inkscape.org/namespaces/inkscape" xmlns:rdf="http://www.w3.org/1999/02/22-rdf-syntax-ns#" xmlns:cc="http://creativecommons.org/ns#" xmlns:svg="http://www.w3.org/2000/svg" xmlns:sodipodi="http://sodipodi.sourceforge.net/DTD/sodipodi-0.dtd" inkscape:version="0.92.4 (5da689c313, 2019-01-14)" sodipodi:docname="typeRevision48.svg"
	 xmlns="http://www.w3.org/2000/svg" xmlns:xlink="http://www.w3.org/1999/xlink" x="0px" y="0px" 
	 viewBox="0 0 48 48" enable-background="new 0 0 48 48" xml:space="preserve">
<linearGradient id="path22-7_1_" gradientUnits="userSpaceOnUse" x1="343.9033" y1="-455.3096" x2="387.9034" y2="-499.3097" gradientTransform="matrix(0.8032 0 0 -0.7926 -273.403 -358.1979)">
	<stop  offset="0" style="stop-color:#FFFFFF"/>
	<stop  offset="0.248" style="stop-color:#F8F8F8"/>
	<stop  offset="0.606" style="stop-color:#E5E5E5"/>
	<stop  offset="1" style="stop-color:#C8C8C8"/>
</linearGradient>
<path id="path22-7" inkscape:connector-curvature="0" fill="url(#path22-7_1_)" stroke="#464646" stroke-miterlimit="10" d="
	M21.291,0.281c-0.001,2.188-1.8,3.962-4.018,3.96c-2.216-0.001-4.013-1.773-4.014-3.96H5.228L0.408,5.037v32.495h37.75V0.281H21.291
	z"/>
<linearGradient id="rect24-8_1_" gradientUnits="userSpaceOnUse" x1="354.1533" y1="-463.0601" x2="368.6531" y2="-477.5599" gradientTransform="matrix(0.8032 0 0 -0.7926 -273.403 -358.1979)">
	<stop  offset="0" style="stop-color:#73B4C8"/>
	<stop  offset="0.175" style="stop-color:#6AAEC3"/>
	<stop  offset="0.457" style="stop-color:#529EB5"/>
	<stop  offset="0.809" style="stop-color:#2C839F"/>
	<stop  offset="1" style="stop-color:#147391"/>
</linearGradient>
<path id="rect24-8" fill="url(#rect24-8_1_)" stroke="#147391" stroke-width="0.7979" stroke-miterlimit="10" d="M11.653,8.207
	h10.441v12.681H11.653V8.207z"/>
<path id="polyline26-7" fill="none" stroke="#147391" stroke-linejoin="round" d="M10.046,9.792h-2.41L5.629,7.811"/>
<path id="polyline28-1" fill="none" stroke="#147391" stroke-linejoin="round" d="M10.046,19.303h-2.41l-3.212,3.17v1.585"/>
<path id="polyline30-6" fill="none" stroke="#147391" stroke-linejoin="round" d="M10.046,14.547h-2.41l-2.008-1.981"/>
<path id="rect32-0" fill="none" stroke="#147391" stroke-width="0.7979" stroke-miterlimit="10" d="M10.046,9h1.606v1.585h-1.606V9z
	"/>
<path id="rect34-2" fill="none" stroke="#147391" stroke-width="0.7979" stroke-miterlimit="10" d="M10.046,13.755h1.606v1.585
	h-1.606V13.755z"/>
<path id="rect36-3" fill="none" stroke="#147391" stroke-width="0.7979" stroke-miterlimit="10" d="M10.046,18.51h1.606v1.585
	h-1.606V18.51z"/>
<path id="circle38-7" fill="none" stroke="#147391" stroke-width="0.7979" stroke-miterlimit="10" d="M6.031,25.643
	c0,0.876-0.719,1.586-1.606,1.586s-1.606-0.71-1.606-1.586c0-0.875,0.719-1.585,1.606-1.585l0,0
	C5.312,24.058,6.031,24.768,6.031,25.643L6.031,25.643z"/>
<path id="circle40-6" fill="none" stroke="#147391" stroke-width="0.7979" stroke-miterlimit="10" d="M6.031,31.983
	c0,0.876-0.719,1.585-1.606,1.585l0,0c-0.887,0-1.606-0.709-1.606-1.585l0,0c0-0.876,0.719-1.585,1.606-1.585
	S6.031,31.107,6.031,31.983z"/>
<path id="circle42-8" fill="none" stroke="#147391" stroke-width="0.7979" stroke-miterlimit="10" d="M15.669,31.983
	c0,0.876-0.719,1.585-1.606,1.585l0,0c-0.887,0-1.606-0.709-1.606-1.585l0,0c0-0.876,0.719-1.585,1.606-1.585
	S15.669,31.107,15.669,31.983z"/>
<path id="circle44-6" fill="none" stroke="#147391" stroke-width="0.7979" stroke-miterlimit="10" d="M6.031,11.377
	c0,0.875-0.719,1.585-1.606,1.585l0,0c-0.887,0-1.606-0.709-1.606-1.585l0,0c0-0.875,0.719-1.585,1.606-1.585
	S6.031,10.501,6.031,11.377z"/>
<path id="circle46-6" fill="none" stroke="#147391" stroke-width="0.7979" stroke-miterlimit="10" d="M6.031,6.622
	c0,0.875-0.719,1.585-1.606,1.585s-1.606-0.71-1.606-1.585s0.719-1.585,1.606-1.585S6.031,5.746,6.031,6.622z"/>
<path id="polyline48-1" fill="none" stroke="#147391" stroke-linejoin="round" d="M23.701,14.547h6.426l4.818-4.755V5.829"/>
<path id="polyline50-7" fill="none" stroke="#147391" stroke-linejoin="round" d="M34.143,25.643v-3.17l-3.213-3.17h-7.229"/>
<path id="circle52-1" fill="none" stroke="#147391" stroke-width="0.7979" stroke-miterlimit="10" d="M36.552,4.244
	c0,0.875-0.72,1.585-1.606,1.585l0,0c-0.887,0-1.606-0.709-1.606-1.585l0,0c0-0.875,0.72-1.585,1.606-1.585l0,0
	C35.832,2.659,36.552,3.369,36.552,4.244L36.552,4.244z"/>
<path id="polyline54-9" fill="none" stroke="#147391" stroke-linejoin="round" d="M23.701,9.792h4.016l2.41-2.378V5.829"/>
<path id="circle56-0" fill="none" stroke="#147391" stroke-width="0.7979" stroke-miterlimit="10" d="M31.732,4.244
	c0,0.875-0.719,1.585-1.605,1.585c-0.888,0-1.607-0.709-1.607-1.585l0,0c0-0.875,0.72-1.585,1.607-1.585l0,0
	C31.014,2.659,31.732,3.369,31.732,4.244z"/>
<path id="circle58-0" fill="none" stroke="#147391" stroke-width="0.7979" stroke-miterlimit="10" d="M35.748,27.229
	c0,0.875-0.719,1.584-1.605,1.584l0,0c-0.888,0-1.607-0.709-1.607-1.584l0,0c0-0.876,0.72-1.586,1.607-1.586l0,0
	C35.029,25.643,35.748,26.353,35.748,27.229L35.748,27.229z"/>
<path id="circle60-7" fill="none" stroke="#147391" stroke-width="0.7979" stroke-miterlimit="10" d="M12.456,25.643
	c0,0.876-0.719,1.586-1.606,1.586s-1.606-0.71-1.606-1.586c0-0.875,0.719-1.585,1.606-1.585l0,0
	C11.737,24.058,12.456,24.768,12.456,25.643L12.456,25.643z"/>
<path id="circle62-5" fill="none" stroke="#147391" stroke-width="0.7979" stroke-miterlimit="10" d="M23.701,31.983
	c0,0.876-0.719,1.585-1.606,1.585l0,0c-0.887,0-1.606-0.709-1.606-1.585l0,0c0-0.876,0.719-1.585,1.606-1.585
	S23.701,31.107,23.701,31.983z"/>
<path id="polyline64-8" fill="none" stroke="#147391" stroke-linejoin="round" d="M20.958,30.863l-5.29-5.221h-3.213"/>
<path id="rect66-7" fill="none" stroke="#147391" stroke-width="0.7979" stroke-miterlimit="10" d="M22.094,9h1.606v1.585h-1.606V9z
	"/>
<path id="rect68-0" fill="none" stroke="#147391" stroke-width="0.7979" stroke-miterlimit="10" d="M22.094,13.755h1.606v1.585
	h-1.606V13.755z"/>
<path id="rect70-0" fill="none" stroke="#147391" stroke-width="0.7979" stroke-miterlimit="10" d="M22.094,18.51h1.606v1.585
	h-1.606V18.51z"/>
<path id="line72-8" fill="none" stroke="#147391" stroke-width="0.7979" stroke-linejoin="round" d="M6.031,31.983h6.425"/>
<path id="circle74-5" fill="none" stroke="#147391" stroke-width="0.7979" stroke-miterlimit="10" d="M30.127,23.265
	c0,0.875-0.72,1.585-1.607,1.585c-0.887,0-1.605-0.71-1.605-1.585s0.719-1.585,1.605-1.585C29.407,21.68,30.127,22.39,30.127,23.265
	z"/>
<path id="circle76-2" fill="none" stroke="#147391" stroke-width="0.7979" stroke-miterlimit="10" d="M30.127,31.983
	c0,0.876-0.72,1.585-1.607,1.585l0,0c-0.887,0-1.605-0.709-1.605-1.585l0,0c0-0.876,0.719-1.585,1.605-1.585
	C29.407,30.398,30.127,31.107,30.127,31.983z"/>
<path id="line78-9" fill="none" stroke="#147391" stroke-width="0.7979" stroke-linejoin="round" d="M28.52,24.851v5.548"/>
<linearGradient id="polygon49_1_" gradientUnits="userSpaceOnUse" x1="478.7578" y1="-611.7324" x2="482.2712" y2="-615.2458" gradientTransform="matrix(0.6248 0 0 -0.6248 -255.4086 -346.928)">
	<stop  offset="0" style="stop-color:#7D7D7D"/>
	<stop  offset="1" style="stop-color:#B1B1B1"/>
</linearGradient>
<path id="polygon49" fill="url(#polygon49_1_)" stroke="#464646" stroke-linejoin="round" d="M43.844,35.204l1.249-0.853v3.994
	l-1.249-0.625V35.204z"/>
<linearGradient id="polygon51_1_" gradientUnits="userSpaceOnUse" x1="-292.1328" y1="-852.1997" x2="-292.918" y2="-859.9393" gradientTransform="matrix(0.3949 -0.4843 -0.4843 -0.3949 -257.3735 -444.4909)">
	<stop  offset="0" style="stop-color:#74B3C7"/>
	<stop  offset="0.177" style="stop-color:#6BADC2"/>
	<stop  offset="0.464" style="stop-color:#539DB4"/>
	<stop  offset="0.822" style="stop-color:#2D839D"/>
	<stop  offset="1" style="stop-color:#177490"/>
</linearGradient>
<path id="polygon51" fill="url(#polygon51_1_)" d="M47.592,28.975v3.748l-11.871,8.748v-3.748L47.592,28.975z"/>
<linearGradient id="polygon53_1_" gradientUnits="userSpaceOnUse" x1="-305.6616" y1="-820.958" x2="-309.0887" y2="-854.726" gradientTransform="matrix(0.3949 -0.4843 -0.4843 -0.3949 -257.3735 -444.4909)">
	<stop  offset="0" style="stop-color:#73B4C8"/>
	<stop  offset="0.175" style="stop-color:#6AAEC3"/>
	<stop  offset="0.457" style="stop-color:#529EB5"/>
	<stop  offset="0.809" style="stop-color:#2C839F"/>
	<stop  offset="1" style="stop-color:#147391"/>
</linearGradient>
<path id="polygon53" fill="url(#polygon53_1_)" d="M18.224,28.975l0.001,3.748l17.496,8.748v-3.748L18.224,28.975z"/>
<linearGradient id="polygon55_1_" gradientUnits="userSpaceOnUse" x1="-291.9448" y1="-822.354" x2="-295.3019" y2="-855.4184" gradientTransform="matrix(0.3949 -0.4843 -0.4843 -0.3949 -257.3735 -444.4909)">
	<stop  offset="0" style="stop-color:#74B3C7"/>
	<stop  offset="0.177" style="stop-color:#6BADC2"/>
	<stop  offset="0.464" style="stop-color:#539DB4"/>
	<stop  offset="0.822" style="stop-color:#2D839D"/>
	<stop  offset="1" style="stop-color:#177490"/>
</linearGradient>
<path id="polygon55" fill="url(#polygon55_1_)" d="M30.722,21.476l16.87,7.498l-11.871,8.747l-17.496-8.747L30.722,21.476z"/>
<linearGradient id="line57_1_" gradientUnits="userSpaceOnUse" x1="-222.6592" y1="-573.5483" x2="-223.0875" y2="-577.7714" gradientTransform="matrix(0.632 -0.775 -0.775 -0.632 -276.7451 -504.1295)">
	<stop  offset="0" style="stop-color:#73B4C8"/>
	<stop  offset="0.175" style="stop-color:#6AAEC3"/>
	<stop  offset="0.457" style="stop-color:#529EB5"/>
	<stop  offset="0.809" style="stop-color:#2C839F"/>
	<stop  offset="1" style="stop-color:#147391"/>
</linearGradient>
<path id="line57" fill="url(#line57_1_)" stroke="#147391" stroke-width="0.6248" stroke-linejoin="round" d="M35.721,41.471v-3.748
	"/>
<linearGradient id="line59_1_" gradientUnits="userSpaceOnUse" x1="-221.416" y1="-543.8311" x2="-224.415" y2="-573.3771" gradientTransform="matrix(0.632 -0.775 -0.775 -0.632 -276.7451 -504.1295)">
	<stop  offset="0" style="stop-color:#74B3C7"/>
	<stop  offset="0.177" style="stop-color:#6BADC2"/>
	<stop  offset="0.464" style="stop-color:#539DB4"/>
	<stop  offset="0.822" style="stop-color:#2D839D"/>
	<stop  offset="1" style="stop-color:#177490"/>
</linearGradient>
<path id="line59" fill="url(#line59_1_)" stroke="#147391" stroke-width="0.6317" stroke-linejoin="round" d="M35.721,37.721
	l-17.496-8.747"/>
<linearGradient id="line61_1_" gradientUnits="userSpaceOnUse" x1="-214.0879" y1="-574.4258" x2="-214.4449" y2="-577.9427" gradientTransform="matrix(0.632 -0.775 -0.775 -0.632 -276.7451 -504.1295)">
	<stop  offset="0" style="stop-color:#74B3C7"/>
	<stop  offset="0.177" style="stop-color:#6BADC2"/>
	<stop  offset="0.464" style="stop-color:#539DB4"/>
	<stop  offset="0.822" style="stop-color:#2D839D"/>
	<stop  offset="1" style="stop-color:#177490"/>
</linearGradient>
<path id="line61" fill="url(#line61_1_)" stroke="#147391" stroke-width="0.6317" stroke-linejoin="round" d="M47.592,28.974
	l-11.871,8.747"/>
<path id="polygon63" fill="none" stroke="#464646" stroke-width="1.011" stroke-linejoin="round" d="M18.225,28.974L18.225,28.974
	l0,3.749l17.496,8.748l11.871-8.748v-3.748v-0.001l-16.87-7.498L18.225,28.974z"/>
<linearGradient id="polygon65_1_" gradientUnits="userSpaceOnUse" x1="437.4229" y1="-609.0928" x2="446.9232" y2="-618.5931" gradientTransform="matrix(0.6248 0 0 -0.6248 -255.4086 -346.928)">
	<stop  offset="0" style="stop-color:#F2F2F2"/>
	<stop  offset="0.5" style="stop-color:#CCCCCC"/>
	<stop  offset="0.63" style="stop-color:#C7C7C7"/>
	<stop  offset="0.779" style="stop-color:#B9B9B9"/>
	<stop  offset="0.938" style="stop-color:#A2A2A2"/>
	<stop  offset="0.99" style="stop-color:#999999"/>
</linearGradient>
<path id="polygon65" fill="url(#polygon65_1_)" stroke="#464646" stroke-linejoin="round" d="M20.099,41.471v-4.022l-0.625-0.664
	v-4.687l0.938-0.313l2.5,1.25l-0.938,0.313v4.373l-0.625,0.313v4.063L20.099,41.471z"/>
<linearGradient id="polygon67_1_" gradientUnits="userSpaceOnUse" x1="443.4238" y1="-612.0928" x2="452.9228" y2="-621.5917" gradientTransform="matrix(0.6248 0 0 -0.6248 -255.4086 -346.928)">
	<stop  offset="0" style="stop-color:#F2F2F2"/>
	<stop  offset="0.5" style="stop-color:#CCCCCC"/>
	<stop  offset="0.63" style="stop-color:#C7C7C7"/>
	<stop  offset="0.779" style="stop-color:#B9B9B9"/>
	<stop  offset="0.938" style="stop-color:#A2A2A2"/>
	<stop  offset="0.99" style="stop-color:#999999"/>
</linearGradient>
<path id="polygon67" fill="url(#polygon67_1_)" stroke="#464646" stroke-linejoin="round" d="M23.848,43.345v-4.022l-0.625-0.664
	v-4.686l0.937-0.313l2.5,1.25l-0.938,0.313v4.373l-0.625,0.313v4.062L23.848,43.345z"/>
<linearGradient id="polygon69_1_" gradientUnits="userSpaceOnUse" x1="449.4229" y1="-615.0928" x2="458.9218" y2="-624.5917" gradientTransform="matrix(0.6248 0 0 -0.6248 -255.4086 -346.928)">
	<stop  offset="0" style="stop-color:#F2F2F2"/>
	<stop  offset="0.5" style="stop-color:#CCCCCC"/>
	<stop  offset="0.63" style="stop-color:#C7C7C7"/>
	<stop  offset="0.779" style="stop-color:#B9B9B9"/>
	<stop  offset="0.938" style="stop-color:#A2A2A2"/>
	<stop  offset="0.99" style="stop-color:#999999"/>
</linearGradient>
<path id="polygon69" fill="url(#polygon69_1_)" stroke="#464646" stroke-linejoin="round" d="M27.598,45.22v-4.022l-0.625-0.664
	v-4.687l0.938-0.313l2.499,1.25l-0.938,0.313v4.374l-0.624,0.313v4.061L27.598,45.22z"/>
<linearGradient id="polygon71_1_" gradientUnits="userSpaceOnUse" x1="455.4229" y1="-618.0928" x2="464.9218" y2="-627.5917" gradientTransform="matrix(0.6248 0 0 -0.6248 -255.4086 -346.928)">
	<stop  offset="0" style="stop-color:#F2F2F2"/>
	<stop  offset="0.5" style="stop-color:#CCCCCC"/>
	<stop  offset="0.63" style="stop-color:#C7C7C7"/>
	<stop  offset="0.779" style="stop-color:#B9B9B9"/>
	<stop  offset="0.938" style="stop-color:#A2A2A2"/>
	<stop  offset="0.99" style="stop-color:#999999"/>
</linearGradient>
<path id="polygon71" fill="url(#polygon71_1_)" stroke="#464646" stroke-linejoin="round" d="M31.346,47.094v-4.021l-0.624-0.664
	v-4.688l0.937-0.312l2.5,1.249l-0.938,0.313v4.374l-0.625,0.313v4.062L31.346,47.094z"/>
</svg>
