<svg id="Layer_1" data-name="Layer 1" xmlns="http://www.w3.org/2000/svg" xmlns:xlink="http://www.w3.org/1999/xlink" viewBox="0 0 48 48">
  <defs>
    <linearGradient id="linear-gradient" x1="2.989" y1="47.011" x2="38.5" y2="11.5" gradientTransform="matrix(1, 0, 0, -1, 0, 50)" gradientUnits="userSpaceOnUse">
      <stop offset="0" stop-color="#fff"/>
      <stop offset="0.248" stop-color="#f8f8f8"/>
      <stop offset="0.606" stop-color="#e5e5e5"/>
      <stop offset="1" stop-color="#c8c8c8"/>
    </linearGradient>
    <linearGradient id="linear-gradient-2" x1="11.25" y1="40.25" x2="22.75" y2="28.75" gradientTransform="matrix(1, 0, 0, -1, 0, 50)" gradientUnits="userSpaceOnUse">
      <stop offset="0" stop-color="#74b3c7"/>
      <stop offset="0.177" stop-color="#6badc2"/>
      <stop offset="0.464" stop-color="#539db4"/>
      <stop offset="0.822" stop-color="#2d839d"/>
      <stop offset="1" stop-color="#177490"/>
    </linearGradient>
    <linearGradient id="linear-gradient-3" x1="66.41" y1="-454.256" x2="86.052" y2="-473.898" gradientTransform="matrix(0.867, 0, 0, -0.867, -31.067, -367.2)" gradientUnits="userSpaceOnUse">
      <stop offset="0" stop-color="#6ab1c3"/>
      <stop offset="0.175" stop-color="#64acbe"/>
      <stop offset="0.457" stop-color="#509cb0"/>
      <stop offset="0.809" stop-color="#31849d"/>
      <stop offset="1" stop-color="#1f7690"/>
    </linearGradient>
  </defs>
  <g id="g923">
    <path id="path23" d="M22.074.5a4.149,4.149,0,0,1-8.3,0h-8.3L.5,5.479V38.5h38V.5Z" stroke="#464646" stroke-miterlimit="10" fill="url(#linear-gradient)"/>
    <path id="rect25" d="M12.5,8.5h9v14h-9Z" stroke="#147391" stroke-miterlimit="10" fill="url(#linear-gradient-2)"/>
    <path id="polyline27" d="M10.5,10.5H7.468L6,9" fill="none" stroke="#147391" stroke-linejoin="round"/>
    <path id="polyline29" d="M10.5,20.5H7.819L4.5,23.819V25.5" fill="none" stroke="#147391" stroke-linejoin="round"/>
    <path id="line31" d="M10.5,15.5h-4" fill="none" stroke="#147391" stroke-linejoin="round"/>
    <path id="rect33" d="M10.5,9.5h2v2h-2Z" fill="none" stroke="#147391" stroke-miterlimit="10"/>
    <path id="rect35" d="M10.5,14.5h2v2h-2Z" fill="none" stroke="#147391" stroke-miterlimit="10"/>
    <path id="rect37" d="M10.5,19.5h2v2h-2Z" fill="none" stroke="#147391" stroke-miterlimit="10"/>
    <path id="polyline39" d="M23.5,15.5h4.021L34.5,8.521V6.5" fill="none" stroke="#147391" stroke-linejoin="round"/>
    <path id="polyline41" d="M23.5,10.5h2.511L28.5,8.011V6.5" fill="none" stroke="#147391" stroke-linejoin="round"/>
    <path id="circle43" d="M30.5,4.5a2,2,0,1,1-2-2A2,2,0,0,1,30.5,4.5Z" fill="none" stroke="#147391" stroke-miterlimit="10"/>
    <path id="circle45" d="M6.5,7.5a2,2,0,1,1-2-2A2,2,0,0,1,6.5,7.5Z" fill="none" stroke="#147391" stroke-miterlimit="10"/>
    <path id="circle47" d="M6.5,15.5a2,2,0,1,1-2-2A2,2,0,0,1,6.5,15.5Z" fill="none" stroke="#147391" stroke-miterlimit="10"/>
    <path id="circle49" d="M6.5,27.5a2,2,0,1,1-2-2A2,2,0,0,1,6.5,27.5Z" fill="none" stroke="#147391" stroke-miterlimit="10"/>
    <path id="circle51" d="M13.5,27.5a2,2,0,1,1-2-2A2,2,0,0,1,13.5,27.5Z" fill="none" stroke="#147391" stroke-miterlimit="10"/>
    <path id="circle53" d="M24.5,34.5a2,2,0,1,1-2-2A2,2,0,0,1,24.5,34.5Z" fill="none" stroke="#147391" stroke-miterlimit="10"/>
    <path id="circle55" d="M6.5,34.5a2,2,0,1,1-2-2A2,2,0,0,1,6.5,34.5Z" fill="none" stroke="#147391" stroke-miterlimit="10"/>
    <path id="circle57" d="M16.5,34.5a2,2,0,1,1-2-2A2,2,0,0,1,16.5,34.5Z" fill="none" stroke="#147391" stroke-miterlimit="10"/>
    <path id="circle59" d="M36.5,4.5a2,2,0,1,1-2-2A2,2,0,0,1,36.5,4.5Z" fill="none" stroke="#147391" stroke-miterlimit="10"/>
    <path id="polyline61" d="M21,33l-5.5-5.5h-2" fill="none" stroke="#147391" stroke-linejoin="round"/>
    <path id="rect63" d="M21.5,9.5h2v2h-2Z" fill="none" stroke="#147391" stroke-miterlimit="10"/>
    <path id="rect65" d="M21.5,14.5h2v2h-2Z" fill="none" stroke="#147391" stroke-miterlimit="10"/>
    <path id="rect67" d="M21.5,19.5h2v2h-2Z" fill="none" stroke="#147391" stroke-miterlimit="10"/>
    <path id="line69" d="M6.5,34.5h6" fill="none" stroke="#147391" stroke-linejoin="round"/>
    <path id="line71" d="M23.5,20.5h7" fill="none" stroke="#147391" stroke-linejoin="round"/>
    <path id="circle73" d="M34.5,20.5a2,2,0,1,1-2-2A2,2,0,0,1,34.5,20.5Z" fill="none" stroke="#147391" stroke-miterlimit="10"/>
    <path id="circle42-5" d="M47.037,35A12.037,12.037,0,0,1,35,47.037h0A12.037,12.037,0,0,1,22.963,35h0A12.037,12.037,0,0,1,35,22.963h0A12.037,12.037,0,0,1,47.037,35Z" fill="url(#linear-gradient-3)"/>
    <path id="path44-9" d="M35,48A13,13,0,1,1,48,35,13,13,0,0,1,35,48Zm0-25.037A12.037,12.037,0,1,0,47.038,35,12.036,12.036,0,0,0,35,22.963Z" fill="#3f4143"/>
    <path id="path48-0-7-0-2" d="M40.842,27.6l-7.713,9.6-3.46-3.935-3.64,3.2,7.1,8.449L44.576,30.8Z" fill="#187491"/>
    <path id="polygon50-6-0-8-4" d="M33.131,42.841l-5.238-6.164,1.676-1.5,3.562,4.155,7.886-9.783L42.7,31.023Z" fill="#fff"/>
  </g>
</svg>
