<svg version="1.1"
	 id="Layer_1" xmlns:dc="http://purl.org/dc/elements/1.1/" xmlns:inkscape="http://www.inkscape.org/namespaces/inkscape" xmlns:rdf="http://www.w3.org/1999/02/22-rdf-syntax-ns#" xmlns:cc="http://creativecommons.org/ns#" xmlns:svg="http://www.w3.org/2000/svg" xmlns:sodipodi="http://sodipodi.sourceforge.net/DTD/sodipodi-0.dtd" inkscape:version="0.92.4 (5da689c313, 2019-01-14)" sodipodi:docname="typeChips48.svg"
	 xmlns="http://www.w3.org/2000/svg" xmlns:xlink="http://www.w3.org/1999/xlink" x="0px" y="0px" 
	 viewBox="0 0 48 48" enable-background="new 0 0 48 48" xml:space="preserve">
<linearGradient id="polygon30_1_" gradientUnits="userSpaceOnUse" x1="478.9053" y1="-611.6812" x2="482.4187" y2="-615.1946" gradientTransform="matrix(0.6248 0 0 -0.6248 -256.4086 -347.928)">
	<stop  offset="0" style="stop-color:#7D7D7D"/>
	<stop  offset="1" style="stop-color:#B1B1B1"/>
</linearGradient>
<path id="polygon30" fill="url(#polygon30_1_)" stroke="#464646" stroke-linejoin="round" d="M42.936,36.689v-2.517l1.249-0.853
	v3.994L42.936,36.689z"/>
<linearGradient id="polygon32_1_" gradientUnits="userSpaceOnUse" x1="-245.5098" y1="-874.3472" x2="-246.2951" y2="-882.0887" gradientTransform="matrix(0.3949 -0.4843 -0.4843 -0.3949 -287.4252 -431.697)">
	<stop  offset="0" style="stop-color:#F2F2F2"/>
	<stop  offset="0.5" style="stop-color:#CCCCCC"/>
	<stop  offset="0.63" style="stop-color:#C7C7C7"/>
	<stop  offset="0.779" style="stop-color:#B9B9B9"/>
	<stop  offset="0.938" style="stop-color:#A2A2A2"/>
	<stop  offset="0.99" style="stop-color:#999999"/>
</linearGradient>
<path id="polygon32" fill="url(#polygon32_1_)" d="M34.813,36.691l11.871-8.748v3.748l-11.871,8.748V36.691z"/>
<linearGradient id="polygon34_1_" gradientUnits="userSpaceOnUse" x1="-259.0391" y1="-843.1226" x2="-262.4662" y2="-876.8905" gradientTransform="matrix(0.3949 -0.4843 -0.4843 -0.3949 -287.4252 -431.697)">
	<stop  offset="0" style="stop-color:#B1B1B1"/>
	<stop  offset="1" style="stop-color:#7D7D7D"/>
</linearGradient>
<path id="polygon34" fill="url(#polygon34_1_)" d="M34.813,36.691l-17.497-8.748l0.001,3.748l17.496,8.748V36.691z"/>
<linearGradient id="polygon36_1_" gradientUnits="userSpaceOnUse" x1="-245.3223" y1="-844.5171" x2="-248.6785" y2="-877.5835" gradientTransform="matrix(0.3949 -0.4843 -0.4843 -0.3949 -287.4252 -431.697)">
	<stop  offset="0" style="stop-color:#F2F2F2"/>
	<stop  offset="0.5" style="stop-color:#CCCCCC"/>
	<stop  offset="0.63" style="stop-color:#C7C7C7"/>
	<stop  offset="0.779" style="stop-color:#B9B9B9"/>
	<stop  offset="0.938" style="stop-color:#A2A2A2"/>
	<stop  offset="0.99" style="stop-color:#999999"/>
</linearGradient>
<path id="polygon36" fill="url(#polygon36_1_)" d="M17.316,27.942l12.497-7.498l16.87,7.498l-11.871,8.747L17.316,27.942z"/>
<path id="line38" fill="none" stroke="#6E6E6E" stroke-width="0.6248" stroke-linejoin="round" d="M34.813,40.439v-3.748"/>
<path id="line40" fill="none" stroke="#6E6E6E" stroke-width="0.6317" stroke-linejoin="round" d="M34.813,36.689l-17.496-8.747"/>
<path id="line42" fill="none" stroke="#6E6E6E" stroke-width="0.6317" stroke-linejoin="round" d="M46.684,27.942l-11.871,8.747"/>
<path id="polygon44" fill="none" stroke="#464646" stroke-width="1.011" stroke-linejoin="round" d="M29.813,20.444l-12.497,7.498
	l0,0.001l0.001,3.748l17.496,8.748l11.871-8.748v-3.748v-0.001L29.813,20.444z"/>
<linearGradient id="polygon46_1_" gradientUnits="userSpaceOnUse" x1="-312.0186" y1="-811.21" x2="-302.5186" y2="-820.71" gradientTransform="matrix(0.3949 -0.4843 -0.4843 -0.3949 -287.4252 -431.697)">
	<stop  offset="0" style="stop-color:#F2F2F2"/>
	<stop  offset="0.5" style="stop-color:#CCCCCC"/>
	<stop  offset="0.63" style="stop-color:#C7C7C7"/>
	<stop  offset="0.779" style="stop-color:#B9B9B9"/>
	<stop  offset="0.938" style="stop-color:#A2A2A2"/>
	<stop  offset="0.99" style="stop-color:#999999"/>
</linearGradient>
<path id="polygon46" fill="url(#polygon46_1_)" stroke="#464646" stroke-linejoin="round" d="M20.441,41.064l-1.25-0.625v-4.023
	l-0.625-0.663v-4.687l0.938-0.313l2.5,1.25l-0.938,0.313v4.373l-0.625,0.313V41.064z"/>
<linearGradient id="polygon48_1_" gradientUnits="userSpaceOnUse" x1="-310.0581" y1="-818.2485" x2="-300.5581" y2="-827.7485" gradientTransform="matrix(0.3949 -0.4843 -0.4843 -0.3949 -287.4252 -431.697)">
	<stop  offset="0" style="stop-color:#F2F2F2"/>
	<stop  offset="0.5" style="stop-color:#CCCCCC"/>
	<stop  offset="0.63" style="stop-color:#C7C7C7"/>
	<stop  offset="0.779" style="stop-color:#B9B9B9"/>
	<stop  offset="0.938" style="stop-color:#A2A2A2"/>
	<stop  offset="0.99" style="stop-color:#999999"/>
</linearGradient>
<path id="polygon48" fill="url(#polygon48_1_)" stroke="#464646" stroke-linejoin="round" d="M24.19,42.938l-1.25-0.625v-4.022
	l-0.625-0.664v-4.686l0.937-0.313l2.5,1.25l-0.938,0.313v4.373l-0.625,0.313V42.938z"/>
<linearGradient id="polygon50_1_" gradientUnits="userSpaceOnUse" x1="-308.0898" y1="-825.2959" x2="-298.5914" y2="-834.7944" gradientTransform="matrix(0.3949 -0.4843 -0.4843 -0.3949 -287.4252 -431.697)">
	<stop  offset="0" style="stop-color:#F2F2F2"/>
	<stop  offset="0.5" style="stop-color:#CCCCCC"/>
	<stop  offset="0.63" style="stop-color:#C7C7C7"/>
	<stop  offset="0.779" style="stop-color:#B9B9B9"/>
	<stop  offset="0.938" style="stop-color:#A2A2A2"/>
	<stop  offset="0.99" style="stop-color:#999999"/>
</linearGradient>
<path id="polygon50" fill="url(#polygon50_1_)" stroke="#464646" stroke-linejoin="round" d="M27.939,44.813l-1.25-0.624v-4.022
	l-0.625-0.664v-4.687l0.938-0.313l2.499,1.25l-0.938,0.313v4.374l-0.624,0.313V44.813z"/>
<linearGradient id="polygon52_1_" gradientUnits="userSpaceOnUse" x1="-306.1436" y1="-832.3213" x2="-296.642" y2="-841.8228" gradientTransform="matrix(0.3949 -0.4843 -0.4843 -0.3949 -287.4252 -431.697)">
	<stop  offset="0" style="stop-color:#F2F2F2"/>
	<stop  offset="0.5" style="stop-color:#CCCCCC"/>
	<stop  offset="0.63" style="stop-color:#C7C7C7"/>
	<stop  offset="0.779" style="stop-color:#B9B9B9"/>
	<stop  offset="0.938" style="stop-color:#A2A2A2"/>
	<stop  offset="0.99" style="stop-color:#999999"/>
</linearGradient>
<path id="polygon52" fill="url(#polygon52_1_)" stroke="#464646" stroke-linejoin="round" d="M31.688,46.688l-1.25-0.625v-4.021
	l-0.624-0.664v-4.688l0.937-0.312l2.5,1.249l-0.938,0.313v4.374l-0.625,0.313V46.688z"/>
<linearGradient id="polygon30-6_1_" gradientUnits="userSpaceOnUse" x1="478.9043" y1="-611.6797" x2="482.4191" y2="-615.1945" gradientTransform="matrix(0.6248 0 0 -0.6248 -272.4086 -367.0286)">
	<stop  offset="0" style="stop-color:#7D7D7D"/>
	<stop  offset="1" style="stop-color:#B1B1B1"/>
</linearGradient>
<path id="polygon30-6" fill="url(#polygon30-6_1_)" stroke="#464646" stroke-linejoin="round" d="M26.936,15.073l1.249-0.853v3.995
	l-1.249-0.625V15.073z"/>
<linearGradient id="polygon32-3_1_" gradientUnits="userSpaceOnUse" x1="-245.5117" y1="-874.3506" x2="-246.2969" y2="-882.0901" gradientTransform="matrix(0.3949 -0.4843 -0.4843 -0.3949 -303.4252 -450.7975)">
	<stop  offset="0" style="stop-color:#F2F2F2"/>
	<stop  offset="0.5" style="stop-color:#CCCCCC"/>
	<stop  offset="0.63" style="stop-color:#C7C7C7"/>
	<stop  offset="0.779" style="stop-color:#B9B9B9"/>
	<stop  offset="0.938" style="stop-color:#A2A2A2"/>
	<stop  offset="0.99" style="stop-color:#999999"/>
</linearGradient>
<path id="polygon32-3" fill="url(#polygon32-3_1_)" d="M30.684,8.844v3.748l-11.872,8.748v-3.748L30.684,8.844z"/>
<linearGradient id="polygon34-5_1_" gradientUnits="userSpaceOnUse" x1="-259.0391" y1="-843.1226" x2="-262.4662" y2="-876.8905" gradientTransform="matrix(0.3949 -0.4843 -0.4843 -0.3949 -303.4252 -450.7975)">
	<stop  offset="0" style="stop-color:#B1B1B1"/>
	<stop  offset="1" style="stop-color:#7D7D7D"/>
</linearGradient>
<path id="polygon34-5" fill="url(#polygon34-5_1_)" d="M1.316,8.844l0.001,3.748l17.495,8.748v-3.748L1.316,8.844z"/>
<linearGradient id="polygon36-7_1_" gradientUnits="userSpaceOnUse" x1="-245.3223" y1="-844.5171" x2="-248.6783" y2="-877.5816" gradientTransform="matrix(0.3949 -0.4843 -0.4843 -0.3949 -303.4252 -450.7975)">
	<stop  offset="0" style="stop-color:#F2F2F2"/>
	<stop  offset="0.5" style="stop-color:#CCCCCC"/>
	<stop  offset="0.63" style="stop-color:#C7C7C7"/>
	<stop  offset="0.779" style="stop-color:#B9B9B9"/>
	<stop  offset="0.938" style="stop-color:#A2A2A2"/>
	<stop  offset="0.99" style="stop-color:#999999"/>
</linearGradient>
<path id="polygon36-7" fill="url(#polygon36-7_1_)" d="M13.813,1.344l16.87,7.498L18.812,17.59L1.316,8.842L13.813,1.344z"/>
<path id="line38-7" fill="none" stroke="#6E6E6E" stroke-width="0.6248" stroke-linejoin="round" d="M18.812,21.339v-3.748"/>
<path id="line40-3" fill="none" stroke="#6E6E6E" stroke-width="0.6317" stroke-linejoin="round" d="M18.812,17.59L1.316,8.842"/>
<path id="line42-9" fill="none" stroke="#6E6E6E" stroke-width="0.6317" stroke-linejoin="round" d="M30.684,8.842L18.812,17.59"/>
<path id="polygon44-8" fill="none" stroke="#464646" stroke-width="1.011" stroke-linejoin="round" d="M30.684,12.591V8.844V8.842
	l-16.87-7.498L1.316,8.842l0,0.001l0.001,3.748l17.495,8.748L30.684,12.591z"/>
<linearGradient id="polygon46-5_1_" gradientUnits="userSpaceOnUse" x1="-312.0278" y1="-811.2056" x2="-302.5263" y2="-820.7071" gradientTransform="matrix(0.3949 -0.4843 -0.4843 -0.3949 -303.4252 -450.7975)">
	<stop  offset="0" style="stop-color:#F2F2F2"/>
	<stop  offset="0.5" style="stop-color:#CCCCCC"/>
	<stop  offset="0.63" style="stop-color:#C7C7C7"/>
	<stop  offset="0.779" style="stop-color:#B9B9B9"/>
	<stop  offset="0.938" style="stop-color:#A2A2A2"/>
	<stop  offset="0.99" style="stop-color:#999999"/>
</linearGradient>
<path id="polygon46-5" fill="url(#polygon46-5_1_)" stroke="#464646" stroke-linejoin="round" d="M3.503,11.654l2.5,1.25
	l-0.938,0.313v4.374l-0.625,0.313v4.062l-1.25-0.625v-4.023l-0.625-0.664v-4.687L3.503,11.654z"/>
<linearGradient id="polygon48-0_1_" gradientUnits="userSpaceOnUse" x1="-310.0674" y1="-818.2441" x2="-300.5659" y2="-827.7457" gradientTransform="matrix(0.3949 -0.4843 -0.4843 -0.3949 -303.4252 -450.7975)">
	<stop  offset="0" style="stop-color:#F2F2F2"/>
	<stop  offset="0.5" style="stop-color:#CCCCCC"/>
	<stop  offset="0.63" style="stop-color:#C7C7C7"/>
	<stop  offset="0.779" style="stop-color:#B9B9B9"/>
	<stop  offset="0.938" style="stop-color:#A2A2A2"/>
	<stop  offset="0.99" style="stop-color:#999999"/>
</linearGradient>
<path id="polygon48-0" fill="url(#polygon48-0_1_)" stroke="#464646" stroke-linejoin="round" d="M7.252,13.529l2.5,1.25
	l-0.938,0.313v4.374L8.19,19.777v4.062l-1.25-0.625v-4.023l-0.625-0.664v-4.687L7.252,13.529z"/>
<linearGradient id="polygon50-9_1_" gradientUnits="userSpaceOnUse" x1="-308.0986" y1="-825.291" x2="-298.5986" y2="-834.791" gradientTransform="matrix(0.3949 -0.4843 -0.4843 -0.3949 -303.4252 -450.7975)">
	<stop  offset="0" style="stop-color:#F2F2F2"/>
	<stop  offset="0.5" style="stop-color:#CCCCCC"/>
	<stop  offset="0.63" style="stop-color:#C7C7C7"/>
	<stop  offset="0.779" style="stop-color:#B9B9B9"/>
	<stop  offset="0.938" style="stop-color:#A2A2A2"/>
	<stop  offset="0.99" style="stop-color:#999999"/>
</linearGradient>
<path id="polygon50-9" fill="url(#polygon50-9_1_)" stroke="#464646" stroke-linejoin="round" d="M11.001,15.403l2.5,1.25
	l-0.938,0.313v4.374l-0.625,0.312v4.062l-1.25-0.625v-4.022l-0.625-0.664v-4.687L11.001,15.403z"/>
<linearGradient id="polygon52-2_1_" gradientUnits="userSpaceOnUse" x1="-306.1387" y1="-832.3301" x2="-296.6387" y2="-841.8301" gradientTransform="matrix(0.3949 -0.4843 -0.4843 -0.3949 -303.4252 -450.7975)">
	<stop  offset="0" style="stop-color:#F2F2F2"/>
	<stop  offset="0.5" style="stop-color:#CCCCCC"/>
	<stop  offset="0.63" style="stop-color:#C7C7C7"/>
	<stop  offset="0.779" style="stop-color:#B9B9B9"/>
	<stop  offset="0.938" style="stop-color:#A2A2A2"/>
	<stop  offset="0.99" style="stop-color:#999999"/>
</linearGradient>
<path id="polygon52-2" fill="url(#polygon52-2_1_)" stroke="#464646" stroke-linejoin="round" d="M14.75,17.278l2.5,1.25
	l-0.937,0.313v4.374l-0.625,0.312v4.062l-1.25-0.625V22.94l-0.625-0.664V17.59L14.75,17.278z"/>
</svg>
