<svg id="Layer_1" data-name="Layer 1" xmlns="http://www.w3.org/2000/svg" xmlns:xlink="http://www.w3.org/1999/xlink" viewBox="0 0 48 48">
  <defs>
    <linearGradient id="linear-gradient" x1="-114.276" y1="139.66" x2="-93.375" y2="138.216" gradientTransform="matrix(1.428, 0, 0, -1.428, 174.755, 217.742)" gradientUnits="userSpaceOnUse">
      <stop offset="0" stop-color="#73b4c8"/>
      <stop offset="0.175" stop-color="#6aaec3"/>
      <stop offset="0.457" stop-color="#529eb5"/>
      <stop offset="0.809" stop-color="#2c839f"/>
      <stop offset="1" stop-color="#147391"/>
    </linearGradient>
    <linearGradient id="linear-gradient-2" x1="-111.031" y1="139.637" x2="-95.356" y2="131.728" xlink:href="#linear-gradient"/>
    <linearGradient id="linear-gradient-3" x1="-10.422" y1="74.157" x2="-3.403" y2="69.157" gradientTransform="matrix(1.111, 0, 0, -1.111, 31.303, 92.52)" gradientUnits="userSpaceOnUse">
      <stop offset="0" stop-color="#b1b1b1"/>
      <stop offset="1" stop-color="#7d7d7d"/>
    </linearGradient>
    <linearGradient id="linear-gradient-4" x1="-19.778" y1="65.144" x2="-14.765" y2="61.429" xlink:href="#linear-gradient-3"/>
    <linearGradient id="linear-gradient-5" x1="-107.511" y1="133.427" x2="-102.745" y2="130.786" gradientTransform="matrix(1.428, 0, 0, -1.428, 174.755, 217.742)" xlink:href="#linear-gradient-3"/>
    <linearGradient id="linear-gradient-6" x1="-277.489" y1="-381.252" x2="-275.421" y2="-381.252" gradientTransform="matrix(0.502, -0.35, -0.35, -0.502, 58.136, -293.326)" xlink:href="#linear-gradient-3"/>
  </defs>
  <g id="g873">
    <path id="path855-4" d="M39.749,19.081c0,10.191-7.692,18.452-17.18,18.452S5.389,29.272,5.389,19.081,13.08.63,22.569.63,39.749,8.891,39.749,19.081Z" stroke="#464646" stroke-linecap="round" stroke-miterlimit="10" stroke-width="0.594" fill="url(#linear-gradient)"/>
    <path id="rect6657-4" d="M10.52,26.805l-.928.131a.029.029,0,0,0-.029.037.044.044,0,0,0-.047-.026l-.936.116a.028.028,0,0,0-.027.037l0-.016a.025.025,0,0,0-.026-.016l-.162.02a.014.014,0,0,0-.013.019l.107.346-1.01.125-.105-.346a.052.052,0,0,0-.053-.033l-1.955.156a.031.031,0,0,0-.027.043l.109.381-1.021.076-.116-.419a.029.029,0,0,0-.025-.022l-.166.008a.018.018,0,0,0-.016.023l.006.02a.054.054,0,0,0-.049-.041l-.947.035c-.021,0-.033.021-.027.045A.056.056,0,0,0,3,27.461l-.945.019c-.023,0-.036.023-.03.049a22.331,22.331,0,0,0,4.3,9.186,23.68,23.68,0,0,0,6.975,6.1c6.662,3.743,13.788,4.514,17.949,4.765,2.211.157,3.564.184,3.564.184s.011-.011.018-.016,2.019.083,5.061.051c2.187-.023,4.471-.111,6.918-.229V45.9l-.036-.285a.043.043,0,0,0-.045-.035l.081,0v-.2l-.491.026-.119-1,.383-.017a.035.035,0,0,0,.035-.041l-.232-1.912a.045.045,0,0,0-.045-.039l-.375.017-.117-1,.961-.047v-.2l-.612.029a.032.032,0,0,0,.033-.037l-.109-.924a.042.042,0,0,0-.043-.035l.731-.035V39.148c-2.968.145-5.667.253-8.245.258-3.239.007-5.373-.136-5.373-.136s-.009.011-.015.015-.481-.025-1.317-.088c-2.78-.241-9.619-.782-14.345-3.652a15.156,15.156,0,0,1-4.5-3.912,13.91,13.91,0,0,1-2.45-4.8A.042.042,0,0,0,10.52,26.805Zm-2,.828.6,1.592-.988.226-.137-.332a.048.048,0,0,0-.054-.027l-1.924.349a.033.033,0,0,0-.024.047l.143.371-1,.18-.67-1.963,1.02-.086.119.379a.049.049,0,0,0,.052.035l1.942-.252a.031.031,0,0,0,.029-.041l-.113-.343Zm1.312.119.342.883a.043.043,0,0,0-.049-.022l-.916.211a.03.03,0,0,0-.023.041l-.356-.939a.046.046,0,0,0,.049.027l.926-.164C9.821,27.785,9.834,27.769,9.828,27.752Zm-5.455.742.4,1.184a.052.052,0,0,0-.052-.035l-.94.127a.033.033,0,0,0-.023.048L3.354,28.58a.051.051,0,0,0,.05.039l.944-.08A.032.032,0,0,0,4.373,28.494Zm6.125.883.418.832a.042.042,0,0,0-.051-.016l-.883.309a.03.03,0,0,0-.019.043l-.44-.891a.046.046,0,0,0,.051.022l.9-.26C10.494,29.41,10.506,29.393,10.5,29.377ZM9.189,29.4l.743,1.512-.955.334-.166-.314a.052.052,0,0,0-.057-.024l-1.869.557a.032.032,0,0,0-.018.049l.18.357-.977.287-.859-1.9,1-.191.154.367a.053.053,0,0,0,.057.031l1.9-.451a.035.035,0,0,0,.026-.047L8.2,29.635ZM5.17,30.682l.516,1.146a.055.055,0,0,0-.057-.029l-.916.228a.033.033,0,0,0-.018.049l-.531-1.2a.055.055,0,0,0,.055.035l.929-.179A.033.033,0,0,0,5.17,30.682Zm6.139.218.5.77a.045.045,0,0,0-.053-.01l-.838.41a.031.031,0,0,0-.016.045l-.523-.828a.043.043,0,0,0,.051.016l.863-.36A.031.031,0,0,0,11.309,30.9Zm-1.288.17.889,1.409L10,32.926l-.2-.3a.05.05,0,0,0-.059-.016l-1.783.772a.032.032,0,0,0-.014.051l.217.335-.932.4L6.178,32.359l.97-.3.192.351a.051.051,0,0,0,.058.026l1.829-.663a.033.033,0,0,0,.019-.048l-.176-.311ZM12.27,32.3l.572.7a.043.043,0,0,0-.053,0l-.779.512a.031.031,0,0,0-.01.047s-.45-.55-.574-.715l-.035-.045a.041.041,0,0,0,.052.008l.11-.061c.221-.125.7-.4.7-.4C12.274,32.333,12.28,32.314,12.27,32.3Zm-1.254.326s.1.145.25.336c.295.391.785.957.785.957l-.84.557-.232-.27a.048.048,0,0,0-.059-.008l-1.67.99a.034.034,0,0,0-.008.053l.258.311-.871.517s-.265-.318-.547-.687c-.352-.467-.719-1.012-.719-1.012l.926-.414.229.33a.05.05,0,0,0,.06.018l1.733-.881a.032.032,0,0,0,.013-.049l-.209-.289ZM6.182,32.8l.634,1.1a.049.049,0,0,0-.056-.024l-.881.334c-.02.007-.025.029-.012.051L5.209,33.1a.053.053,0,0,0,.057.029l.9-.279A.034.034,0,0,0,6.182,32.8Zm7.191.787.656.639a.037.037,0,0,0-.05,0l-.713.6a.033.033,0,0,0,0,.049l-.7-.689a.042.042,0,0,0,.053,0l.748-.559A.03.03,0,0,0,13.373,33.582Zm-1.2.473,1.181,1.174-.765.654-.262-.242a.047.047,0,0,0-.06,0L10.74,36.83a.034.034,0,0,0,0,.053l.289.277-.795.623L8.781,36.25l.864-.529.265.3a.049.049,0,0,0,.063.01l1.6-1.093a.033.033,0,0,0,.008-.051l-.24-.264Zm2.455.689.73.572a.042.042,0,0,0-.052.008l-.639.68a.031.031,0,0,0,0,.047l-.774-.615a.044.044,0,0,0,.055,0l.676-.641A.032.032,0,0,0,14.629,34.744Zm-7.211.065s.279.4.5.7c.141.185.258.33.258.33a.051.051,0,0,0-.061-.016l-.83.442c-.018.009-.02.034,0,.054,0,0-.066-.084-.16-.207-.236-.314-.633-.884-.633-.884a.055.055,0,0,0,.061.023l.855-.387A.034.034,0,0,0,7.418,34.809Zm6.076.543L14.805,36.4l-.686.739-.287-.215a.046.046,0,0,0-.059.006L12.4,38.291a.034.034,0,0,0,0,.053l.319.244-.715.715-1.6-1.36.787-.632.3.269a.05.05,0,0,0,.063,0L13,36.3a.035.035,0,0,0,0-.053l-.268-.234Zm2.52.429.789.5a.041.041,0,0,0-.051.014l-.559.742a.034.034,0,0,0,.006.049l-.834-.539a.039.039,0,0,0,.051-.01l.6-.711A.032.032,0,0,0,16.014,35.781Zm-1.059.725,1.416.916-.6.808-.308-.185a.044.044,0,0,0-.057.012L14.2,39.566a.035.035,0,0,0,.01.053l.34.209-.625.791-1.733-1.176.705-.722.325.234a.046.046,0,0,0,.06,0l1.3-1.439a.035.035,0,0,0-.006-.053l-.291-.207Zm-6.066.174.875.927A.052.052,0,0,0,9.7,37.6l-.762.545a.036.036,0,0,0,0,.054l-.914-.984a.055.055,0,0,0,.063.016l.8-.5A.033.033,0,0,0,8.889,36.68Zm8.621.015.847.446a.039.039,0,0,0-.048.017l-.485.787a.035.035,0,0,0,.012.049l-.891-.471A.039.039,0,0,0,17,37.51l.522-.768A.032.032,0,0,0,17.51,36.7Zm1.6.8.895.375a.041.041,0,0,0-.049.022l-.412.826a.034.034,0,0,0,.016.047l-.934-.4a.039.039,0,0,0,.049-.017l.447-.809A.033.033,0,0,0,19.109,37.492Zm-2.576.024,1.51.8-.516.856-.322-.158a.046.046,0,0,0-.057.017l-1.041,1.617a.034.034,0,0,0,.016.051l.354.176-.538.846s-1.026-.523-1.533-.813c-.171-.1-.283-.166-.283-.166l.615-.8.17.1.174.1a.048.048,0,0,0,.061-.01l1.123-1.57a.036.036,0,0,0-.01-.053l-.313-.178Zm4.258.644.936.311a.04.04,0,0,0-.047.025l-.346.858a.033.033,0,0,0,.021.044l-.972-.326a.042.042,0,0,0,.049-.023l.377-.844A.032.032,0,0,0,20.791,38.16Zm-10.232.2.966.821a.05.05,0,0,0-.062,0l-.688.634a.037.037,0,0,0,.008.055L9.773,39a.051.051,0,0,0,.063.008l.727-.592A.036.036,0,0,0,10.559,38.361Zm7.654.034,1.582.669-.438.9-.336-.133a.044.044,0,0,0-.054.022l-.885,1.7a.037.037,0,0,0,.022.051l.363.146-.455.889-1.867-.821.527-.849.355.166a.046.046,0,0,0,.059-.016l.963-1.66a.037.037,0,0,0-.016-.053l-.326-.15Zm4.334.318.971.254a.039.039,0,0,0-.045.027l-.284.883a.036.036,0,0,0,.024.045l-1.006-.268a.039.039,0,0,0,.047-.025l.314-.871A.034.034,0,0,0,22.547,38.713Zm-2.574.42,1.642.555-.363.931L20.9,40.51a.043.043,0,0,0-.052.025l-.741,1.77a.038.038,0,0,0,.026.05l.373.12-.379.925-1.908-.677.445-.895.367.139a.043.043,0,0,0,.055-.02l.812-1.736a.037.037,0,0,0-.019-.051l-.34-.127Zm4.394.031,1,.2a.041.041,0,0,0-.043.031l-.228.9a.035.035,0,0,0,.027.043l-1.031-.213a.041.041,0,0,0,.045-.029l.256-.893A.033.033,0,0,0,24.367,39.164Zm1.871.361,1.022.163a.039.039,0,0,0-.043.031l-.176.916a.034.034,0,0,0,.029.041l-1.05-.168a.04.04,0,0,0,.043-.031l.2-.909A.035.035,0,0,0,26.238,39.525Zm-4.437.219,1.7.451-.3.959-.355-.09a.045.045,0,0,0-.051.03l-.607,1.826a.037.037,0,0,0,.029.047l.379.1-.309.954-1.941-.549.371-.93.375.115a.045.045,0,0,0,.055-.025l.671-1.8a.038.038,0,0,0-.023-.051l-.35-.1Zm6.349.069,1.041.128a.039.039,0,0,0-.043.032l-.13.922a.036.036,0,0,0,.031.041l-1.067-.131a.038.038,0,0,0,.043-.032l.155-.919A.034.034,0,0,0,28.15,39.813Zm-15.757.029,1.043.709a.048.048,0,0,0-.061.006l-.605.711a.034.034,0,0,0,.013.052l-1.092-.752a.049.049,0,0,0,.063,0L12.4,39.9A.035.035,0,0,0,12.393,39.842Zm17.7.2,1.052.1a.037.037,0,0,0-.039.035l-.093.922a.039.039,0,0,0,.035.041l-1.076-.1A.038.038,0,0,0,30.014,41l.111-.922A.036.036,0,0,0,30.094,40.039Zm1.965.176,1.058.066c-.009.006-.023.01-.023.022s-.015.005-.016.013l-.058.924c0,.016.012.025.025.031l-.008.008-1.06-.068a.037.037,0,0,0,.039-.033l.076-.924A.036.036,0,0,0,32.059,40.215Zm-8.371.025,1.738.364-.238.976-.362-.068a.042.042,0,0,0-.049.031l-.486,1.867a.04.04,0,0,0,.033.047l.383.076-.244.975L22.5,44.072l.3-.955.381.09a.043.043,0,0,0,.052-.027l.543-1.848a.038.038,0,0,0-.027-.049L23.4,41.2Zm21.455,0a.036.036,0,0,0-.034.039l.1.922a.04.04,0,0,0,.041.035l-1.1.047a.037.037,0,0,0,.036-.039L44.1,40.32a.04.04,0,0,0-.041-.035Zm-2.024.078a.037.037,0,0,0-.035.039l.082.924a.039.039,0,0,0,.041.035l-1.1.034a.036.036,0,0,0,.036-.037l-.069-.924a.04.04,0,0,0-.041-.037Zm-9.056.012.957.037c.008,0,.009-.011.015-.015l.076,0a.038.038,0,0,0-.039.036l-.023.923a.037.037,0,0,0,.035.04L34,41.313c.009-.007.023-.01.023-.022s.016,0,.016-.014l.041-.925C34.083,40.34,34.071,40.337,34.063,40.33Zm7.041.045a.035.035,0,0,0-.036.037l.059.926a.038.038,0,0,0,.039.035l-1.092.02a.035.035,0,0,0,.035-.038l-.045-.925a.036.036,0,0,0-.039-.035Zm-5.075.006L37.1,40.4a.037.037,0,0,0-.037.038l0,.923a.039.039,0,0,0,.037.039l-1.085-.019a.037.037,0,0,0,.037-.035l.009-.926A.036.036,0,0,0,36.029,40.381ZM39.1,40.4a.036.036,0,0,0-.037.037l.033.926a.038.038,0,0,0,.039.037l-1.09,0a.036.036,0,0,0,.037-.037l-.019-.926a.038.038,0,0,0-.038-.037Zm-13.479.239,1.772.285-.182.99-.367-.055a.044.044,0,0,0-.047.035l-.375,1.895a.038.038,0,0,0,.033.045l.387.059-.188.988-1.972-.332.238-.977.385.071a.044.044,0,0,0,.051-.032l.427-1.883a.036.036,0,0,0-.029-.046l-.363-.065Zm1.971.312,1.8.223-.135,1-.369-.041a.042.042,0,0,0-.047.035l-.277,1.912a.037.037,0,0,0,.035.043l.387.043-.137,1-1.971-.246.182-.988.386.053a.043.043,0,0,0,.049-.034l.325-1.9a.041.041,0,0,0-.034-.047l-.367-.049Zm-13.225.16,1.092.588a.048.048,0,0,0-.059.012l-.519.769a.037.037,0,0,0,.017.053s-.875-.467-1.091-.59l-.049-.027a.046.046,0,0,0,.06-.008s.013-.014.032-.039c.116-.153.531-.705.531-.705A.037.037,0,0,0,14.365,41.113Zm15.219.084,1.811.168-.094,1-.371-.031a.04.04,0,0,0-.043.037l-.194,1.916a.038.038,0,0,0,.037.041l.385.031-.094,1-1.96-.17.132-1,.385.039a.043.043,0,0,0,.047-.036l.234-1.914a.04.04,0,0,0-.035-.045l-.369-.037Zm2.01.186.109.008c.394.029,1.723.107,1.723.107l-.055.982L33,42.461a.042.042,0,0,0-.043.039l-.119,1.916a.039.039,0,0,0,.039.041l.066,0c.007.005.007.015.016.016l.3.015-.053.983-.412-.022a.023.023,0,0,0-.02.014s-.96-.057-1.363-.086l-.174-.012.09-1,.156.01.229.017a.04.04,0,0,0,.043-.037l.158-1.914a.04.04,0,0,0-.037-.043l-.246-.017-.125-.01Zm14.054.037.114,1-.375.016a.037.037,0,0,0-.035.043l.212,1.914a.046.046,0,0,0,.047.037l.381-.018.117,1-1.923.082-.1-1,.383-.013a.038.038,0,0,0,.037-.041l-.194-1.916a.044.044,0,0,0-.044-.039l-.374.013-.095-1ZM43.6,41.5l.093,1-.375.014a.038.038,0,0,0-.035.043l.17,1.916a.043.043,0,0,0,.045.037l.383-.014.1,1-1.93.061-.074-1,.383-.01a.038.038,0,0,0,.039-.039l-.149-1.918a.041.041,0,0,0-.043-.039l-.373.01-.072-1Zm-9.891.012,1.3.052c.009,0,.013-.008.015-.015l.426.013-.019,1-.373-.012a.041.041,0,0,0-.041.041l-.051,1.918a.04.04,0,0,0,.041.039l.385.012-.02,1-1.863-.071.049-.982.384.017a.039.039,0,0,0,.043-.037l.082-1.918a.04.04,0,0,0-.037-.043l-.064,0c-.006,0-.007-.015-.016-.015l-.291-.014Zm7.846.05.068,1-.373.009a.039.039,0,0,0-.039.041l.125,1.918a.041.041,0,0,0,.043.039l.383-.009.07,1-1.933.033-.047-1,.384-.006a.036.036,0,0,0,.039-.039l-.1-1.918a.044.044,0,0,0-.043-.041l-.373,0-.045-1Zm-5.9.006,1.827.03.013,1-.373,0a.041.041,0,0,0-.041.041l.014,1.92a.04.04,0,0,0,.041.039l.385,0,.013,1-1.943-.034.016-1,.384.01a.037.037,0,0,0,.041-.037l.02-1.92A.043.043,0,0,0,36,42.578l-.371-.01Zm3.862.03.043,1-.375,0a.037.037,0,0,0-.037.041l.07,1.918a.043.043,0,0,0,.043.039l.383,0,.043,1-1.938,0-.017-1h.384a.036.036,0,0,0,.039-.038l-.041-1.919a.041.041,0,0,0-.041-.041l-.373,0-.015-1Zm-23.1.568,1.123.494a.046.046,0,0,0-.057.016l-.441.812a.038.038,0,0,0,.024.051l-1.17-.52a.047.047,0,0,0,.06-.011l.481-.793A.035.035,0,0,0,16.414,42.168Zm2.1.881,1.146.41a.044.044,0,0,0-.055.02l-.369.849c-.008.019.005.039.028.047l-1.19-.428a.045.045,0,0,0,.057-.017l.4-.832A.036.036,0,0,0,18.518,43.049Zm2.144.726,1.164.332a.043.043,0,0,0-.051.024l-.3.877a.037.037,0,0,0,.029.047l-1.2-.346a.045.045,0,0,0,.055-.023l.334-.864A.037.037,0,0,0,20.662,43.775Zm2.176.586,1.176.262a.041.041,0,0,0-.049.027l-.24.9a.037.037,0,0,0,.031.045l-1.211-.274A.044.044,0,0,0,22.6,45.3l.269-.889A.037.037,0,0,0,22.838,44.361Zm2.193.459,1.184.2a.043.043,0,0,0-.049.03l-.186.914a.04.04,0,0,0,.036.043L24.8,45.8a.045.045,0,0,0,.051-.03l.212-.906A.038.038,0,0,0,25.031,44.82Zm2.2.35,1.182.146a.043.043,0,0,0-.047.034l-.137.92a.041.041,0,0,0,.038.043l-1.209-.151a.04.04,0,0,0,.046-.031l.161-.918A.038.038,0,0,0,27.234,45.17Zm2.2.254,1.175.1a.04.04,0,0,0-.044.034l-.094.923a.036.036,0,0,0,.037.039l-1.2-.1a.043.043,0,0,0,.047-.033l.115-.924A.038.038,0,0,0,29.432,45.424Zm2.183.172,1.168.074c-.01.006-.024.008-.025.019s-.017.007-.018.016l-.058.922a.04.04,0,0,0,.039.041l-1.19-.074a.042.042,0,0,0,.045-.035l.076-.922A.038.038,0,0,0,31.615,45.6Zm14.129.027a.036.036,0,0,0-.035.039l.1.922a.042.042,0,0,0,.044.035L44.7,46.67a.037.037,0,0,0,.037-.039l-.095-.924a.041.041,0,0,0-.043-.035Zm-2.142.086a.037.037,0,0,0-.038.037l.084.924a.042.042,0,0,0,.043.037l-1.166.037a.038.038,0,0,0,.038-.039l-.073-.924a.043.043,0,0,0-.043-.037Zm-9.78.012,1.071.041a.018.018,0,0,0,.017-.014l.061,0a.038.038,0,0,0-.041.035l-.024.926a.039.039,0,0,0,.039.037L33.762,46.7c.01-.006.023-.008.023-.019s.017-.007.018-.016l.041-.924C33.844,45.732,33.831,45.728,33.822,45.721Zm7.629.049a.037.037,0,0,0-.037.039l.063.923a.04.04,0,0,0,.041.038l-1.17.019a.037.037,0,0,0,.039-.037l-.049-.926a.041.041,0,0,0-.043-.035Zm-5.476.007,1.162.02a.036.036,0,0,0-.039.035l.006.926a.039.039,0,0,0,.041.037l-1.18-.02a.037.037,0,0,0,.041-.035l.008-.926A.039.039,0,0,0,35.975,45.777ZM39.3,45.8a.037.037,0,0,0-.039.037l.035.926a.043.043,0,0,0,.043.037l-1.176,0a.037.037,0,0,0,.039-.037l-.021-.926a.04.04,0,0,0-.041-.037Z" fill="#464646"/>
    <path id="path855" d="M34.657,18.992c0,10.19-7.691,18.451-17.18,18.451S.3,29.182.3,18.992,7.989.541,17.477.541,34.657,8.8,34.657,18.992Z" stroke="#464646" stroke-linecap="round" stroke-miterlimit="10" stroke-width="0.594" fill="url(#linear-gradient-2)"/>
    <path id="path929" d="M17.484,6.723v5.931l.213.024a5.59,5.59,0,0,1,2.774.949,7,7,0,0,1,1.5,1.475,1.583,1.583,0,0,0,.256.324c.025,0,4.367-3.1,4.533-3.235a4.6,4.6,0,0,0-.258-.4,11.673,11.673,0,0,0-4.271-3.855,10.641,10.641,0,0,0-4.373-1.188Z" stroke="#464646" stroke-linecap="round" stroke-width="0.667" fill="url(#linear-gradient-3)"/>
    <path id="path931" d="M7.813,25.144a12.716,12.716,0,0,1-1.256-9.86,6.662,6.662,0,0,1,.946-2.24c.03.017,1.13.7,2.446,1.519l2.392,1.488-.153.381a6.517,6.517,0,0,0-.422,2.929,6.657,6.657,0,0,0,.8,2.629l.171.292-2.27,1.638c-1.248.9-2.3,1.648-2.329,1.661S7.991,25.449,7.813,25.144Z" stroke="#464646" stroke-linecap="round" stroke-width="0.667" fill="url(#linear-gradient-4)"/>
    <path id="path933" d="M17.56,29.03c-.017-.942-.03-2.246-.03-2.9V24.948l.482-.053a5.633,5.633,0,0,0,3.882-2.3c.16-.215.3-.391.3-.391s4.588,2.862,4.628,2.9a8.526,8.526,0,0,1-1,1.5,11.015,11.015,0,0,1-7.739,4.105l-.494.027Z" stroke="#464646" stroke-linecap="round" stroke-width="0.857" fill="url(#linear-gradient-5)"/>
    <path id="path967" d="M18.114,19.942l-.99-.464-.989-.465.9-.624.9-.625.093,1.089Z" stroke="#464646" stroke-linecap="round" stroke-miterlimit="5.712" stroke-width="0.443" fill="url(#linear-gradient-6)"/>
  </g>
</svg>
