<svg id="Layer_1" data-name="Layer 1" xmlns="http://www.w3.org/2000/svg" xmlns:xlink="http://www.w3.org/1999/xlink" viewBox="0 0 48 48">
    <linearGradient id="linear-gradient" x1="1" x2="39" y2="38" gradientUnits="userSpaceOnUse">
      <stop offset="0" stop-color="#fff"/>
      <stop offset="0.232" stop-color="#fafafa"/>
      <stop offset="0.496" stop-color="#ededed"/>
      <stop offset="0.775" stop-color="#d6d6d6"/>
      <stop offset="1" stop-color="#bebebe"/>
    </linearGradient>
    <linearGradient id="Dark_Blue_Grad" data-name="Dark Blue Grad" x1="9.25" y1="-8.25" x2="30.75" y2="13.25" gradientUnits="userSpaceOnUse">
      <stop offset="0" stop-color="#73b4c8"/>
      <stop offset="0.175" stop-color="#6aaec3"/>
      <stop offset="0.457" stop-color="#529eb5"/>
      <stop offset="0.809" stop-color="#2c839f"/>
      <stop offset="1" stop-color="#147391"/>
    </linearGradient>
    <linearGradient id="Dark_Blue_Grad-2" x1="24.164" y1="19.492" x2="42.836" y2="38.164" xlink:href="#Dark_Blue_Grad"/>
    <linearGradient id="Dark_Blue_Grad-4" x1="24.393" y1="20.214" x2="42.589" y2="38.411" xlink:href="#Dark_Blue_Grad"/>
    <linearGradient id="New_Gradient_Swatch_1" data-name="New Gradient Swatch 1" x1="27.828" y1="15.828" x2="41.172" y2="29.172" gradientUnits="userSpaceOnUse">
      <stop offset="0" stop-color="#cde6eb"/>
      <stop offset="0.221" stop-color="#c6e2e8"/>
      <stop offset="0.542" stop-color="#b3d8e1"/>
      <stop offset="0.921" stop-color="#93c7d5"/>
      <stop offset="1" stop-color="#8cc3d2"/>
    </linearGradient>
  <rect width="48" height="48" fill="none"/>
  <rect x="0.5" y="0.5" width="39" height="37" fill="url(#linear-gradient)"/>
  <rect x="0.5" y="0.5" width="39" height="4" fill="url(#Dark_Blue_Grad)" stroke-linecap="round" stroke-linejoin="round" stroke-width="1.049" stroke="#464646"/>
  <rect width="48" height="48" fill="none"/>
  <line x1="13.5" y1="1" x2="13.5" y2="38" fill="none" stroke="#6e6e6e" stroke-miterlimit="10"/>
  <line x1="26.5" y1="1" x2="26.5" y2="38" fill="none" stroke="#6e6e6e" stroke-miterlimit="10"/>
  <line x1="39.5" y1="15.5" x2="1" y2="15.5" fill="none" stroke="#6e6e6e" stroke-miterlimit="10"/>
  <line x1="39.5" y1="26.5" x2="1" y2="26.5" fill="none" stroke="#6e6e6e" stroke-miterlimit="10"/>
  <rect x="0.5" y="0.5" width="39" height="37" fill="none" stroke="#464646" stroke-miterlimit="10"/>
  <polyline points="16.5 10.5 19.5 13.438 23.5 6.5" fill="none" stroke="#6e6e6e" stroke-linecap="round" stroke-linejoin="round"/>
  <polyline points="3.5 21.5 6.5 24.5 10.5 17.5" fill="none" stroke="#6e6e6e" stroke-linecap="round" stroke-linejoin="round"/>
  <polyline points="29.492 32.5 32.492 35.5 36.492 28.5" fill="none" stroke="#6e6e6e" stroke-linecap="round" stroke-linejoin="round"/>
      <polyline points="21.63 22.977 31.5 37.5 31.5 47.5 37.5 43.5 37.5 37.5 47.355 22.998" fill="url(#Dark_Blue_Grad-2)"/>
      <ellipse cx="34.5" cy="22.5" rx="13" ry="3" fill="url(#Dark_Blue_Grad-2)"/>
      <polyline points="21.63 22.977 31.5 37.5 31.5 47.5 37.5 43.5 37.5 37.5 47.355 22.998" fill="url(#Dark_Blue_Grad-4)"/>
      <ellipse cx="34.5" cy="22.5" rx="13" ry="3" fill="url(#New_Gradient_Swatch_1)"/>
  <path d="M47.5,22.5c0,1.657-5.82,3-13,3s-13-1.343-13-3" fill="none" stroke="#147391"/>
  <path d="M47.5,22.5c0-1.657-5.82-3-13-3s-13,1.343-13,3a.855.855,0,0,0,.18.477h-.05L31.5,37.5v10l6-4v-6L47.355,23h-.049A.863.863,0,0,0,47.5,22.5Z" fill="none" stroke="#464646" stroke-linejoin="round"/>
</svg>
