<svg id="Image" xmlns="http://www.w3.org/2000/svg" xmlns:xlink="http://www.w3.org/1999/xlink" viewBox="0 0 48 48">
  <defs>
    <linearGradient id="linear-gradient" x1="2.006" y1="43.5" x2="41.006" y2="4.5" gradientTransform="matrix(1, 0, 0, -1, -0.512, 48)" gradientUnits="userSpaceOnUse">
      <stop offset="0" stop-color="#fff"/>
      <stop offset="1" stop-color="#dcdcdc"/>
    </linearGradient>
    <linearGradient id="linear-gradient-2" x1="26.161" y1="769.441" x2="43.839" y2="787.119" gradientTransform="translate(0 -743.28)" gradientUnits="userSpaceOnUse">
      <stop offset="0" stop-color="#73b4c8"/>
      <stop offset="1" stop-color="#177491"/>
    </linearGradient>
  </defs>
  <g id="g920">
    <path id="rect14" d="M2.494,3.5h37v41h-37Z" fill="url(#linear-gradient)"/>
    <g id="g22">
      <path id="path18" d="M28.208,16.087,25.871,13.32l-2.354,1.951L28.179,21l8.145-10.049L34,9.047" fill="#0e7191"/>
      <path id="polygon20" d="M25.623,14.585l2.641,3.207L34.1,10.645l.847.643-6.695,8.206-3.486-4.275Z" fill="#3b90b2"/>
    </g>
    <path id="path30" d="M5,0V3H2V45H40V3H37V0H36V3H31.834V0h-1V3H26.668V0h-1V3H21.5V0h-1V3H16.334V0h-1V3H11.166V0h-1V3H6V0ZM3,4H5V6A.5.5,0,0,0,6,6V4h4.166V6a.5.5,0,0,0,1,0V4h4.168V6a.5.5,0,0,0,1,0V4H20.5V6a.5.5,0,0,0,1,0V4h4.168V6a.5.5,0,0,0,1,0V4h4.166V6a.5.5,0,1,0,1,0V4H36V6a.5.5,0,0,0,1,0V4h2V44H3Z" fill="#6f6e6e"/>
    <g id="g881">
      <g id="g36">
        <path id="circle32" d="M47.5,35A12.5,12.5,0,1,1,35,22.5,12.5,12.5,0,0,1,47.5,35Z" fill="url(#linear-gradient-2)"/>
        <path id="path34" d="M35,48A13,13,0,1,1,48,35,13,13,0,0,1,35,48Zm0-25A12,12,0,1,0,47,35,12,12,0,0,0,35,23Z" fill="#474647"/>
      </g>
      <path id="path38" d="M35,40.5A1.5,1.5,0,0,1,33.5,39V37.27a4.415,4.415,0,0,1,2.547-4,2.5,2.5,0,0,0-.581-4.729A2.7,2.7,0,0,0,35,28.5a2.465,2.465,0,0,0-1.6.583A2.5,2.5,0,0,0,32.5,31a1.5,1.5,0,0,1-3,0A5.5,5.5,0,0,1,35,25.5h.007a5.626,5.626,0,0,1,.978.086,5.5,5.5,0,0,1,1.322,10.407,1.4,1.4,0,0,0-.807,1.276V39A1.5,1.5,0,0,1,35,40.5Z" fill="#fff"/>
      <path id="path40" d="M35.006,26a5.114,5.114,0,0,1,.891.078,5,5,0,0,1,1.2,9.461,1.911,1.911,0,0,0-1.1,1.73V39a1,1,0,0,1-2,0V37.27a3.912,3.912,0,0,1,2.257-3.545,3,3,0,0,0-.7-5.676A3.316,3.316,0,0,0,35,28a3,3,0,0,0-3,3,1,1,0,0,1-2,0,5,5,0,0,1,5-5h.006m0-1h0A6,6,0,0,0,29,30.994h0V31a2,2,0,0,0,4,0,2,2,0,0,1,.715-1.533A1.975,1.975,0,0,1,35,29a2.222,2.222,0,0,1,.382.033,2,2,0,0,1,.456,3.782A4.917,4.917,0,0,0,33,37.269V39a2,2,0,0,0,4,0V37.27a.9.9,0,0,1,.517-.822A6,6,0,0,0,36.07,25.093,6.114,6.114,0,0,0,35.007,25Z" fill="#197492"/>
      <path id="path42" d="M35,45a2.017,2.017,0,1,1,1.4-.582A2.009,2.009,0,0,1,35,45Z" fill="#fff"/>
      <path id="path44" d="M35.005,41.5a1.492,1.492,0,0,1,1.059.419,1.563,1.563,0,1,1-1.059-.419m0-1A2.459,2.459,0,0,0,32.5,42.912v.079A2.518,2.518,0,1,0,35.045,40.5Z" fill="#197492"/>
    </g>
    <path id="rect839" d="M5,13H20v1H5Z" fill="#177491"/>
    <path id="rect839-9" d="M5,16H16v1H5Z" fill="#177491"/>
    <path id="rect839-8" d="M5,24H20v1H5Z" fill="#177491"/>
    <path id="rect839-9-2" d="M5,27H16v1H5Z" fill="#177491"/>
    <path id="rect839-8-6" d="M5,34H20v1H5Z" fill="#177491"/>
    <path id="rect839-9-2-3" d="M5,37H16v1H5Z" fill="#177491"/>
  </g>
</svg>
