<svg id="Layer_1" data-name="Layer 1" xmlns="http://www.w3.org/2000/svg" xmlns:xlink="http://www.w3.org/1999/xlink" viewBox="0 0 48 48">
  <defs>
    <linearGradient id="linear-gradient" x1="242.169" y1="-240.796" x2="245.683" y2="-244.311" gradientTransform="matrix(0.583, 0, 0, -0.583, -105.581, -113.753)" gradientUnits="userSpaceOnUse">
      <stop offset="0" stop-color="#7d7d7d"/>
      <stop offset="1" stop-color="#b1b1b1"/>
    </linearGradient>
    <linearGradient id="linear-gradient-2" x1="-499.973" y1="-537.561" x2="-500.758" y2="-545.301" gradientTransform="matrix(0.369, -0.452, -0.452, -0.369, -26.584, -399.111)" gradientUnits="userSpaceOnUse">
      <stop offset="0" stop-color="#f2f2f2"/>
      <stop offset="0.5" stop-color="#ccc"/>
      <stop offset="0.63" stop-color="#c7c7c7"/>
      <stop offset="0.779" stop-color="#b9b9b9"/>
      <stop offset="0.938" stop-color="#a2a2a2"/>
      <stop offset="0.99" stop-color="#999"/>
    </linearGradient>
    <linearGradient id="linear-gradient-3" x1="-513.502" y1="-506.336" x2="-516.929" y2="-540.103" gradientTransform="matrix(0.369, -0.452, -0.452, -0.369, -26.584, -399.111)" gradientUnits="userSpaceOnUse">
      <stop offset="0" stop-color="#b1b1b1"/>
      <stop offset="1" stop-color="#7d7d7d"/>
    </linearGradient>
    <linearGradient id="linear-gradient-4" x1="-499.784" y1="-507.727" x2="-503.14" y2="-540.795" xlink:href="#linear-gradient-2"/>
    <linearGradient id="linear-gradient-5" x1="-566.483" y1="-474.425" x2="-556.983" y2="-483.925" xlink:href="#linear-gradient-2"/>
    <linearGradient id="linear-gradient-6" x1="-564.523" y1="-481.465" x2="-555.023" y2="-490.965" xlink:href="#linear-gradient-2"/>
    <linearGradient id="linear-gradient-7" x1="-562.562" y1="-488.504" x2="-553.062" y2="-498.004" xlink:href="#linear-gradient-2"/>
    <linearGradient id="linear-gradient-8" x1="-560.602" y1="-495.544" x2="-551.102" y2="-505.044" xlink:href="#linear-gradient-2"/>
    <linearGradient id="linear-gradient-9" x1="7.904" y1="44.211" x2="32.31" y2="36.514" gradientTransform="matrix(1, 0, 0, -1, 0, 50.814)" gradientUnits="userSpaceOnUse">
      <stop offset="0" stop-color="#73b4c8"/>
      <stop offset="0.175" stop-color="#6aaec3"/>
      <stop offset="0.457" stop-color="#529eb5"/>
      <stop offset="0.809" stop-color="#2c839f"/>
      <stop offset="1" stop-color="#147391"/>
    </linearGradient>
    <linearGradient id="linear-gradient-10" x1="3.353" y1="17.556" x2="24.353" y2="2.047" xlink:href="#linear-gradient-9"/>
    <linearGradient id="linear-gradient-11" x1="39.009" y1="23.786" x2="51.573" y2="13.989" xlink:href="#linear-gradient-9"/>
  </defs>
  <g id="g1039">
    <g id="g939">
      <path id="polygon30" d="M35.746,28.929v-2.35l1.166-.8v3.729Z" stroke="#464646" stroke-linejoin="round" stroke-width="0.583" fill="url(#linear-gradient)"/>
      <path id="polygon32" d="M28.165,28.93l11.079-8.165v3.5l-11.08,8.165Z" fill="url(#linear-gradient-2)"/>
      <path id="polygon34" d="M28.165,28.93l-16.33-8.165v3.5l16.329,8.165Z" fill="url(#linear-gradient-3)"/>
      <path id="polygon36" d="M11.835,20.764l11.664-7,15.746,7-11.08,8.165Z" fill="url(#linear-gradient-4)"/>
      <path id="line38" d="M28.165,32.428v-3.5" fill="none" stroke="#6e6e6e" stroke-linejoin="round" stroke-width="0.583"/>
      <path id="line40" d="M28.165,28.929l-16.33-8.165" fill="none" stroke="#6e6e6e" stroke-linejoin="round" stroke-width="0.59"/>
      <path id="line42" d="M39.245,20.764l-11.08,8.165" fill="none" stroke="#6e6e6e" stroke-linejoin="round" stroke-width="0.59"/>
      <path id="polygon44" d="M28.165,32.428l11.08-8.165v-3.5h0l-15.746-7-11.664,7h0v3.5Z" fill="none" stroke="#464646" stroke-linejoin="round" stroke-width="0.59"/>
      <path id="polygon46" d="M16.209,24.555l-.874.291v4.083l-.584.291v3.791l-1.166-.583V28.673L13,28.054V23.68l.875-.292Z" stroke="#464646" stroke-linejoin="round" stroke-width="0.583" fill="url(#linear-gradient-5)"/>
      <path id="polygon48" d="M19.708,26.3l-.874.292v4.082l-.584.292v3.791l-1.166-.584V30.423L16.5,29.8V25.43l.875-.292Z" stroke="#464646" stroke-linejoin="round" stroke-width="0.583" fill="url(#linear-gradient-6)"/>
      <path id="polygon50" d="M23.208,28.054l-.875.292v4.082l-.583.291V36.51l-1.167-.583V32.173L20,31.553V27.179l.875-.291Z" stroke="#464646" stroke-linejoin="round" stroke-width="0.583" fill="url(#linear-gradient-7)"/>
      <path id="polygon52" d="M26.707,29.8l-.875.292v4.082l-.583.292V38.26l-1.167-.583V33.923L23.5,33.3V28.929l.875-.292Z" stroke="#464646" stroke-linejoin="round" stroke-width="0.583" fill="url(#linear-gradient-8)"/>
    </g>
    <path id="path1133" d="M14.135,9.213c-.488-.838-.663-1.195-.607-1.239A22.221,22.221,0,0,1,17.4,6.218a22.33,22.33,0,0,1,6.149-1.092h.354V7.9h-.388a21.606,21.606,0,0,0-3.079.367,17.731,17.731,0,0,0-4.67,1.648c-.482.247-.893.457-.912.465A12.554,12.554,0,0,1,14.135,9.213Z" fill="#147391"/>
    <path id="path1139" d="M42.209,25.641a18.135,18.135,0,0,0-.575-4.138,17.248,17.248,0,0,0-1.294-3.467c-.278-.569-.5-1.044-.484-1.054s.543-.323,1.18-.7l1.158-.676.3.549a20.942,20.942,0,0,1,2.46,8.947L45,26.334H43.6l-1.37-.077Z" fill="#147391"/>
    <path id="path1141" d="M41.837,36.569c-.791-.481-1.134-.677-2.129-1.261l.4-.756a18.236,18.236,0,0,0,2.03-6.791c.039-.385.071-.879.071-1.1v-.4H45l-.045.853a21.241,21.241,0,0,1-1.437,6.636,17.7,17.7,0,0,1-1.47,2.909A.569.569,0,0,1,41.837,36.569Z" fill="#147391"/>
    <path id="path1145" d="M22.994,46.954a21.346,21.346,0,0,1-8.342-2.221c-1.77-.971-1.437-.5-.671-1.817.361-.618.4-1.4.717-1.213a5.767,5.767,0,0,1,.915.426,18.889,18.889,0,0,0,5.793,1.893c.405.065,2.062.208,2.415.209h.152V47l-.287-.013-.692-.033Z" fill="#147391"/>
    <path id="path1147" d="M12.481,43.472c-.462-.309-1.142-.8-1.512-1.1A27.282,27.282,0,0,1,7.6,38.963a21.072,21.072,0,0,1-1.507-2.2c.808-.487,1.748-1.033,2.444-1.434a10.233,10.233,0,0,0,.543.966,18.576,18.576,0,0,0,4.965,4.9c.352.233.666.446.7.473a15.859,15.859,0,0,1-1.352,2.347A5.542,5.542,0,0,1,12.481,43.472Z" fill="#147391"/>
    <path id="path1172" d="M37.553,40.156c0-.028-.291-1.855-.646-4.059s-.636-4.02-.622-4.034c.046-.045,3.563-.593,3.6-.56.018.018.114.53.213,1.138l.326,1.48.184-.091-.344.5c-.439.644-.538.841-.541.757-.008-.222-.532-2.727-.571-2.766A10.8,10.8,0,0,0,37.3,32.8c-.035.035.96,6.315,1.008,6.363.024.025,6.345-.981,6.384-1.016.02-.017-.243-1.71-.283-1.83a3.543,3.543,0,0,0-1.154.122c-.621.106-1.216.214-1.235.2-.076-.076.137-.422.375-.7l.253-.3,1.2-.191a5.512,5.512,0,0,1,1.258-.129c.053.058.637,3.544.6,3.573-.01.008-.338.063-.728.123s-2.211.353-4.046.651C37.14,40.281,37.553,40.221,37.553,40.156Z" fill="#147391"/>
    <path id="path1172-3" d="M5.245,31.17c.025.014,1.766.637,3.87,1.384s3.831,1.375,3.836,1.394c.018.062-1.192,3.409-1.237,3.422-.025.007-.519-.155-1.1-.36l-1.367-.441-.1.221-.337-.533-.277-.928c.2.1,2.58.922,2.633.907a10.852,10.852,0,0,0,.645-1.75c-.014-.047-6-2.193-6.065-2.174-.033.01-2.189,6.036-2.177,6.088,0,.025,1.616.608,1.741.63l.43-1.124c.225-.589.3-1.2.419-1.115.1-.03.326.315.457.658l.139.365-.411,1.145a5.52,5.52,0,0,1-.49,1.165c-.077.019-3.415-1.144-3.422-1.192,0-.012.107-.326.242-.7s.753-2.109,1.373-3.862C5.334,30.748,5.188,31.139,5.245,31.17Z" fill="#147391"/>
    <path id="path1172-3-1" d="M29.272,7.288C29.248,7.3,27.819,8.476,26.1,9.9s-3.147,2.581-3.166,2.576c-.062-.017-2.313-2.774-2.3-2.82l1.775-1.686.039-.215.61.042c.778.053.906.091.835.137C23.7,8.05,21.9,9.716,21.883,9.769a10.88,10.88,0,0,0,1.17,1.452c.047.013,4.963-4.021,4.98-4.087.009-.033-4.054-4.978-4.1-5-.025-.008-1.353,1.074-1.435,1.17-.033.038.2.351.688.934a9.024,9.024,0,0,1,.725.923c-.027.1-.366.14-.728.075L22.8,5.173l-.772-.94a5.613,5.613,0,0,1-.748-1.019C21.3,3.138,24.011.872,24.056.891c.012,0,.225.259.474.565s1.422,1.729,2.608,3.162C29.589,7.581,29.329,7.255,29.272,7.288Z" fill="#147391"/>
    <path id="path1270" d="M7.181,16.268c-.643-.375-1.176-.7-1.185-.729a13.6,13.6,0,0,1,1.115-1.762A21.593,21.593,0,0,1,13,8.289c.265-.161.737-.463.773-.4.024.04.2.733.467,1.394l.628,1.092-.832.552a17.426,17.426,0,0,0-2.81,2.32,17.681,17.681,0,0,0-2.7,3.419l-.171.285Z" fill="#147391"/>
    <path id="path1346" d="M23.135,46.053a20.692,20.692,0,0,1-3.926-.592A20.064,20.064,0,0,1,7.622,37.4c-.206-.3-.735-1.126-.725-1.133.1-.068.861-.5.865-.491s.063.1.131.213A19.062,19.062,0,0,0,19.36,44.47a18.718,18.718,0,0,0,3.972.589L24,45.09v.981l-.35,0C23.458,46.063,23.226,46.057,23.135,46.053Z" fill="#fff" stroke="#fff" stroke-linecap="round" stroke-linejoin="round" stroke-width="0.026"/>
    <path id="path1348" d="M7.22,16.3l-.427-.249A12.254,12.254,0,0,1,8.118,13.98,19.494,19.494,0,0,1,10.134,11.7a19.958,19.958,0,0,1,10.1-5.323A20.468,20.468,0,0,1,23.6,6h.324v.983L23.447,7a19.051,19.051,0,0,0-10.723,3.78A17.688,17.688,0,0,0,10.639,12.6a18.807,18.807,0,0,0-2.845,3.643c-.095.158-.174.286-.176.286S7.437,16.424,7.22,16.3Z" fill="#fff" stroke="#fff" stroke-linecap="round" stroke-linejoin="round" stroke-width="0.026"/>
    <path id="path1350" d="M40.9,36.028l-.41-.243.171-.3a19.052,19.052,0,0,0,.131-18.676c-.086-.153-.155-.285-.155-.293s.26-.168.712-.426l.143-.082.244.45a19.186,19.186,0,0,1,1.054,2.267,20.05,20.05,0,0,1-.921,16.63,6.316,6.316,0,0,1-.533.912C41.32,36.271,41.124,36.161,40.9,36.028Z" fill="#fff" stroke="#000" stroke-linecap="round" stroke-linejoin="round" stroke-opacity="0" stroke-width="0.026"/>
    <path id="path1376" d="M23.479,44.238v2.72" fill="none" stroke="#147391" stroke-width="0.991"/>
    <path id="path1378" d="M5.987,15.528l2.362,1.421" fill="none" stroke="#147391"/>
    <path id="path1380" d="M39.8,16.967l2.411-1.314" fill="none" stroke="#147391" stroke-width="0.99"/>
    <path id="path1488" d="M7.5,15.834a3.875,3.875,0,0,1-.374-.247A10.51,10.51,0,0,1,8.53,13.492a28.24,28.24,0,0,1,2.892-2.925A20.092,20.092,0,0,1,23.23,6.037L23.915,6v-.9l-.325-.4a9.775,9.775,0,0,1-1.048-1.364A10.526,10.526,0,0,1,23.918,2.2a10.146,10.146,0,0,1,.775.877c1.409,1.7,3.289,4.009,3.289,4.045,0,.078-4.817,4.025-4.913,4.027a7.094,7.094,0,0,1-1.138-1.372c0-.043.994-.982,1.64-1.548l.344-.3V6.984h-.369a19.786,19.786,0,0,0-4.879.793,18.372,18.372,0,0,0-5.074,2.388,18.883,18.883,0,0,0-5.321,5.291,4.776,4.776,0,0,1-.418.577A3,3,0,0,1,7.5,15.834Z" fill="#464646" stroke="#464646" stroke-linecap="round" stroke-linejoin="round" stroke-width="0.152"/>
    <path id="path1490" d="M38.24,38.675c-.1-.578-.654-4.033-.8-5.035a2.928,2.928,0,0,1-.066-.823,9.27,9.27,0,0,1,1.634-.248c.141.016.145.026.327.856.1.461.226,1.081.277,1.376l.091.538.407.233.408.232.171-.312a28.132,28.132,0,0,0,1.279-2.737,19.3,19.3,0,0,0,1.208-7.237,19.021,19.021,0,0,0-1.914-7.841l-.348-.723.374-.205a3.044,3.044,0,0,1,.419-.206,8.18,8.18,0,0,1,.826,1.627,20.507,20.507,0,0,1,1.5,5.771,25.888,25.888,0,0,1,.029,3.916,20.259,20.259,0,0,1-2.186,7.416,7.766,7.766,0,0,1-.495.87l-.105.115.349.21.349.21L43.05,36.5c.591-.1,1.136-.177,1.211-.177H44.4l.134.829c.073.456.134.865.134.908,0,.063-.251.12-1.284.29-2.052.337-4.834.769-4.953.769C38.333,39.119,38.312,39.071,38.24,38.675Z" fill="#464646" stroke="#464646" stroke-linecap="round" stroke-linejoin="round" stroke-width="0.152"/>
    <path id="path1492" d="M22.6,46A20.115,20.115,0,0,1,6.961,36.344c-.048-.078-.093-.064-.462.149l-.409.236-.143.471c-.078.259-.256.772-.4,1.141l-.253.67-.643-.23L3.8,38.475,3.588,38.4l.3-.848c.308-.881,1.4-3.92,1.684-4.7a1.7,1.7,0,0,1,.223-.472c.057-.022,1.893.614,4.349,1.508,1.608.585,1.627.593,1.627.685a13.274,13.274,0,0,1-.578,1.571c-.049.062-.181.031-.871-.2-.447-.151-1.034-.356-1.3-.454L8.527,35.3l-.452.263c-.418.243-.7.437-.44.3.105-.055.136-.022.5.537a19.16,19.16,0,0,0,12.226,8.306c.406.083,1.058.186,1.45.23l.928.106.216.025v.48c0,.426-.01.479-.089.472Z" fill="#464646" stroke="#464646" stroke-linecap="round" stroke-linejoin="round" stroke-width="0.152"/>
    <path id="path1496" d="M7.518,15.913c-.532-.318-.532-.324-.062-1.04a16.794,16.794,0,0,1,2.723-3.2,17.607,17.607,0,0,1,4.712-3.453,20.091,20.091,0,0,1,8.044-2.214c.335-.017.683-.042.774-.056l.165-.025V5.16l-.641-.8c-.782-.973-.788-.985-.626-1.161A9.967,9.967,0,0,1,23.9,2.165c.1,0,.448.4,1.754,1.984a20.164,20.164,0,0,1,2.354,3.024c-.1.177-4.831,4.043-4.947,4.043a6.106,6.106,0,0,1-1.167-1.431,14.566,14.566,0,0,1,1.664-1.619l.318-.277V7.047h-.419a19.287,19.287,0,0,0-3.877.558A18.464,18.464,0,0,0,13.4,10.372a18.085,18.085,0,0,0-2.724,2.288,17.322,17.322,0,0,0-2.264,2.7,6.04,6.04,0,0,1-.538.709A.925.925,0,0,1,7.518,15.913Z" fill="url(#linear-gradient-9)"/>
    <path id="path1498" d="M22.145,46.015a20.153,20.153,0,0,1-10.817-4.528,21.128,21.128,0,0,1-4.053-4.542c-.192-.294-.359-.545-.37-.559a1.585,1.585,0,0,0-.4.176c-.35.188-.378.215-.436.432-.1.37-.661,1.919-.725,2-.052.066-.176.034-.939-.238-.842-.3-.878-.319-.849-.434.079-.314,1.98-5.6,2.092-5.819a.425.425,0,0,1,.137-.167c.078-.03,1.63.5,3.945,1.334,1.864.676,2.026.744,2.072.861a1.372,1.372,0,0,1-.107.456c-.321.905-.446,1.189-.535,1.217a7.378,7.378,0,0,1-1.794-.539l-.85-.3-.344.21c-.19.115-.352.215-.359.222-.024.021.869,1.312,1.273,1.838a19.343,19.343,0,0,0,7.078,5.631A19.011,19.011,0,0,0,22.2,44.928c.266.03.558.066.649.08l.165.027v.47c0,.478-.042.6-.2.587C22.766,46.088,22.467,46.054,22.145,46.015Z" fill="url(#linear-gradient-10)"/>
    <path id="path1500" d="M38.287,39.088c-.094-.176-.97-5.663-.97-6.075a.488.488,0,0,1,.045-.259,11.4,11.4,0,0,1,1.518-.233c.167,0,.231.026.291.116a12.257,12.257,0,0,1,.465,1.993,4.541,4.541,0,0,0,.161.692c.02.018.189.117.374.219l.337.185.485-.979a18.308,18.308,0,0,0,1.176-2.776,20.8,20.8,0,0,0,.853-3.924,30.733,30.733,0,0,0,0-3.992A19.775,19.775,0,0,0,41.159,17.6a3.06,3.06,0,0,1-.263-.667,2.243,2.243,0,0,1,.854-.419,10.087,10.087,0,0,1,.924,1.847,21.573,21.573,0,0,1,1.387,5.286,29.219,29.219,0,0,1,0,4.779,22.408,22.408,0,0,1-1.182,4.741,25.384,25.384,0,0,1-1.367,2.88.811.811,0,0,0-.12.207,2.525,2.525,0,0,0,.648.333c.054,0,.527-.07,1.052-.155a9.831,9.831,0,0,1,1.16-.14l.206.016.135.864a2.925,2.925,0,0,1,.083.928.63.63,0,0,1-.247.115c-.3.082-5.835.965-6.043.965-.028,0-.074-.042-.1-.094Z" fill="url(#linear-gradient-11)"/>
  </g>
</svg>
