<svg id="svg68" xmlns="http://www.w3.org/2000/svg" xmlns:xlink="http://www.w3.org/1999/xlink" viewBox="0 0 48 48">
  <defs>
    <linearGradient id="linear-gradient" x1="2.085" y1="-701.168" x2="39.679" y2="-743.016" gradientTransform="matrix(1, 0, 0, -1, -0.035, -696.015)" gradientUnits="userSpaceOnUse">
      <stop offset="0" stop-color="#fff"/>
      <stop offset="1" stop-color="#dcdcdc"/>
    </linearGradient>
    <linearGradient id="linear-gradient-2" x1="33.965" y1="-728.016" x2="48.072" y2="-742.202" gradientTransform="matrix(1, 0, 0, -1, -0.035, -694.015)" gradientUnits="userSpaceOnUse">
      <stop offset="0" stop-color="#74b3c7"/>
      <stop offset="0.177" stop-color="#6badc2"/>
      <stop offset="0.464" stop-color="#539db4"/>
      <stop offset="0.822" stop-color="#2d839d"/>
      <stop offset="1" stop-color="#177490"/>
    </linearGradient>
    <linearGradient id="linear-gradient-3" x1="12.952" y1="-710.977" x2="37.992" y2="-736.265" gradientTransform="matrix(1, 0, 0, -1, 3.965, -694.015)" xlink:href="#linear-gradient"/>
    <linearGradient id="linear-gradient-4" x1="218.269" y1="-968.61" x2="232.019" y2="-1007.048" gradientTransform="matrix(0.739, -0.002, 0.002, -0.734, -156.94, -700.643)" gradientUnits="userSpaceOnUse">
      <stop offset="0" stop-color="#afd7e1"/>
      <stop offset="1" stop-color="#73b4c8"/>
    </linearGradient>
    <linearGradient id="linear-gradient-5" x1="184.145" y1="990.924" x2="192.645" y2="982.674" gradientTransform="translate(-175.893 -1051.957) scale(1.153 1.052)" gradientUnits="userSpaceOnUse">
      <stop offset="0" stop-color="#f3f3f3"/>
      <stop offset="0.5" stop-color="#cdcccc"/>
      <stop offset="0.63" stop-color="#c8c7c7"/>
      <stop offset="0.779" stop-color="#bababa"/>
      <stop offset="0.938" stop-color="#a2a2a1"/>
      <stop offset="0.99" stop-color="#989898"/>
    </linearGradient>
    <linearGradient id="linear-gradient-6" x1="173.102" y1="-915.38" x2="181.326" y2="-924.193" gradientTransform="matrix(0.786, 0, 0, -0.786, -131.68, -698.169)" xlink:href="#linear-gradient-2"/>
    <linearGradient id="linear-gradient-7" x1="205.357" y1="985.891" x2="213.644" y2="977.703" xlink:href="#linear-gradient-5"/>
  </defs>
  <g id="g892">
    <path id="rect9" d="M.5,3.453H37.495v41H.5Z" stroke="#6f6e6e" stroke-width="1" fill="url(#linear-gradient)"/>
    <path id="path939" d="M4.982,5.952a1,1,0,1,1-1-1h0A1,1,0,0,1,4.982,5.952Z" fill="#147391"/>
    <path id="rect941" d="M3.953,0h.06c.258,0,.468.155.469.347V5.614c0,.192-.207.349-.465.35H3.953c-.259,0-.47-.155-.47-.349h0V.35c0-.193.209-.35.468-.35h0Z" fill="#6f6e6e"/>
    <path id="path939-3" d="M29,5.952a1,1,0,1,1-1-1h0A1,1,0,0,1,29,5.952Z" fill="#147391"/>
    <path id="rect941-6" d="M27.97,0h.061c.258,0,.466.158.465.35h0V5.614c0,.192-.207.349-.465.35h-.064c-.259,0-.47-.155-.47-.349h0V.35c0-.193.209-.35.468-.35h0Z" fill="#6f6e6e"/>
    <path id="path939-2" d="M23.2,6a1,1,0,1,1-1-1h0a1,1,0,0,1,1,1Z" fill="#147391"/>
    <path id="rect941-60" d="M22.171.035h.061c.258,0,.465.158.465.35h0V5.65c0,.192-.209.349-.467.349h-.063c-.259,0-.469-.155-.47-.349h0V.385c0-.193.209-.35.468-.35h.006Z" fill="#6f6e6e"/>
    <path id="path939-1" d="M16.991,5.952a1,1,0,1,1-1-1h0A1,1,0,0,1,16.991,5.952Z" fill="#147391"/>
    <path id="rect941-82" d="M15.961,0h.061c.258,0,.468.156.469.348V5.614c0,.192-.208.349-.466.35h-.064c-.259,0-.469-.155-.47-.349h0V.35c0-.193.209-.35.468-.35h0Z" fill="#6f6e6e"/>
    <path id="path939-84" d="M10.987,5.952a1,1,0,1,1-1-1,1,1,0,0,1,1,1Z" fill="#147391"/>
    <path id="rect941-9" d="M9.957,0h.061c.258,0,.468.156.469.348V5.614c0,.192-.208.349-.466.35H9.957c-.259,0-.47-.155-.47-.349h0V.35c0-.193.209-.35.468-.35h0Z" fill="#6f6e6e"/>
    <path id="path939-4" d="M35,5.952a1,1,0,1,1-1-1h0A1,1,0,0,1,35,5.952Z" fill="#147391"/>
    <path id="rect941-89" d="M33.974,0h.061c.258,0,.468.156.469.348V5.614c0,.192-.208.349-.466.35h-.064c-.259,0-.47-.155-.47-.349h0V.35c0-.193.209-.35.468-.35h0Z" fill="#6f6e6e"/>
    <path id="path1079" d="M34.325,37.364l9.519,9.519a2.026,2.026,0,0,0,2.867.012l.012-.012.16-.16a1.932,1.932,0,0,0,.067-2.732h0l-.067-.067-9.6-9.6Z" fill="#4593ab" fill-rule="evenodd"/>
    <path id="path1081" d="M34.325,37.364l9.519,9.519a2.026,2.026,0,0,0,2.867.012l.012-.012.16-.16a1.932,1.932,0,0,0,.067-2.732h0l-.067-.067-9.6-9.6" stroke="#464646" stroke-miterlimit="10" stroke-width="1.04" fill="url(#linear-gradient-2)"/>
    <path id="path1083" d="M27.446,15.527a11.983,11.983,0,1,1-.032,0Z" stroke="#464646" stroke-linecap="round" stroke-linejoin="round" stroke-width="1.04" fill="url(#linear-gradient-3)"/>
    <path id="path45" d="M25.541,29.526l-2.952-3.5-2.977,2.468,5.9,7.249L35.817,23.026l-2.945-2.409" fill="#147391"/>
    <path id="polygon47" d="M25.61,31.682,33,22.639l1.072.814L25.6,33.836l-4.412-5.409,1.082-.8Z" fill="#3b90b2"/>
    <g id="g916">
      <path id="path1067-6" d="M11.148,9.385c0,1-1.572,1.807-3.519,1.807s-3.522-.807-3.526-1.8,1.564-1.81,3.509-1.81,3.526.8,3.536,1.8" fill="#464646"/>
      <path id="rect1426-6" d="M5.814,36.949h3.6a.264.264,0,0,1,.264.262h0v5.465a.264.264,0,0,1-.262.264h-3.6a.264.264,0,0,1-.264-.262V37.213a.265.265,0,0,1,.261-.264Z" fill="#464646"/>
      <path id="rect1065-1" d="M5.024,9.42H10a2.611,2.611,0,0,1,2.616,2.606V36.149a2.61,2.61,0,0,1-2.6,2.617H5.024a2.61,2.61,0,0,1-2.616-2.6h0V12.035A2.611,2.611,0,0,1,5.014,9.42h.01Z" stroke="#464646" stroke-linecap="square" stroke-miterlimit="3.143" stroke-width="0.786" fill="url(#linear-gradient-4)"/>
      <path id="path1022-9-7" d="M10.607,15.068a3.138,3.138,0,1,1,0-.015" fill="#fff" stroke="#464646" stroke-linecap="square" stroke-miterlimit="3.143" stroke-width="0.393"/>
      <path id="path1022-95" d="M10.686,16.019a3.213,3.213,0,1,1,0-.016" stroke="#464646" stroke-linecap="square" stroke-miterlimit="3.143" stroke-width="0.236" fill="url(#linear-gradient-5)"/>
      <path id="path1022-9-2-6" d="M10.607,23.64a3.137,3.137,0,1,1,0-.015" fill="#fff" stroke="#464646" stroke-linecap="square" stroke-miterlimit="3.143" stroke-width="0.393"/>
      <path id="path1022-2-6" d="M10.686,24.59a3.216,3.216,0,1,1,0-.015" stroke="#464646" stroke-linecap="square" stroke-miterlimit="3.143" stroke-width="0.236" fill="url(#linear-gradient-6)"/>
      <path id="path1022-9-2-7-9" d="M10.607,32.282a3.136,3.136,0,1,1,0-.015" fill="#fff" stroke="#464646" stroke-linecap="square" stroke-miterlimit="3.143" stroke-width="0.393"/>
      <path id="path1022-2-3-5" d="M10.686,33.232a3.215,3.215,0,1,1,0-.015" stroke="#464646" stroke-linecap="square" stroke-miterlimit="3.143" stroke-width="0.236" fill="url(#linear-gradient-7)"/>
    </g>
  </g>
</svg>
