<svg id="Image" xmlns="http://www.w3.org/2000/svg" xmlns:xlink="http://www.w3.org/1999/xlink" viewBox="0 0 48 48">
  <defs>
    <linearGradient id="linear-gradient" x1="4.437" y1="744" x2="48.437" y2="788" gradientTransform="translate(0 -742)" gradientUnits="userSpaceOnUse">
      <stop offset="0" stop-color="#fff"/>
      <stop offset="1" stop-color="#dcdcdc"/>
    </linearGradient>
    <linearGradient id="linear-gradient-2" x1="170.699" y1="973.797" x2="208.293" y2="1015.645" gradientTransform="translate(-91.394 -597.378) scale(0.625)" xlink:href="#linear-gradient"/>
    <linearGradient id="linear-gradient-3" x1="202.58" y1="1000.644" x2="216.687" y2="1014.83" gradientTransform="translate(-91.394 -596.128) scale(0.625)" gradientUnits="userSpaceOnUse">
      <stop offset="0" stop-color="#74b3c7"/>
      <stop offset="0.177" stop-color="#6badc2"/>
      <stop offset="0.464" stop-color="#539db4"/>
      <stop offset="0.822" stop-color="#2d839d"/>
      <stop offset="1" stop-color="#177490"/>
    </linearGradient>
    <linearGradient id="linear-gradient-4" x1="181.567" y1="983.606" x2="206.607" y2="1008.893" gradientTransform="translate(-88.895 -596.128) scale(0.625)" xlink:href="#linear-gradient"/>
  </defs>
  <g id="g1083">
    <path id="rect16" d="M5.437,1h42V47h-42Z" fill="url(#linear-gradient)"/>
    <path id="path18" d="M5.438,1V11.062H1.5a.5.5,0,0,0,0,1H5.438v24H1.5a.5.5,0,0,0,0,1H5.438V47h42V1Zm41,45h-40V37.062h4.874a.5.5,0,0,0,0-1H6.438v-24h4.874a.5.5,0,0,0,0-1H6.438V2h40Z" fill="#464646"/>
    <g id="g1001">
      <g id="g961">
        <path id="rect9-2" d="M14.312,10.158H37.435V35.78H14.312Z" stroke="#6f6e6e" stroke-miterlimit="2.5" stroke-width="0.625" fill="url(#linear-gradient-2)"/>
        <path id="line15-6" d="M16.5,16.4h10" fill="none" stroke="#147391" stroke-miterlimit="6.249" stroke-width="0.625"/>
        <path id="line17-0" d="M16.5,18.282h6.874" fill="none" stroke="#147391" stroke-miterlimit="6.249" stroke-width="0.625"/>
        <path id="line27-0" d="M16.5,23.3h6.249" fill="none" stroke="#147391" stroke-miterlimit="6.249" stroke-width="0.625"/>
        <path id="line29-5" d="M16.5,25.175h6.249" fill="none" stroke="#147391" stroke-miterlimit="6.249" stroke-width="0.625"/>
        <path id="line39-1" d="M16.5,29.556H24" fill="none" stroke="#147391" stroke-miterlimit="6.249" stroke-width="0.625"/>
        <path id="line41-6" d="M16.5,31.424h6.249" fill="none" stroke="#147391" stroke-miterlimit="6.249" stroke-width="0.625"/>
        <path id="path939-30" d="M17.114,11.721a.625.625,0,1,1-.625-.625A.625.625,0,0,1,17.114,11.721Z" fill="#147391"/>
        <path id="rect941-3" d="M16.47,8h.038c.161,0,.293.1.294.218h0v3.29c0,.121-.13.219-.292.219h-.04c-.162,0-.293-.1-.293-.218h0V8.219c0-.12.13-.218.292-.219Z" fill="#6f6e6e"/>
        <path id="path939-3-7" d="M32.123,11.721A.625.625,0,1,1,31.5,11.1.625.625,0,0,1,32.123,11.721Z" fill="#147391"/>
        <path id="rect941-6-2" d="M31.481,8h.038c.162,0,.292.1.292.219h0v3.29c0,.121-.13.219-.292.219h-.04c-.162,0-.293-.1-.293-.218h0V8.219c0-.12.13-.218.292-.219Z" fill="#6f6e6e"/>
        <path id="path939-2-9" d="M28.5,11.75a.625.625,0,1,1-.625-.625A.625.625,0,0,1,28.5,11.75Z" fill="#147391"/>
        <path id="rect941-60-4" d="M27.857,8.022H27.9c.162,0,.293.1.293.219h0v3.29c0,.121-.13.219-.291.219h-.04c-.162,0-.293-.1-.293-.218h0V8.241c0-.12.13-.218.292-.219Z" fill="#6f6e6e"/>
        <path id="path939-1-7" d="M24.619,11.721A.625.625,0,1,1,24,11.1.624.624,0,0,1,24.619,11.721Z" fill="#147391"/>
        <path id="rect941-82-3" d="M23.976,8h.038c.161,0,.293.1.293.218h0v3.29c0,.121-.13.219-.291.219h-.04c-.162,0-.294-.1-.294-.218h0V8.219c0-.12.131-.218.293-.219Z" fill="#6f6e6e"/>
        <path id="path939-84-5" d="M20.867,11.721a.625.625,0,1,1-.625-.625A.625.625,0,0,1,20.867,11.721Z" fill="#147391"/>
        <path id="rect941-9-4" d="M20.223,8h.038c.162,0,.293.1.293.218h0v3.29c0,.121-.129.219-.291.219h-.04c-.162,0-.293-.1-.294-.218h0V8.219c0-.12.131-.218.293-.219Z" fill="#6f6e6e"/>
        <path id="path939-4-8" d="M35.878,11.721a.625.625,0,1,1-.625-.625A.625.625,0,0,1,35.878,11.721Z" fill="#147391"/>
        <path id="rect941-89-7" d="M35.234,8h.038c.162,0,.293.1.293.218h0v3.29c0,.121-.13.219-.291.219h-.04c-.162,0-.293-.1-.294-.218h0V8.219c0-.12.131-.218.293-.219Z" fill="#6f6e6e"/>
        <path id="path1079-2" d="M35.453,31.353,41.4,37.3a1.267,1.267,0,0,0,1.792.008L43.2,37.3l.1-.1a1.207,1.207,0,0,0,.042-1.708q-.02-.021-.042-.042l-6-6Z" fill="#4593ab" fill-rule="evenodd"/>
        <path id="path1081-8" d="M35.453,31.353,41.4,37.3a1.267,1.267,0,0,0,1.792.008L43.2,37.3l.1-.1a1.207,1.207,0,0,0,.042-1.708q-.02-.021-.042-.042l-6-6" stroke="#464646" stroke-miterlimit="6.249" stroke-width="0.65" fill="url(#linear-gradient-3)"/>
        <path id="path1083-2" d="M31.154,17.7a7.489,7.489,0,1,1-.02,0Z" stroke="#464646" stroke-linecap="round" stroke-linejoin="round" stroke-width="0.65" fill="url(#linear-gradient-4)"/>
        <path id="path45-5" d="M29.963,26.454l-1.845-2.187-1.861,1.542,3.688,4.531,6.441-7.949-1.841-1.5" fill="#147391"/>
        <path id="polygon47-4" d="M30.006,27.8l4.617-5.652.67.509L30,29.147l-2.757-3.38.676-.5Z" fill="#3b90b2"/>
      </g>
    </g>
  </g>
</svg>
