<svg id="Layer_1" data-name="Layer 1" xmlns="http://www.w3.org/2000/svg" xmlns:xlink="http://www.w3.org/1999/xlink" viewBox="0 0 48 48">
  <defs>
    <linearGradient id="linear-gradient" x1="19.771" y1="775.022" x2="61.271" y2="816.522" gradientTransform="translate(-23.671 -720.651) scale(0.946 0.937)" gradientUnits="userSpaceOnUse">
      <stop offset="0" stop-color="#fff"/>
      <stop offset="0.232" stop-color="#fafafa"/>
      <stop offset="0.496" stop-color="#ededed"/>
      <stop offset="0.775" stop-color="#d6d6d6"/>
      <stop offset="1" stop-color="#bebebe"/>
    </linearGradient>
    <linearGradient id="linear-gradient-2" x1="34.771" y1="21.978" x2="46.271" y2="10.478" gradientTransform="matrix(0.946, 0, 0, -0.937, -23.671, 23.651)" gradientUnits="userSpaceOnUse">
      <stop offset="0" stop-color="#74b3c7"/>
      <stop offset="0.177" stop-color="#6badc2"/>
      <stop offset="0.464" stop-color="#539db4"/>
      <stop offset="0.822" stop-color="#2d839d"/>
      <stop offset="1" stop-color="#177490"/>
    </linearGradient>
    <linearGradient id="linear-gradient-3" x1="46.521" y1="772.272" x2="58.521" y2="784.272" gradientTransform="translate(-23.671 -720.651) scale(0.946 0.937)" gradientUnits="userSpaceOnUse">
      <stop offset="0" stop-color="#fff"/>
      <stop offset="0.221" stop-color="#f8f8f8"/>
      <stop offset="0.541" stop-color="#e5e5e5"/>
      <stop offset="0.92" stop-color="#c6c6c6"/>
      <stop offset="1" stop-color="#bebebe"/>
    </linearGradient>
    <linearGradient id="linear-gradient-4" x1="279.233" y1="-289.731" x2="282.747" y2="-293.246" gradientTransform="matrix(0.542, 0, 0, -0.542, -106.826, -119.926)" gradientUnits="userSpaceOnUse">
      <stop offset="0" stop-color="#7d7d7d"/>
      <stop offset="1" stop-color="#b1b1b1"/>
    </linearGradient>
    <linearGradient id="linear-gradient-5" x1="-514.472" y1="-597.21" x2="-515.257" y2="-604.95" gradientTransform="matrix(0.342, -0.42, -0.42, -0.342, -33.473, -384.901)" gradientUnits="userSpaceOnUse">
      <stop offset="0" stop-color="#f2f2f2"/>
      <stop offset="0.5" stop-color="#ccc"/>
      <stop offset="0.63" stop-color="#c7c7c7"/>
      <stop offset="0.779" stop-color="#b9b9b9"/>
      <stop offset="0.938" stop-color="#a2a2a2"/>
      <stop offset="0.99" stop-color="#999"/>
    </linearGradient>
    <linearGradient id="linear-gradient-6" x1="-528.001" y1="-565.985" x2="-531.428" y2="-599.752" gradientTransform="matrix(0.342, -0.42, -0.42, -0.342, -33.473, -384.901)" gradientUnits="userSpaceOnUse">
      <stop offset="0" stop-color="#b1b1b1"/>
      <stop offset="1" stop-color="#7d7d7d"/>
    </linearGradient>
    <linearGradient id="linear-gradient-7" x1="-514.283" y1="-567.376" x2="-517.639" y2="-600.444" xlink:href="#linear-gradient-5"/>
    <linearGradient id="linear-gradient-8" x1="-580.983" y1="-534.074" x2="-571.483" y2="-543.574" xlink:href="#linear-gradient-5"/>
    <linearGradient id="linear-gradient-9" x1="-579.022" y1="-541.114" x2="-569.522" y2="-550.614" xlink:href="#linear-gradient-5"/>
    <linearGradient id="linear-gradient-10" x1="-577.062" y1="-548.153" x2="-567.562" y2="-557.653" xlink:href="#linear-gradient-5"/>
    <linearGradient id="linear-gradient-11" x1="-575.101" y1="-555.192" x2="-565.601" y2="-564.692" xlink:href="#linear-gradient-5"/>
  </defs>
  <g id="g921">
    <path id="polyline35" d="M23.179.471H.473V44.529H34.531V11.72" stroke="#464646" stroke-linecap="round" stroke-miterlimit="10" fill="url(#linear-gradient)"/>
    <path id="line37" d="M5.676,15.469H29.328" fill="none" stroke="#147391" stroke-width="0.942"/>
    <path id="line39" d="M5.676,19.219H29.328" fill="none" stroke="#147391" stroke-width="0.942"/>
    <path id="line41" d="M5.676,22.969H29.328" fill="none" stroke="#147391" stroke-width="0.942"/>
    <path id="line43" d="M5.676,26.718H29.328" fill="none" stroke="#147391" stroke-width="0.942"/>
    <path id="line45" d="M5.676,30.468H29.328" fill="none" stroke="#147391" stroke-width="0.942"/>
    <path id="line47" d="M5.676,34.218H29.328" fill="none" stroke="#147391" stroke-width="0.942"/>
    <path id="line49" d="M5.676,37.967H29.328" fill="none" stroke="#147391" stroke-width="0.942"/>
    <path id="polyline51" d="M23.179,10.782H6.149V6.1h17.03" stroke="#147391" fill="url(#linear-gradient-2)"/>
    <path id="polygon53" d="M23.179.471V11.72H34.531Z" stroke="#464646" stroke-linejoin="round" fill="url(#linear-gradient-3)"/>
    <g id="g939">
      <path id="polygon30" d="M45.56,39.606l-1.083-.541V36.883l1.083-.739Z" stroke="#464646" stroke-linejoin="round" stroke-width="0.542" fill="url(#linear-gradient-4)"/>
      <path id="polygon32" d="M37.437,42.314V39.066l10.288-7.582v3.248Z" fill="url(#linear-gradient-5)"/>
      <path id="polygon34" d="M37.437,42.314V39.066L22.274,31.484v3.248Z" fill="url(#linear-gradient-6)"/>
      <path id="polygon36" d="M37.437,39.065,22.274,31.483l10.831-6.5,14.621,6.5Z" fill="url(#linear-gradient-7)"/>
      <path id="line38" d="M37.437,42.314V39.066" fill="none" stroke="#6e6e6e" stroke-linejoin="round" stroke-width="0.542"/>
      <path id="line40" d="M37.437,39.065,22.274,31.483" fill="none" stroke="#6e6e6e" stroke-linejoin="round" stroke-width="0.547"/>
      <path id="line42" d="M47.726,31.483,37.437,39.065" fill="none" stroke="#6e6e6e" stroke-linejoin="round" stroke-width="0.547"/>
      <path id="polygon44" d="M47.726,31.483,33.1,24.985l-10.831,6.5h0v3.248l15.162,7.582,10.289-7.582V31.484Z" fill="none" stroke="#464646" stroke-linejoin="round" stroke-width="0.547"/>
      <path id="polygon46" d="M25.523,35.274v3.791l-.541.271v3.519L23.9,42.314V38.828l-.542-.576V34.191l.813-.271L26.336,35Z" stroke="#464646" stroke-linejoin="round" stroke-width="0.542" fill="url(#linear-gradient-8)"/>
      <path id="polygon48" d="M28.773,36.9v3.79l-.542.271v3.52l-1.083-.541V40.452l-.541-.575V35.816l.812-.271,2.166,1.083Z" stroke="#464646" stroke-linejoin="round" stroke-width="0.542" fill="url(#linear-gradient-9)"/>
      <path id="polygon50" d="M32.022,38.523v3.791l-.542.271v3.52L30.4,45.563V42.077l-.541-.575V37.44l.812-.271,2.166,1.083Z" stroke="#464646" stroke-linejoin="round" stroke-width="0.542" fill="url(#linear-gradient-10)"/>
      <path id="polygon52" d="M35.271,40.148v3.791l-.541.27v3.52l-1.084-.541V43.7l-.541-.576V39.065l.812-.271,2.166,1.083Z" stroke="#464646" stroke-linejoin="round" stroke-width="0.542" fill="url(#linear-gradient-11)"/>
    </g>
  </g>
</svg>
