<?xml version="1.0" encoding="iso-8859-1"?>
<!-- Generator: Adobe Illustrator 19.0.0, SVG Export Plug-In . SVG Version: 6.00 Build 0)  -->
<svg xmlns="http://www.w3.org/2000/svg" xmlns:xlink="http://www.w3.org/1999/xlink" version="1.1" id="Capa_1" x="0px" y="0px" viewBox="0 0 512 512" style="enable-background:new 0 0 512 512;" xml:space="preserve" width="512px" height="512px">
<g>
	<g>
		<path d="M349.895,251.932c-1.858-1.86-4.437-2.929-7.065-2.929s-5.207,1.068-7.066,2.929c-1.859,1.86-2.929,4.438-2.929,7.066    s1.068,5.207,2.929,7.065c1.859,1.859,4.438,2.93,7.066,2.93s5.197-1.069,7.065-2.93c1.859-1.858,2.93-4.437,2.93-7.065    S351.755,253.791,349.895,251.932z" fill="#595959"/>
	</g>
</g>
<g>
	<g>
		<path d="M415.794,27.114H95.952c-5.519,0-9.995,4.476-9.995,9.995v159.921c0,5.519,4.476,9.995,9.995,9.995h149.926v41.979H75.131    c-5.519,0-9.995,4.476-9.995,9.995v77.961H9.995c-5.519,0-9.995,4.476-9.995,9.995v127.937c0,5.519,4.476,9.995,9.995,9.995    h127.937c5.519,0,9.995-4.476,9.995-9.995V346.955c0-5.519-4.476-9.995-9.995-9.995H85.126v-67.966h160.752v67.966h-53.846    c-5.519,0-9.995,4.476-9.995,9.995v127.937c0,5.519,4.476,9.995,9.995,9.995h127.937c5.519,0,9.995-4.476,9.995-9.995V346.955    c0-5.52-4.476-9.995-9.995-9.995h-54.1v-67.966h39.98c5.519,0,9.995-4.476,9.995-9.995c0-5.519-4.476-9.995-9.995-9.995h-39.98    v-41.979h149.926c5.519,0,9.995-4.476,9.995-9.995V37.109C425.789,31.589,421.313,27.114,415.794,27.114z M127.937,356.95v107.946    H19.99V356.95H127.937z M309.973,356.95v107.946H202.027V356.95H309.973z M405.799,187.034H105.947v-99.95h67.71    c5.519,0,9.995-4.476,9.995-9.995s-4.476-9.995-9.995-9.995h-67.71v-19.99h299.851V187.034z" fill="#595959"/>
	</g>
</g>
<g>
	<g>
		<path d="M502.005,336.96H446.61v-77.961c0-5.519-4.476-9.995-9.995-9.995h-54.805c-5.519,0-9.995,4.476-9.995,9.995    c0,5.519,4.476,9.995,9.995,9.995h44.81v67.966h-52.552c-5.519,0-9.995,4.476-9.995,9.995v127.937    c0,5.519,4.476,9.995,9.995,9.995h127.937c5.519,0,9.995-4.476,9.995-9.995V346.955C512,341.435,507.524,336.96,502.005,336.96z     M492.01,464.896H384.063V356.95H492.01V464.896z" fill="#595959"/>
	</g>
</g>
<g>
	<g>
		<path d="M222.769,70.022c-1.86-1.859-4.439-2.929-7.066-2.929c-2.639,0-5.207,1.068-7.077,2.929    c-1.858,1.859-2.919,4.438-2.919,7.066c0,2.629,1.06,5.207,2.919,7.065c1.869,1.859,4.448,2.93,7.077,2.93    c2.629,0,5.197-1.069,7.066-2.93c1.859-1.858,2.929-4.437,2.929-7.065C225.698,74.46,224.63,71.881,222.769,70.022z" fill="#595959"/>
	</g>
</g>
<g>
</g>
<g>
</g>
<g>
</g>
<g>
</g>
<g>
</g>
<g>
</g>
<g>
</g>
<g>
</g>
<g>
</g>
<g>
</g>
<g>
</g>
<g>
</g>
<g>
</g>
<g>
</g>
<g>
</g>
</svg>
